<svg width="563" height="609" viewBox="0 0 563 609" fill="none" xmlns="http://www.w3.org/2000/svg">
<g opacity="0.2">
<path d="M237.576 578.792L186.04 549.799C158.413 565.37 169.303 607.917 200.916 607.917H222.565C227.747 607.917 232.927 606.573 237.444 604.023C247.14 598.521 247.14 584.429 237.444 578.924L237.576 578.792Z" fill="url(#paint0_linear_166_1570)"/>
<path d="M191.617 127.291C205.829 142.592 229.739 142.592 243.95 127.291C256.967 113.332 256.967 91.4553 243.95 77.496L183.647 12.6697C176.874 5.42154 167.442 1.26049 157.481 1.26049C126.001 1.26049 109.663 39.2446 131.315 62.4651L191.617 127.291Z" fill="url(#paint1_linear_166_1570)"/>
<path d="M372.396 215.472C358.182 200.171 334.142 200.171 319.928 215.472C306.911 229.431 306.911 251.308 319.928 265.267L447.442 402.303L360.308 451.426C335.736 465.251 335.736 501.087 360.308 514.911C371.199 521.085 384.483 521.085 395.374 514.911L563 420.423L372.263 215.472H372.396Z" fill="url(#paint2_linear_166_1570)"/>
<path d="M360.305 539.736L355.92 537.186L282.068 495.58L116.436 402.298L282.068 224.459L331.348 171.442L432.695 62.592C454.344 39.3715 438.006 1.38737 406.526 1.38737C396.565 1.38737 387.135 5.54844 380.36 12.7966L282.068 118.427L232.659 171.442L1.00964 420.416L208.351 537.321L282.203 578.929L325.371 603.356C330.683 606.443 336.794 607.919 342.903 607.919C379.962 607.919 392.847 558.126 360.437 539.871L360.305 539.736Z" fill="url(#paint3_linear_166_1570)"/>
</g>
<defs>
<linearGradient id="paint0_linear_166_1570" x1="207.475" y1="549.799" x2="207.475" y2="607.917" gradientUnits="userSpaceOnUse">
<stop stop-color="#CBD1D6"/>
<stop offset="1" stop-color="#6A6D70" stop-opacity="0"/>
</linearGradient>
<linearGradient id="paint1_linear_166_1570" x1="187.581" y1="1.26049" x2="187.581" y2="138.767" gradientUnits="userSpaceOnUse">
<stop stop-color="#CBD1D6"/>
<stop offset="1" stop-color="#6A6D70" stop-opacity="0"/>
</linearGradient>
<linearGradient id="paint2_linear_166_1570" x1="436.583" y1="203.996" x2="436.583" y2="519.542" gradientUnits="userSpaceOnUse">
<stop stop-color="#CBD1D6"/>
<stop offset="1" stop-color="#6A6D70" stop-opacity="0"/>
</linearGradient>
<linearGradient id="paint3_linear_166_1570" x1="221.785" y1="1.38737" x2="221.785" y2="607.919" gradientUnits="userSpaceOnUse">
<stop stop-color="#CBD1D6"/>
<stop offset="1" stop-color="#6A6D70" stop-opacity="0"/>
</linearGradient>
</defs>
</svg>
