<svg width="61" height="72" viewBox="0 0 61 72" fill="none" xmlns="http://www.w3.org/2000/svg">
<path d="M8.17391 41.5915C7.897 39.7911 7.96598 39.0119 8.39893 38.7698C8.83188 38.5274 9.97435 38.9948 9.97435 38.9948L8.17391 41.5915Z" fill="#FF9566"/>
<path d="M12.9926 43.0513C12.4157 44.1824 11.6077 44.5055 10.6842 43.8362C10.6842 43.8362 9.34554 44.021 8.99932 43.282C8.99932 43.282 7.37032 43.7662 7.83842 41.9661C8.30687 40.166 9.57625 39.8429 9.57625 39.8429L12.9926 43.0513Z" fill="#FF9566"/>
<path d="M21.5684 10.9573C20.652 11.8352 18.8204 11.6018 18.8204 11.6018L18.5499 11.0885L18.4461 11.5175C18.4461 11.5175 16.7702 12.6609 15.3009 11.5787C13.8313 10.4969 14.3707 9.47226 14.3707 9.47226C14.3707 9.47226 13.3739 8.60502 13.8584 7.73243C14.3429 6.86017 15.3284 6.14161 15.3284 6.14161L15.9783 6.18045L15.3434 5.80074C15.3434 5.80074 14.7504 4.98841 15.2236 3.8667C15.6967 2.74499 16.6165 2.61339 16.6165 2.61339L17.0217 2.69978C17.0217 2.69978 16.1976 1.563 17.0933 0.901691C17.9887 0.240382 19.6522 0.836395 19.6522 0.836395L19.8213 1.15717L19.9488 0.574219C19.9488 0.574219 20.7501 -0.123922 21.5899 0.0193892C22.4297 0.162701 23.1609 1.29379 23.1609 1.29379L22.9925 1.65676L23.6056 1.56903C23.6056 1.56903 25.2219 3.15684 24.0637 5.48096C22.9048 7.80509 21.5684 10.9573 21.5684 10.9573Z" fill="#CC5A29"/>
<path d="M22.4357 3.07279L22.0034 2.58594L22.1839 3.30316C22.1839 3.30316 22.0289 4.29664 20.9011 4.75537C19.7734 5.2141 19.03 4.65659 19.03 4.65659L18.6245 3.50574C18.6245 3.50574 17.7446 4.15734 17.4747 4.15031C16.3617 4.12218 15.627 3.76692 15.627 3.76692L15.7345 3.42036L15.3036 3.6966C15.2758 3.75118 15.2487 3.80676 15.2236 3.8667C14.7504 4.98842 15.3434 5.80074 15.3434 5.80074L15.9783 6.18045L15.3284 6.14161C15.3284 6.14161 14.3429 6.85984 13.8584 7.73243C13.3739 8.60469 14.3707 9.47226 14.3707 9.47226C14.3707 9.47226 13.8316 10.4969 15.3009 11.5787C16.7705 12.6606 18.4461 11.5175 18.4461 11.5175L18.5499 11.0885L18.8204 11.6018C18.8204 11.6018 20.652 11.8352 21.5684 10.9573C21.5684 10.9573 22.9048 7.80476 24.063 5.48096C24.5412 4.52131 24.5462 3.6879 24.3875 3.03931C23.4713 3.23452 22.4357 3.07279 22.4357 3.07279Z" fill="#B24119"/>
<path d="M36.311 11.9273C39.1983 21.9109 40.7105 25.1662 41.2606 25.3832C41.8104 25.6002 43.6668 23.647 44.1479 23.2128C44.6291 22.7788 48.4476 9.08249 48.4476 9.08249L51.7786 7.87573C51.7786 7.87573 50.9536 24.8042 50.8849 25.3105C50.8163 25.8168 48.2728 32.5451 47.2415 33.1237C46.678 33.4398 40.8772 35.0758 39.498 35.2111C38.3532 35.3236 33.2177 33.1237 32.1181 31.9661C31.0785 30.8732 36.311 11.9273 36.311 11.9273Z" fill="#D83688"/>
<path d="M40.0071 34.4584C38.8234 34.4925 33.9612 32.0418 32.8241 30.8093C31.9143 29.8235 31.0786 30.8732 32.1176 31.9668C33.2175 33.1244 38.353 35.3243 39.4974 35.2118C40.8679 35.0772 46.5997 33.4626 47.2269 33.1314C45.4141 33.5858 41.176 34.4246 40.0071 34.4584Z" fill="#BC1E74"/>
<path d="M40.5775 30.4527C43.4882 24.752 47.9065 21.0122 51.1105 21.266C51.3767 16.1115 51.7779 7.87607 51.7779 7.87607L48.4469 9.08283C48.4469 9.08283 44.6284 22.7788 44.1472 23.2131C43.666 23.647 41.81 25.6005 41.2599 25.3835C40.7097 25.1665 39.1976 21.9109 36.3103 11.9276C36.3103 11.9276 31.0777 30.8732 32.1171 31.9668C33.0513 32.9502 36.8969 34.6847 38.7352 35.116C39.1611 33.6035 39.7742 32.0258 40.5775 30.4527Z" fill="#BC1E74"/>
<path d="M32.0117 9.73279C36.9312 10.1667 45.9913 12.0479 45.9913 12.0479L46.7253 18.6543C45.182 19.2811 35.1174 19.8647 33.7408 19.0413C32.4263 18.2548 32.0117 9.73279 32.0117 9.73279Z" fill="#FFB882"/>
<path d="M32.541 15.2724C32.8109 17.0832 33.1993 18.7175 33.7404 19.041C35.1169 19.8644 45.1812 19.2811 46.7248 18.6539L46.3408 15.197C43.726 15.7318 34.0441 16.0475 32.541 15.2724Z" fill="#FF9566"/>
<path d="M11.5553 33.6805C11.8299 25.859 13.5205 20.0867 13.5205 20.0867L22.0291 29.501C22.0291 29.501 19.5704 36.533 17.7509 38.8441C15.9317 41.1551 11.4569 36.4835 11.5553 33.6805Z" fill="#FFB882"/>
<path d="M12.0501 28.892L11.6885 30.1942C13.8589 31.1709 15.4504 33.1602 16.029 34.5347L17.4759 32.1834C17.4759 32.1834 13.1671 28.9469 12.0501 28.892Z" fill="#FF9566"/>
<path d="M13.5204 20.0867C13.5204 20.0867 13.3935 20.5213 13.204 21.3096C13.204 21.3096 16.4597 26.1744 16.7158 28.1567C16.9984 30.3439 15.6641 33.7837 13.8446 36.0948C13.5228 36.5036 13.117 36.6904 12.6689 36.7112C14.0947 38.7869 16.525 40.4015 17.7512 38.8438C19.5707 36.5327 22.0294 29.5007 22.0294 29.5007L13.5204 20.0867Z" fill="#FF9566"/>
<path d="M22.3244 40.5157C22.521 36.3851 21.1441 31.0742 21.1441 31.0742C21.1441 31.0742 13.2764 23.108 13.2764 20.7969C13.2764 18.4859 25.2747 9.73279 32.0117 9.73279C32.0117 9.73279 35.5165 14.7708 34.7296 23.032C33.9427 31.2931 35.7488 36.1882 35.7488 36.1882C30.8752 39.4398 26.2045 41.7716 22.3244 40.5157Z" fill="#FFB882"/>
<path d="M34.3407 22.8833C33.751 30.8137 35.0277 35.8848 35.2066 36.5461C35.387 36.4279 35.5675 36.3091 35.7487 36.1882C35.7487 36.1882 34.3226 31.1234 35.1095 22.8622C35.8963 14.601 32.0115 9.73279 32.0115 9.73279C31.7785 9.73279 31.5387 9.74417 31.2939 9.7646C32.2014 11.1277 34.8677 15.7914 34.3407 22.8833Z" fill="#FF9566"/>
<path d="M24.2906 40.8541C23.8536 34.8123 26.294 30.5471 29.2469 29.3949C31.2245 28.6231 34.0355 29.7934 35.1766 32.9831C34.895 30.6783 34.6951 27.2148 35.1096 22.8625C35.8965 14.6013 32.0117 9.73309 32.0117 9.73309C25.275 9.73309 13.2764 18.4861 13.2764 20.7972C13.2764 23.1083 21.1441 31.0745 21.1441 31.0745C21.1441 31.0745 22.521 36.3854 22.3244 40.516C22.9593 40.7212 23.6159 40.829 24.2906 40.8541Z" fill="#FF9566"/>
<path d="M32.0048 9.97412L27.459 20.0662L28.8335 26.1794C34.1444 26.327 36.5847 23.3299 36.5847 23.3299C36.5847 23.3299 36.578 12.9981 32.0048 9.97412Z" fill="#FFB882"/>
<path d="M25.0716 13.3019L12.9902 21.9833L20.6949 30.1581C26.0065 30.0412 28.3905 26.5475 28.3905 26.5475C28.3905 26.5475 27.6037 16.3044 25.0716 13.3019Z" fill="#FFB882"/>
<path d="M32.1973 44.4215C39.1422 57.6487 46.6285 67.9166 46.6285 67.9166L46.9557 67.8975L35.8805 37.8024L32.1973 44.4215Z" fill="#FFB882"/>
<path d="M39.1603 46.7158L35.8802 37.8024L32.1973 44.4215C34.212 48.2588 36.2713 51.8439 38.1812 55.0048C37.8333 51.1869 38.1725 48.1489 39.1603 46.7158Z" fill="#FF9566"/>
<path d="M28.291 41.0095C27.1334 57.3594 23.4348 71.6524 23.4348 71.6524L23.2272 71.2312L22.374 44.1543L28.291 41.0095Z" fill="#FFB882"/>
<path d="M25.9357 59.693C26.8606 54.445 27.8018 47.9106 28.2903 41.0099L22.373 44.1547L22.9607 62.805C23.8731 61.3638 24.9095 60.2776 25.9357 59.693Z" fill="#FF9566"/>
<path d="M21.4531 56.7074C29.5844 56.8106 37.5201 47.3202 37.863 42.7811L36.1606 37.4297L22.0532 42.0716L21.4531 56.7074Z" fill="#FFE5B0"/>
<path d="M30.3163 51.1378C32.0163 49.7575 34.8256 46.966 36.5869 46.3877C37.3339 45.0474 37.7866 43.7917 37.863 42.7812L36.1606 37.4297L22.0532 42.0716L21.4531 56.7072C23.3637 56.7313 25.2623 56.2213 27.0553 55.3752C26.4459 54.3211 28.2859 52.7858 30.3163 51.1378Z" fill="#F4D090"/>
<path d="M20.5856 54.1402C25.6504 54.7302 35.8466 47.8918 37.6661 41.3025C37.6661 41.3025 36.6824 35.4029 35.556 35.3473C35.1722 35.3283 28.9003 41.0631 22.1764 39.8764C20.5046 39.5814 20.5856 54.1402 20.5856 54.1402Z" fill="#ED5693"/>
<path d="M37.0443 42.9432C37.3028 42.3974 37.5164 41.8493 37.6674 41.3025C37.6674 41.3025 36.6837 35.4029 35.5573 35.3473C35.4826 35.3437 35.1836 35.559 34.7041 35.8965C36.021 35.6842 36.7031 40.1262 37.0443 42.9432Z" fill="#E03684"/>
<path d="M23.1789 47.6896C23.1789 45.0771 23.6544 42.3833 24.4446 40.0277C23.6996 40.0532 22.9418 40.0113 22.1771 39.8764C20.5052 39.5814 20.5866 54.1403 20.5866 54.1403C21.6212 54.2608 22.8722 54.0669 24.2199 53.633C23.566 52.0291 23.1789 50.0428 23.1789 47.6896Z" fill="#E03684"/>
<path d="M36.4358 37.1414C34.5898 43.9564 28.5322 50.1975 28.5322 50.1975C28.5322 50.1975 34.5061 45.2452 37.2823 40.3318C37.0891 39.3989 36.7921 38.1275 36.4358 37.1414Z" fill="#E03684"/>
<path d="M21.9245 48.9436L20.7188 51.4997C26.9886 50.4386 31.5702 43.3008 31.5702 43.3008C31.5702 43.3008 27.0851 49.04 21.9245 48.9436Z" fill="#E03684"/>
<path d="M46.5574 18.1851C49.1122 16.6857 54.5755 9.92597 54.5755 9.92597L52.1157 6.3569C52.1157 6.3569 45.1708 10.3117 44.0133 11.9032C42.8557 13.4947 46.5574 18.1851 46.5574 18.1851Z" fill="#FFB882"/>
<path d="M52.1158 6.35693C52.1158 6.35693 50.2919 7.39595 48.3579 8.6228L47.653 12.1657C47.653 12.1657 45.9902 14.0248 44.0615 15.6896C44.8782 17.3554 46.5708 18.7082 46.5708 18.7082C49.1256 17.2088 54.5755 9.926 54.5755 9.926L52.1158 6.35693Z" fill="#FF9566"/>
<path d="M52.9803 10.0546C53.4618 9.88349 53.9657 9.83327 54.4321 10.0593C54.7898 10.2324 56.6026 10.0456 56.8356 9.88516C57.0881 9.71105 58.0709 9.07686 57.8201 7.62031C57.5991 6.33653 56.8537 5.88717 56.1495 6.00437C55.4454 6.12123 54.1649 4.70954 53.889 4.65396C53.2254 4.52069 53.0449 5.63805 51.9386 6.50027C49.0087 8.78187 50.2426 11.0273 52.9803 10.0546Z" fill="#FFB882"/>
<path d="M52.1101 6.69886C52.1805 6.2408 53.8761 4.11557 54.3901 3.88185C54.9044 3.64779 55.8855 2.6627 56.1436 2.45744C56.4018 2.25218 57.0708 3.05111 56.891 3.29621C56.7112 3.54098 55.3886 4.54216 55.2228 4.89474C54.8923 5.59657 55.6933 5.88085 55.9072 6.04994C55.5868 6.51771 51.9136 7.98163 52.1101 6.69886Z" fill="#FFB882"/>
<path d="M54.7665 5.83529C55.5802 5.79712 56.655 5.86175 56.8914 5.76263C57.4021 5.54901 58.4029 3.89021 58.6654 3.89724C58.9306 3.90427 59.696 4.16645 59.47 4.56491C59.2554 4.94261 58.1042 6.66904 57.7205 6.83111C57.3522 6.98714 55.8293 7.29754 55.687 7.27778C55.545 7.2587 54.4906 5.84835 54.7665 5.83529Z" fill="#FFB882"/>
<path d="M56.0004 6.79091C56.856 6.88802 58.1253 7.2108 58.3624 7.0474C58.5995 6.884 59.9107 5.58181 60.0818 5.50312C60.2951 5.40501 60.9497 6.14768 60.718 6.45808C60.4866 6.76881 59.1821 8.18921 58.7645 8.32448C58.3473 8.45976 56.8827 8.51166 56.7388 8.46712C56.5955 8.42225 55.7008 6.75676 56.0004 6.79091Z" fill="#FFB882"/>
<path d="M56.1328 8.17716C56.9626 8.49727 57.9262 8.9349 58.1894 8.84416C58.4523 8.75342 59.7129 8.12258 59.8961 8.09412C60.1241 8.05863 60.6043 8.89104 60.3213 9.12174C60.0384 9.35245 58.396 10.1447 57.9594 10.1608C57.5227 10.1768 56.5571 10.0034 55.9172 10.074C55.7561 10.0918 55.8422 8.06499 56.1328 8.17716Z" fill="#FFB882"/>
<path d="M11.5795 43.0714C15.1522 42.7694 18.0683 40.0917 18.5967 37.3564C19.1254 34.6211 13.388 31.3517 11.5068 33.1967C9.62602 35.0413 8.62987 40.0361 8.5408 40.5036C8.39615 41.263 11.0735 43.1143 11.5795 43.0714Z" fill="#FFB882"/>
<path d="M15.4109 33.2723C15.4123 33.3527 15.4166 33.4327 15.4143 33.5134C15.3058 37.1752 14.7577 37.9387 12.7449 38.7175C11.6236 39.1515 10.3615 38.8267 9.1079 38.1704C8.91034 38.9445 8.39335 40.2842 8.36589 40.4275C8.22124 41.1873 10.9535 43.343 11.4591 43.3001C15.0319 42.9978 18.394 39.7294 18.9227 36.9941C19.2164 35.4746 17.2499 34.153 15.4109 33.2723Z" fill="#FF9566"/>
<path d="M15.2324 16.5575C17.4993 14.0977 19.802 10.6974 19.802 10.6974L19.4645 6.74264L23.7327 6.42923L26.6264 8.99745L31.5458 9.57606C27.2103 13.6685 20.8926 16.9499 15.2324 16.5575Z" fill="#FFB882"/>
<path d="M32.0117 9.73279C31.9354 9.73279 31.8557 9.73882 31.7783 9.74116C30.6121 10.4909 24.3197 15.0125 17.6805 16.1473C17.6457 16.1533 17.6132 16.1624 17.5787 16.1687C15.5935 17.6658 14.086 19.1066 13.5215 20.0871L13.5208 20.086C13.5208 20.086 13.5198 20.0897 13.5195 20.0904C13.3621 20.3646 13.2767 20.6034 13.2767 20.7966C13.2767 20.8448 13.2851 20.899 13.2918 20.9519C13.0852 21.7787 12.7671 23.1666 12.457 24.972C23.7934 29.7901 32.8247 22.8026 36.0425 10.2424C34.4982 10.0047 33.2439 9.84161 32.0117 9.73279Z" fill="#FF9566"/>
<path d="M12.3269 23.2854C23.892 28.3452 32.4401 21.8004 35.5735 10.3117C36.0075 8.7202 31.9562 8.33414 31.5705 8.47912C31.1848 8.62411 24.4381 13.7689 17.2946 14.9901C11.6519 15.9544 11.5554 22.9479 12.3269 23.2854Z" fill="#ED5693"/>
<path d="M12.4354 22.4533C12.1903 22.3462 12.0336 21.5667 12.1136 20.523C11.8521 21.9638 12.0202 23.1508 12.3269 23.2851C23.8919 28.3449 32.4401 21.8001 35.5735 10.3114C35.6177 10.15 35.6133 10.0013 35.5735 9.86401C32.3553 21.1133 23.8705 27.4562 12.4354 22.4533Z" fill="#E03684"/>
<path d="M26.4093 23.1408C20.3108 23.1408 15.3455 19.869 15.1338 15.7796C11.6445 17.8878 11.6693 22.9981 12.3265 23.2854C18.0051 25.7696 22.9554 25.4548 26.8954 23.1324C26.7337 23.1371 26.572 23.1408 26.4093 23.1408Z" fill="#E03684"/>
<path d="M35.4049 10.901C35.4621 10.7058 35.518 10.5096 35.5719 10.3117C36.0059 8.72017 31.9547 8.3341 31.5689 8.47909C31.5344 8.49215 31.4467 8.54673 31.3145 8.63345C32.9304 9.16149 34.3307 9.94301 35.4049 10.901Z" fill="#E03684"/>
<path d="M48.9229 7.64172C48.9229 7.64172 47.6328 14.142 47.68 14.1842C47.7279 14.2267 48.6319 15.1917 48.7016 15.2088C48.7722 15.2262 50.8456 15.4867 50.8456 15.4867L52.0058 16.9727L53.3994 17.3829L54.1186 16.4574L53.2701 4.63452C53.2701 4.63519 49.2085 6.7765 48.9229 7.64172Z" fill="#ED5693"/>
<path d="M9.96259 28.1932L9.56848 29.0022C10.3326 29.252 11.3542 29.0966 12.1236 29.4498C17.7252 32.0211 19.0391 36.0037 17.5209 38.7731C16.0031 41.5426 12.1538 43.0748 6.55224 40.5036C5.78278 40.1503 4.88373 39.194 4.20803 38.7832L3.86816 39.4033C4.9641 40.2243 6.22812 40.9807 7.6311 41.625C13.7439 44.4306 18.2412 43.186 20.0289 39.9247C21.8163 36.6633 20.0078 32.4942 13.895 29.6886C12.4916 29.0437 11.3371 28.5059 9.96259 28.1932Z" fill="#F99426"/>
<path d="M1.11488 39.48C0.610606 40.4001 1.13898 41.5761 2.29519 42.1068C2.4452 42.1758 2.59822 42.2297 2.75258 42.2705C2.44386 41.8242 2.37589 41.2851 2.62835 40.8247C3.03652 40.08 4.12609 39.8245 5.06164 40.2538C5.21801 40.3254 5.35864 40.4128 5.48521 40.5106C5.42293 39.8218 4.92368 39.1428 4.12141 38.7744C2.9652 38.2441 1.61914 38.5598 1.11488 39.48Z" fill="#F99426"/>
<path d="M2.51627 42.1878C2.97701 42.3994 3.51343 42.2735 3.71433 41.9069C3.91524 41.5402 3.70462 41.0715 3.24388 40.8602C2.78314 40.6486 2.24673 40.7745 2.04582 41.1411C1.84492 41.5078 2.05553 41.9762 2.51627 42.1878Z" fill="#F99426"/>
<path d="M8.31897 26.3351C8.82324 25.415 10.1693 25.0993 11.3255 25.63C11.4755 25.699 11.6145 25.779 11.7424 25.8677C11.1668 25.9082 10.6541 26.1808 10.402 26.6412C9.99384 27.3859 10.4214 28.3378 11.3573 28.7674C11.5137 28.8391 11.6744 28.89 11.8355 28.9245C11.1949 29.2904 10.3019 29.3306 9.49962 28.9623C8.34308 28.4313 7.8147 27.2553 8.31897 26.3351Z" fill="#F99426"/>
<path d="M11.529 25.7442C11.9898 25.9558 12.2004 26.4242 11.9995 26.7909C11.7986 27.1575 11.2622 27.2834 10.8014 27.0718C10.3407 26.8602 10.1301 26.3917 10.331 26.0251C10.5319 25.6584 11.0683 25.5325 11.529 25.7442Z" fill="#F99426"/>
<path d="M16.2158 40.1007L6.85938 35.279L6.97925 35.0409L16.336 39.8626L16.2158 40.1007Z" fill="#825160"/>
<path d="M17.3523 39.0986L6.88281 33.6755L7.00336 33.4378L17.4728 38.8609L17.3523 39.0986Z" fill="#825160"/>
<path d="M17.9262 37.8707L8.34375 32.8916L8.46429 32.6539L18.0471 37.633L17.9262 37.8707Z" fill="#825160"/>
<path d="M14.0672 29.4518C13.1856 29.047 12.299 28.7168 11.42 28.4443C11.3869 28.4309 11.353 28.4205 11.3202 28.4054C10.4098 27.9876 9.98287 27.0758 10.3358 26.3408C10.4295 26.4905 10.5739 26.6227 10.7641 26.7101C11.2248 26.9218 11.7612 26.7959 11.9621 26.4292C12.1302 26.1225 12.0076 25.7465 11.6942 25.5071C11.6979 25.5067 11.7013 25.506 11.705 25.5057C11.577 25.417 11.4381 25.337 11.2881 25.268C10.1319 24.7373 8.78581 25.053 8.28155 25.9732C7.77728 26.8933 8.30565 28.0692 9.46186 28.6C9.48664 28.6114 9.51175 28.6187 9.53653 28.6291L9.53083 28.6398C9.56164 28.6499 9.59546 28.6556 9.62694 28.6646C10.0606 28.8317 10.5116 28.8863 10.9315 28.8367C11.3363 28.8729 11.7371 28.9274 12.0857 29.0875C17.6872 31.6587 19.0011 35.6413 17.483 38.4108C15.9651 41.1803 11.6916 42.5983 6.08968 40.0271C5.71198 39.8536 5.40527 39.562 5.11095 39.262C4.94085 39.0135 4.71181 38.7888 4.42921 38.606C4.3455 38.5384 4.25945 38.4754 4.16971 38.4208L4.15364 38.45C4.12953 38.4382 4.10776 38.4238 4.08332 38.4128C2.92712 37.8821 1.58106 38.1978 1.07679 39.118C0.57252 40.0381 1.1009 41.2141 2.2571 41.7448C2.40711 41.8138 2.56047 41.8677 2.71449 41.9085C2.71248 41.9059 2.71114 41.9028 2.70914 41.8998C3.10592 41.9865 3.50873 41.8516 3.67682 41.5449C3.87773 41.1782 3.66711 40.7095 3.20637 40.4982C3.01786 40.4118 2.81796 40.3843 2.63246 40.4041C3.06641 39.7083 4.1148 39.4752 5.02355 39.8921C5.17992 39.9638 5.32055 40.0512 5.44712 40.1489C5.44645 40.1399 5.44344 40.1305 5.44244 40.1215C6.1168 40.529 6.83236 40.9134 7.59311 41.2626C13.706 44.0683 18.2032 42.8237 19.9909 39.5623C21.7786 36.301 20.1801 32.2574 14.0672 29.4518Z" fill="#FFCE31"/>
<path d="M49.5702 71.9005L48.3122 72C48.3122 72 47.597 71.1287 47.3087 70.5093C47.0204 69.8898 45.9148 70.2354 45.9429 69.2968C45.9694 68.4145 46.2218 68.2756 46.028 66.9931L46.4247 66.7159C46.4247 66.7159 47.9573 69.6374 48.6501 71.2597C48.6501 71.2597 49.6687 71.3219 49.5702 71.9005Z" fill="#FFB882"/>
<path d="M19.0029 71.9006H23.4684C23.4684 71.9006 24.048 70.67 23.3589 70.5003C22.6698 70.3305 19.0029 71.9006 19.0029 71.9006Z" fill="#FFB882"/>
<path d="M22.5607 28.9577C22.4613 28.6911 22.0193 28.5458 21.5736 28.6332C21.1279 28.7206 20.8473 29.0072 20.9468 29.2737C21.0462 29.5403 21.4882 29.6856 21.9339 29.5982C22.3796 29.5112 22.6602 29.2242 22.5607 28.9577Z" fill="#E87446"/>
<path d="M34.3776 23.5865C34.3153 23.3089 34.6046 22.9466 35.0242 22.7772C35.4434 22.6077 35.8338 22.6955 35.8961 22.973C35.9584 23.2506 35.6691 23.6129 35.2495 23.7823C34.8303 23.9518 34.4399 23.864 34.3776 23.5865Z" fill="#E87446"/>
<path d="M29.2492 37.335C29.1963 37.1864 29.4474 36.9707 29.8097 36.8535C30.172 36.7363 30.5086 36.7618 30.5611 36.9104C30.614 37.0591 30.3629 37.2748 30.0006 37.392C29.6383 37.5091 29.3018 37.4837 29.2492 37.335Z" fill="#FF9566"/>
<path d="M29.1614 30.9369C29.3375 34.1718 26.5439 33.7331 26.5439 33.7331C26.5439 33.7331 28.7653 34.0733 29.301 32.9339C29.7099 32.0646 29.1614 30.9369 29.1614 30.9369Z" fill="#FF9566"/>
<path d="M29.1491 30.8552C29.9805 34.0158 32.1945 32.1926 32.1945 32.1926C32.1945 32.1926 30.4312 33.6337 29.6367 32.8217C29.0299 32.2023 29.1491 30.8552 29.1491 30.8552Z" fill="#FF9566"/>
<path d="M29.414 32.5417C29.5503 36.2966 26.7617 35.7877 26.7617 35.7877C26.7617 35.7877 28.979 36.1825 29.5288 34.8602C29.9484 33.8506 29.414 32.5417 29.414 32.5417Z" fill="#FF9566"/>
<path d="M29.4019 32.447C30.1942 36.1155 32.4309 33.9993 32.4309 33.9993C32.4309 33.9993 30.6499 35.6722 29.865 34.7296C29.266 34.01 29.4019 32.447 29.4019 32.447Z" fill="#FF9566"/>
<path d="M19.9265 39.6749C19.6228 38.8793 19.1774 38.0275 18.5489 37.1274C18.3936 36.9051 18.2278 36.6847 18.057 36.4651C18.0092 37.1528 17.8136 37.8108 17.4845 38.4112C16.6705 39.8962 15.0636 40.9918 12.8848 41.2928C13.3258 41.8363 13.7637 42.3452 14.1916 42.812C16.87 42.7196 18.852 41.5406 19.9265 39.6749Z" fill="#FFE771"/>
<path d="M11.2322 28.5917C11.4053 28.5917 11.574 28.5756 11.7388 28.5485C11.6326 28.514 11.5261 28.4772 11.42 28.4444C11.3869 28.431 11.353 28.4206 11.3202 28.4055C10.4098 27.9877 9.98287 27.0759 10.3358 26.3409C10.4295 26.4906 10.5739 26.6228 10.7641 26.7102C11.2248 26.9219 11.7612 26.796 11.9621 26.4293C12.1302 26.1226 12.0077 25.7466 11.6942 25.5072C11.6979 25.5068 11.7013 25.5062 11.705 25.5058C11.577 25.4171 11.4381 25.3371 11.2881 25.2681C10.2538 24.7933 9.06943 24.9975 8.46973 25.7044C8.44863 25.8283 8.43457 25.9542 8.43457 26.0834C8.43491 27.4687 9.68721 28.5917 11.2322 28.5917Z" fill="#FFE771"/>
<path d="M14.9795 21.1511L17.6924 22.4533C30.063 22.9958 33.0655 12.1804 33.0655 12.1804C30.859 17.2084 25.0354 22.2364 14.9795 21.1511Z" fill="#E03684"/>
<path d="M31.6063 8.65993C31.5618 8.67668 31.4295 8.76206 31.2256 8.89767C29.2199 11.1987 24.876 15.1813 18.126 16.2682C24.6497 15.9122 29.2222 12.5464 33.5745 8.84041C32.6714 8.6365 31.7774 8.59565 31.6063 8.65993Z" fill="#E03684"/>
<path d="M5.53223 39.9715L12.0499 28.892L12.882 29.1813L6.371 40.4671L5.53223 39.9715Z" fill="#FFCE31"/>
<path d="M7.02134 33.9381C7.25102 33.9381 7.43721 33.7519 7.43721 33.5222C7.43721 33.2925 7.25102 33.1063 7.02134 33.1063C6.79166 33.1063 6.60547 33.2925 6.60547 33.5222C6.60547 33.7519 6.79166 33.9381 7.02134 33.9381Z" fill="#825160"/>
<path d="M6.62402 35.204C6.62402 35.4337 6.81019 35.6199 7.03989 35.6199C7.26959 35.6199 7.45577 35.4337 7.45577 35.204C7.45577 34.9743 7.26959 34.7882 7.03989 34.7882C6.81019 34.7882 6.62402 34.9743 6.62402 35.204Z" fill="#825160"/>
<path d="M8.10645 32.8347C8.10645 33.0644 8.29262 33.2506 8.52232 33.2506C8.75202 33.2506 8.93819 33.0644 8.93819 32.8347C8.93819 32.605 8.75202 32.4188 8.52232 32.4188C8.29262 32.4188 8.10645 32.605 8.10645 32.8347Z" fill="#825160"/>
<path d="M5.58296 39.702C5.41755 39.5673 5.26319 39.4163 5.11217 39.2623C4.94208 39.0139 4.71304 38.7892 4.43044 38.6064C4.34673 38.5387 4.26067 38.4758 4.17094 38.4212L4.15487 38.4503C4.13076 38.4386 4.10899 38.4242 4.08455 38.4132C2.92835 37.8824 1.58229 38.1982 1.07802 39.1183C1.03014 39.2057 0.994645 39.2958 0.964844 39.3869C1.25415 40.3854 2.20308 41.1187 3.33183 41.1187C3.46811 41.1187 3.60071 41.1053 3.73062 41.0848C3.67035 40.8484 3.48552 40.6264 3.20727 40.4989C3.01875 40.4125 2.81885 40.385 2.63335 40.4048C3.06731 39.709 4.11569 39.4759 5.02445 39.8928C5.14633 39.9487 5.25616 40.0164 5.35996 40.089C5.44634 39.9671 5.52068 39.8379 5.58296 39.702Z" fill="#FFE771"/>
<path d="M8.1357 37.407L10.4786 33.346L10.1662 32.0934L7.80957 36.0994L8.1357 37.407Z" fill="#FFE771"/>
<path d="M19.0303 19.3065C27.6755 19.0172 29.484 13.9893 29.484 13.9893C26.67 16.6258 23.1793 18.3904 19.0303 19.3065Z" fill="#E03684"/>
<path opacity="0.6" d="M26.4092 8.80422L23.7331 6.4292L19.4649 6.74261L19.8025 10.6974C19.8025 10.6974 18.4738 12.6586 16.8418 14.6797C19.7546 14.2424 23.1184 12.5062 26.4092 8.80422Z" fill="#C94343"/>
<path d="M18.4473 5.61026C19.7525 8.34189 20.9917 9.09695 20.9917 9.09695C20.9917 9.09695 24.2143 9.10064 25.3373 8.00805L25.7622 7.34039C25.7622 7.34039 23.3644 2.1805 20.3294 2.8485C17.2944 3.51651 18.4473 5.61026 18.4473 5.61026Z" fill="#FFB882"/>
<path d="M19.6129 7.11934C20.1546 7.83288 20.8779 7.01285 20.5317 6.59665C20.1774 6.17073 19.0379 6.13658 19.0379 6.13658C19.0379 6.13658 17.5395 5.21443 18.6244 3.50574C18.6244 3.50574 16.7061 5.39792 18.6733 7.10661L19.6129 7.11934Z" fill="#B24119"/>
<path d="M20.2248 7.51452C18.916 8.07872 18.1823 8.04959 17.8036 7.44219C17.4246 6.83479 18.267 6.05863 18.8667 6.24414C19.4661 6.4293 20.2248 7.51452 20.2248 7.51452Z" fill="#FFB882"/>
<path d="M19.7566 7.38087C18.9459 7.73044 18.4916 7.71236 18.2568 7.336C18.0221 6.95964 18.5438 6.47915 18.9151 6.594C19.2865 6.70851 19.7566 7.38087 19.7566 7.38087Z" fill="#EA7B59"/>
<path d="M19.7527 7.42237C19.2689 7.58778 18.9926 7.56735 18.8413 7.36344C18.6899 7.15952 18.9953 6.9181 19.2237 6.98741C19.452 7.05672 19.7527 7.42237 19.7527 7.42237Z" fill="#FFB882"/>
<path d="M21.9609 45.2058C25.1078 41.0461 29.7018 40.5033 29.7018 40.5033L23.01 41.2269L21.9609 45.2058Z" fill="#E03684"/>
<path d="M50.1388 18.0766C50.1388 18.3177 49.8977 25.0216 49.8977 25.0216L46.5215 31.7254L48.8848 24.4908L48.3544 19.2821L50.1388 18.0766Z" fill="#BC1E74"/>
<path d="M39.8655 30.592C39.8655 30.592 44.8573 29.2536 45.2913 28.675C45.7252 28.0964 47.4858 24.5876 47.4858 24.5876C47.4858 24.5876 45.219 27.6742 44.8332 28.1567C44.4475 28.6388 38.3223 29.4589 38.3223 29.4589L39.8655 30.592Z" fill="#BC1E74"/>
<path d="M53.2698 4.63516C53.2698 4.63516 53.2377 4.65224 53.1821 4.68204L53.7325 13.709L53.082 14.8401L51.834 14.8669L50.8017 13.7642C50.8017 13.7642 48.943 14.1476 48.8797 14.152C48.8174 14.1567 48.0118 13.4873 47.9693 13.4602C47.9365 13.4395 48.6403 9.39826 48.9638 7.55195C48.9463 7.58309 48.9323 7.61323 48.9229 7.64203C48.9229 7.64203 47.6328 14.1423 47.68 14.1845C47.7279 14.227 48.6319 15.192 48.7016 15.2091C48.7722 15.2265 50.8456 15.487 50.8456 15.487L52.0058 16.973L53.3994 17.3832L54.1186 16.4577L53.2698 4.63516Z" fill="#D83688"/>
<path d="M52.381 15.8701C52.2725 15.7254 51.0426 13.121 51.0426 13.121L50.898 7.29749L50.0297 12.904L49.5234 14.5679L52.381 15.8701Z" fill="#D83688"/>
<path d="M20.5668 5.85738C20.8815 5.10466 21.9771 4.45741 21.9771 4.45741C21.9771 4.45741 21.3517 3.77066 20.9117 3.87781C20.4717 3.98529 19.9383 4.89706 19.9701 5.23893C20.0019 5.5808 20.5668 5.85738 20.5668 5.85738Z" fill="#CC5A29"/>
<path d="M23.2226 4.07962C22.7086 4.09067 22.0403 4.4225 22.0403 4.4225C22.0403 4.4225 21.3991 4.0458 21.5424 3.71565C21.6837 3.38985 22.6021 3.37679 22.8623 3.52948C23.0917 3.66442 23.2226 4.07962 23.2226 4.07962Z" fill="#CC5A29"/>
<path d="M23.5989 5.415C23.5989 5.415 22.8602 4.84945 21.8828 4.31505L23.2644 5.40328L22.7333 6.07262L23.5989 5.415Z" fill="#EA7B59"/>
<path d="M21.6603 5.12368C21.4024 5.49803 21.0284 5.46991 21.2879 5.21878C21.5474 4.96799 21.9285 4.73426 21.6603 5.12368Z" fill="#5B352D"/>
<path d="M22.9902 4.43659C22.7468 4.63381 22.5047 4.5424 22.7253 4.42722C22.946 4.3117 23.2437 4.23134 22.9902 4.43659Z" fill="#5B352D"/>
<path d="M23.1828 6.07596C22.7666 6.49216 22.9752 7.12334 23.1916 6.72521C23.4079 6.32675 23.3476 5.91155 23.1828 6.07596Z" fill="#5B352D"/>
<path d="M8.14057 38.9898C8.38165 38.016 10.4607 38.9479 10.8056 39.3236C11.041 39.5801 11.0105 40.2159 10.38 40.3991C9.74981 40.5826 7.94603 39.7766 8.14057 38.9898Z" fill="#FFB882"/>
<path d="M8.26032 42.8669C7.31741 42.524 8.1679 40.2354 8.67585 40.1892C9.18381 40.143 9.78384 40.143 9.89936 40.7892C10.0145 41.4358 9.02208 43.1438 8.26032 42.8669Z" fill="#FFB882"/>
<path d="M9.76065 43.5593C8.81774 43.2165 9.94515 41.0433 10.4531 40.9971C10.9611 40.9509 11.2842 40.8354 11.3994 41.482C11.5149 42.1282 10.5224 43.8362 9.76065 43.5593Z" fill="#FFB882"/>
<path d="M11.4921 43.8824C10.5492 43.5396 11.6766 41.3665 12.1845 41.3203C12.6925 41.274 13.0156 41.1585 13.1308 41.8051C13.2463 42.4513 12.2539 44.1594 11.4921 43.8824Z" fill="#FFB882"/>
</svg>
