<svg width="80" height="72" viewBox="0 0 80 72" fill="none" xmlns="http://www.w3.org/2000/svg">
<path d="M62.7138 34.8338C64.8067 35.69 67.1425 36.1128 67.523 37.191C67.9036 38.2692 65.4936 41.7571 64.5424 41.8205C63.5912 41.884 60.6421 39.1885 60.6421 39.1885L62.7138 34.8338Z" fill="#FF9566"/>
<path d="M31.7107 5.40572C32.7674 4.63939 31.6904 4.1834 31.6904 4.1834C31.6904 4.1834 32.3896 4.68171 31.5368 5.12145C30.948 5.42503 29.7972 6.18032 31.0514 7.48604L32.6978 7.23397C31.5298 7.20115 30.7622 6.09354 31.7107 5.40572Z" fill="#495D6D"/>
<path d="M25.2578 9.91433C24.8867 9.60247 24.3084 10.7162 25.0502 10.8444C26.198 11.0425 25.9864 9.47827 28.2728 8.87846L26.8162 11.5586C26.8162 11.5586 25.3547 13.8471 24.2654 12.2639C23.0824 10.5439 24.8208 9.27956 25.2578 9.91433Z" fill="#232D35"/>
<path d="M33.5425 8.65497C35.7399 8.57953 35.9653 10.1392 36.9365 9.62276C37.5642 9.28913 36.7537 8.38573 36.5054 8.79051C36.7271 8.05762 38.6117 8.77486 38.0119 10.7604C37.4597 12.5881 35.5507 10.8101 35.5507 10.8101L33.5425 8.65497Z" fill="#232D35"/>
<path d="M29.4077 7.45903C31.1357 6.27566 32.0694 7.7896 32.6 6.76262C32.9428 6.09903 31.856 5.56392 31.8517 6.11099C31.6757 5.23488 33.5356 5.03618 34.0124 7.40905C34.4515 9.59364 32.0603 8.69821 32.0603 8.69821L29.4077 7.45903Z" fill="#495D6D"/>
<path d="M32.6799 7.03651C31.1037 6.16531 30.2129 7.23859 29.7409 6.49527C29.4361 6.01474 30.0117 5.77494 30.4444 6.03774C30.2392 5.07179 27.5714 5.52687 28.2886 7.93807C28.7514 9.49402 30.2043 7.89023 30.2043 7.89023L32.6799 7.03651Z" fill="#495D6D"/>
<path d="M36.0698 10.5893C39.2618 11.4056 39.4856 14.0554 40.657 13.2437C41.8284 12.432 40.8131 11.6089 40.2562 11.9484C40.9373 11.24 43.1808 12.7984 41.4537 14.1931C39.4841 15.784 37.8852 13.7598 37.8852 13.7598L36.0698 10.5893Z" fill="#232D35"/>
<path d="M57.7244 71.9133H9.66162C9.66162 71.9133 15.6143 61.8799 25.8258 63.1887C36.0373 64.4972 57.7244 71.9133 57.7244 71.9133Z" fill="#84CBF7"/>
<path d="M57.7238 71.9132H13.2593C13.2593 71.9132 18.6885 63.9495 28.1457 64.9884C37.6031 66.0271 57.7238 71.9132 57.7238 71.9132Z" fill="#69A2CC"/>
<path d="M39.5249 71.9133H67.7338C67.7338 71.9133 60.4091 70.602 57.0623 65.4607C45.6463 47.923 39.5249 71.9133 39.5249 71.9133Z" fill="#69A2CC"/>
<path d="M64.7225 36.7151C55.9124 26.2298 44.149 17.0538 40.2505 14.9898L42.0481 30.2408L61.7777 39.7954L64.7225 36.7151Z" fill="#FFB882"/>
<path d="M41.3032 25.0083L41.5099 30.6336L61.7774 39.7954L63.6229 38.3317L41.3032 25.0083Z" fill="#FF9566"/>
<path d="M42.2651 20.4687C40.2357 16.1565 36.5276 9.16551 33.486 7.62581C30.4443 6.08611 34.401 18.6386 34.401 18.6386L42.2651 20.4687Z" fill="#232D35"/>
<path d="M21.3569 20.5929C23.4354 16.2808 26.0775 9.34031 29.1925 7.80061C32.3075 6.26091 28.3986 18.6386 28.3986 18.6386L21.3569 20.5929Z" fill="#232D35"/>
<path d="M17.9745 33.9632C17.8503 26.6422 20.084 19.3209 24.551 16.2188L26.0401 32.5363C26.0401 32.5363 22.6277 39.7954 19.7737 40.4158C16.92 41.0361 18.0061 35.8249 17.9745 33.9632Z" fill="#FFB882"/>
<path d="M24.5515 16.2189C23.6122 16.8711 22.6901 22.5963 22.6901 24.9051C22.6901 30.9016 21.0514 35.7627 19.0296 35.7627C18.6399 35.7627 18.2645 35.5802 17.9122 35.2457C17.7423 37.517 17.4351 40.9242 19.7739 40.4158C22.6279 39.7955 26.0403 32.5364 26.0403 32.5364L24.5515 16.2189Z" fill="#FF9566"/>
<path d="M42.234 43.3937C40.8069 39.7332 41.3033 36.1346 41.3033 36.1346C41.3033 36.1346 44.4054 25.1737 45.15 21.6165C45.15 21.6165 43.5781 14.585 34.7266 12.6822C25.8751 10.7794 21.6562 20.0446 21.6562 20.0446C21.6562 20.0446 20.4979 25.9182 25.5442 34.6869C30.5908 43.4559 42.234 43.3937 42.234 43.3937Z" fill="#FFB882"/>
<path d="M33.8789 30.5778C28.3629 29.8302 23.4555 21.2013 25.772 15.2308C26.8321 12.4985 27.5874 10.5875 28.5174 9.34429C28.8431 7.5467 30.8891 7.32622 32.1004 7.32622C32.855 7.32622 34.7526 8.01005 34.5116 9.16152C36.0853 11.3575 37.464 15.1109 37.5189 18.09C37.6017 22.5889 31.8523 26.1209 33.6309 28.139C35.4094 30.157 37.0638 28.139 36.3193 26.415C37.8084 28.307 36.981 30.9982 33.8789 30.5778Z" fill="#FF9566"/>
<path d="M38.0428 13.7147C37.9797 13.8539 37.7423 13.7653 37.5424 13.8612C36.6516 14.2887 36.7905 11.953 34.5679 10.2731L35.6491 13.7705C35.6491 13.7705 36.3446 15.6941 37.8576 14.7634C38.2462 14.5245 38.4452 14.2706 38.482 13.96L38.0428 13.7147Z" fill="#FF9566"/>
<path d="M34.895 10.6335C38.4678 15.317 36.9306 20.0422 39.0078 19.8763C41.0851 19.7104 40.3372 17.2652 39.3816 17.2652C40.7527 16.7678 42.2065 20.7052 39.0078 21.2857C35.359 21.9474 35.0612 17.8871 35.0612 17.8871L34.895 10.6335Z" fill="#FF9566"/>
<path d="M41.2682 36.1347C41.2682 36.1347 44.2409 28.4414 44.5301 24.1397C43.4154 28.1933 41.152 30.6668 40.4013 31.1093C39.3486 31.7296 33.341 30.4267 31.6688 29.6202C29.9966 28.8137 30.9874 19.6313 31.0494 12.9926C31.0494 12.9926 31.3943 12.7565 31.938 12.4339C26.855 12.6421 25.7109 28.0578 24.3864 30.1786C21.4186 25.5564 24.5106 32.288 25.5373 34.687C26.0059 35.782 26.816 36.6287 27.5621 37.4309C28.0061 34.2402 29.9 30.7299 32.7832 31.1712C36.1934 31.6931 39.5553 36.9688 39.8561 41.1745C39.9073 41.8893 39.8751 42.5679 39.7727 43.2012C41.2464 43.3987 42.1968 43.394 42.1968 43.394C40.7727 39.7332 41.2682 36.1347 41.2682 36.1347Z" fill="#FF9566"/>
<path d="M22.111 26.8284C21.5216 22.0821 23.3812 17.156 23.3812 17.156L24.8307 15.8466L23.7243 31.9158L22.111 26.8284Z" fill="#FF9566"/>
<path d="M20.1675 71.9133C34.5614 63.8064 44.9848 71.9133 44.9848 71.9133H61.4256C61.4256 71.9133 49.6999 70.9207 44.8192 57.7674C39.9385 44.6142 20.1675 71.9133 20.1675 71.9133Z" fill="#2D5268"/>
<path d="M39.1167 51.325C44.2445 64.3831 49.7201 71.8513 49.7201 71.8513H50.0304L43.7435 46.5998L39.1167 51.325Z" fill="#FFB882"/>
<path d="M49.0406 67.8755L43.7432 46.5994L39.1167 51.3249C41.8278 58.2289 44.6355 63.5689 46.6806 67.0699C47.4454 67.257 48.2402 67.5247 49.0406 67.8755Z" fill="#FF9566"/>
<path d="M31.8234 49.2407C30.2561 63.3685 26.894 71.4481 26.894 71.4481H26.5932L26.105 44.1282L31.8234 49.2407Z" fill="#FF9566"/>
<path d="M41.5106 41.7187C36.878 37.2514 23.3111 24.181 25.2967 14.6678L24.304 15.6604C20.416 25.7529 27.9302 50.1228 22.5049 66.2257C19.589 74.8807 11.4302 67.7148 11.4302 67.7148C11.4302 67.7148 14.098 71.9997 20.6126 71.9997C24.9201 71.9997 26.3515 65.047 42.3382 63.9719C53.1238 63.2463 48.708 71.996 62.6885 71.996C50.3621 71.8304 46.1431 46.1857 41.5106 41.7187Z" fill="#557999"/>
<path d="M27.1577 31.5024C30.8391 36.9623 32.4107 39.9402 32.4107 46.1447C32.4107 52.3489 34.7268 60.9109 34.7268 60.9109C34.7268 60.9109 31.5214 52.9045 31.2938 46.31C30.9945 37.6324 27.1577 31.5024 27.1577 31.5024Z" fill="#436E8E"/>
<path d="M41.5099 41.7187C36.8773 37.2514 23.3104 24.181 25.296 14.6678L24.5251 15.4387L24.3659 19.7576C24.3659 19.7576 24.0734 21.9698 23.2006 27.399C23.6713 39.1085 26.3665 54.7616 22.5039 66.226C19.588 74.881 11.4292 67.7151 11.4292 67.7151C11.4292 67.7151 14.0971 72 20.6116 72C23.2249 72 24.7802 69.4413 29.1684 67.1883C28.9767 66.8252 28.7884 66.4444 28.6048 66.0402C23.9854 55.8717 24.3451 26.9786 25.1304 26.622C25.9157 26.265 39.4428 39.0555 44.0625 49.2241C46.6659 54.9551 47.8974 60.5711 47.7162 64.7268C52.0645 66.763 51.8741 71.996 62.6873 71.996C50.3614 71.8304 46.1425 46.1857 41.5099 41.7187Z" fill="#436E8E"/>
<path d="M19.1532 40.0126C15.2197 39.5024 10.7052 33.0004 10.3222 27.4488C10.2394 26.2492 13.8573 24.4988 14.5997 25.6803C15.8508 27.6717 21.2004 27.6555 22.1516 33.4877C23.1034 39.3196 20.7717 40.2227 19.1532 40.0126Z" fill="#FFB882"/>
<path d="M22.411 33.653C22.3199 33.094 22.0954 32.2896 21.9145 31.7916C21.3472 33.8066 19.7823 34.4454 18.7232 34.308C16.0059 33.9553 13.3742 32.1912 12.5076 27.7094C12.4503 27.4126 10.9857 27.0753 10.3228 27.4485C10.7055 33.0001 15.162 39.94 19.0954 40.4502C20.714 40.6606 23.3622 39.4852 22.411 33.653Z" fill="#FF9566"/>
<path d="M35.0181 10.0132C38.5909 14.6967 37.0536 19.4219 39.1309 19.256C41.2081 19.0901 40.4602 16.6449 39.5047 16.6449C40.8757 16.1475 42.3296 20.0849 39.1309 20.6654C35.4823 21.3271 35.1843 17.2668 35.1843 17.2668L35.0181 10.0132Z" fill="#3C4956"/>
<path d="M34.4536 9.20786C36.8412 10.9898 36.7507 13.4988 37.7372 13.1309C38.7237 12.7629 38.0203 11.6779 37.556 11.8101C38.1531 11.3786 39.4073 13.0913 37.9332 13.8159C36.2518 14.6423 35.5425 12.7101 35.5425 12.7101L34.4536 9.20786Z" fill="#3C4956"/>
<path d="M27.2693 10.2836C24.7839 12.6046 25.2389 15.4231 24.0571 15.1367C22.8753 14.8503 23.5291 13.5347 24.0795 13.6233C23.3349 13.2146 22.1381 15.3096 23.9286 15.9349C25.9709 16.6482 26.5125 14.3762 26.5125 14.3762L27.2693 10.2836Z" fill="#3C4956"/>
<path d="M33.5266 29.5996C28.0109 28.8643 23.2274 20.3139 25.5438 14.4403C26.6039 11.7525 27.2353 9.93468 28.1651 8.71175C28.4908 6.9436 30.5367 6.72649 31.748 6.72649C32.5027 6.72649 34.4003 7.39897 34.1592 8.53205C35.733 10.6924 37.1117 14.3848 37.1666 17.3152C37.2494 21.7411 31.4999 25.2154 33.2785 27.2007C35.0571 29.186 36.7115 27.2007 35.9669 25.5049C37.456 27.366 36.629 30.0133 33.5266 29.5996Z" fill="#495D6D"/>
<path d="M29.8843 11.5491C30.4277 11.9177 31.1192 11.9345 31.9888 11.5282L31.4875 10.4721H30.3712L29.8843 11.5491Z" fill="#3C4956"/>
<path d="M28.7095 10.4685C28.7095 10.4685 29.944 10.5562 31.0354 10.5568C31.8937 10.5575 32.7726 10.4434 33.3316 10.3146C33.3316 10.3146 32.9673 11.6176 30.9631 10.9773C28.8137 11.7733 28.7095 10.4685 28.7095 10.4685Z" fill="#3C4956"/>
<path d="M34.9981 9.85947C34.7298 9.37527 34.4486 8.92724 34.1603 8.53166C30.7722 9.30105 28.2144 8.45041 28.1662 8.71168C27.9135 9.04409 27.6737 9.42678 27.437 9.85947H34.9981Z" fill="#3C4956"/>
<path d="M33.2792 27.2007C31.5006 25.2154 37.4775 21.8235 37.3947 17.3979C37.3632 15.7028 36.7744 13.3238 35.9605 11.9107C36.0991 12.719 36.1746 13.5746 36.1746 14.4611C36.1746 19.3954 33.8692 23.3954 31.025 23.3954C28.1808 23.3954 25.8754 19.3954 25.8754 14.4611C25.8754 14.0435 25.8932 13.6332 25.9251 13.2308C25.7634 13.6335 25.5963 14.0557 25.4203 14.5025C23.1042 20.3758 28.0115 28.8642 33.5273 29.5996C36.6293 30.0133 37.4567 27.3659 35.9676 25.5049C36.7121 27.2007 35.0578 29.1859 33.2792 27.2007Z" fill="#3C4956"/>
<path d="M28.7017 10.3971C28.7017 10.3971 29.9488 10.3649 31.0417 10.3814C31.9016 10.3946 32.7817 10.4069 33.3419 10.2842C33.3419 10.2842 32.9451 11.3863 30.9375 10.7068C28.7845 11.4835 28.7017 10.3971 28.7017 10.3971Z" fill="#FFB882"/>
<path d="M30.9381 10.5583C31.5597 10.826 32.7016 10.7625 33.1187 10.5887C33.287 10.4335 33.3419 10.2839 33.3419 10.2839C32.7817 10.4065 31.9016 10.3942 31.0417 10.3811C29.9488 10.3645 28.7017 10.3967 28.7017 10.3967C28.7017 10.3967 28.7118 10.5264 28.8133 10.6641C29.1202 10.7843 30.1767 10.7383 30.9381 10.5583Z" fill="#FF9566"/>
<path d="M30.2739 11.4198C30.6161 11.7203 31.0519 11.7341 31.5999 11.4026L31.284 10.5415H30.5806L30.2739 11.4198Z" fill="#FF9566"/>
<path d="M30.4663 11.3445C30.7012 11.5745 31.0005 11.585 31.3765 11.3317L31.1596 10.6733C31.0023 10.5788 30.8413 10.5828 30.677 10.6733L30.4663 11.3445Z" fill="#FFB882"/>
<path d="M25.5286 14.524C23.4191 20.052 26.2857 24.1081 24.2198 24.5644C22.1539 25.0204 22.1695 22.4647 23.0977 22.182C21.6215 22.1127 21.3535 26.3019 24.6295 25.9097C28.3663 25.4626 27.4755 21.4978 27.4755 21.4978L25.5286 14.524Z" fill="#3C4956"/>
<path d="M35.4185 20.5141C34.4525 17.3372 36.2375 15.2155 35.0888 14.8638C33.9401 14.5117 33.8447 15.9352 34.3574 16.1364C33.5206 16.1048 33.5402 13.7607 35.3749 14.1342C37.4678 14.5605 36.8027 16.7248 36.8027 16.7248L35.4185 20.5141Z" fill="#3C4956"/>
<path d="M26.7027 18.9281C25.593 15.5684 26.1293 13.5899 27.2642 13.4164C28.3991 13.2428 28.3108 14.6608 27.7987 14.7819C28.5972 14.8772 28.8732 12.5623 27.0839 12.6537C25.0431 12.758 25.4029 14.9932 25.4029 14.9932C25.4639 16.018 26.0658 17.4596 26.7027 18.9281Z" fill="#3C4956"/>
<path d="M52.8017 71.8923H49.2031C49.2031 71.8923 48.9551 70.6927 49.4926 70.5274C50.0305 70.3621 52.8017 71.8923 52.8017 71.8923Z" fill="#FFB882"/>
<path d="M23.7397 71.8924H27.3181C27.3181 71.8924 27.5649 70.6928 27.0301 70.5275C26.4953 70.3622 23.7397 71.8924 23.7397 71.8924Z" fill="#FFB882"/>
<path d="M34.4536 5.6173C34.4536 5.6173 34.4763 8.22353 33.8942 8.39188C33.7952 8.42071 33.5833 8.44709 33.3009 8.46978C33.2843 6.954 32.7964 5.25576 32.7964 5.25576C32.7964 5.25576 32.7412 6.86077 32.4747 8.51792C32.2432 8.52742 31.9961 8.53478 31.7431 8.5403C31.5533 7.81231 31.3089 6.91137 31.3089 6.91137C31.3089 6.91137 31.1322 7.62036 31.0408 8.54859C30.6891 8.54951 30.3408 8.54552 30.0194 8.5354C29.6373 6.90309 29.4453 5.31372 29.4453 5.31372C29.4453 5.31372 29.1543 7.01502 29.3104 8.4986C28.8878 8.4661 28.579 8.41611 28.4812 8.34466C28.0556 8.03279 28.0884 5.13217 28.0884 5.13217C28.0884 5.13217 27.2963 7.07696 27.706 9.3287L34.9007 9.54643C34.931 8.15208 34.9424 6.8571 34.4536 5.6173Z" fill="#9DC6C0"/>
<path d="M27.9644 30.1786C36.366 38.663 40.1869 46.1858 40.1869 46.1858C35.4969 41.1858 31.5037 35.8194 27.9644 30.1786Z" fill="#436E8E"/>
<path d="M43.5605 63.9305C36.9408 53.7809 33.7964 47.861 33.7964 47.861C33.7964 47.861 35.919 57.4114 39.8693 64.1966C40.6522 64.1059 41.4722 64.0298 42.3376 63.9715C42.7699 63.9424 43.175 63.9302 43.5605 63.9305Z" fill="#436E8E"/>
<path d="M57.5306 70.2699C49.4746 68.4434 51.392 62.1089 42.1508 62.7308C26.1644 63.8063 24.7327 70.7587 20.4254 70.7587C19.453 70.7587 18.5681 70.6617 17.7634 70.4992C14.6472 70.5403 11.4292 67.7148 11.4292 67.7148C11.4292 67.7148 14.0971 71.9997 20.6116 71.9997C24.9191 71.9997 26.1853 65.0473 42.1716 63.9718C52.9572 63.2463 48.707 71.996 62.6873 71.996C60.7854 71.9702 59.0774 71.337 57.5306 70.2699Z" fill="#C7F3FF"/>
<path d="M21.0286 71.9993C16.0728 71.9993 12.8254 71.9993 8.88553 71.9993C3.50165 71.9993 0.676463 70.5553 0.153928 66.1368C-0.451709 61.0142 3.67674 58.4208 3.67674 58.4208C3.67674 58.4208 6.48813 54.4132 10.6733 55.6692C14.8585 56.9253 15.3369 60.215 15.3369 60.215C15.3369 60.215 16.0437 59.4386 17.0636 60.2748C19.1795 62.0096 15.3875 69.846 21.0286 71.9993Z" fill="#84CBF7"/>
<path d="M17.9345 68.2552C15.7975 70.4582 11.8227 71.7016 7.43509 71.2414C5.0797 70.9942 2.94234 70.2917 1.21436 69.292C2.5535 71.276 5.07909 71.9994 8.88525 71.9994C12.8251 71.9994 16.0725 71.9994 21.0283 71.9994C19.0943 71.2613 18.2691 69.8547 17.9345 68.2552Z" fill="#63BAE5"/>
<path d="M17.064 60.2752C16.7859 60.0471 16.532 59.9416 16.3084 59.9048C14.6243 60.4902 13.9797 64.0035 14.8745 67.9228C15.2327 69.4917 16.2072 71.9995 18.2235 71.9995C19.62 71.9995 19.3268 71.9995 21.029 71.9995C15.3879 69.8461 19.1799 62.0097 17.064 60.2752Z" fill="#63BAE5"/>
<path d="M8.84511 66.7526C9.09656 67.7704 9.28822 68.8593 9.9696 69.656C10.2161 69.9442 10.57 70.1972 10.9444 70.1383C11.3189 70.0794 11.5801 69.5505 11.2956 69.3003C11.7218 69.1218 11.9555 68.5809 11.7926 68.1485C12.0971 68.5671 12.505 69.0338 13.0186 68.9694C12.6126 67.6851 12.4326 66.33 12.4894 64.9844C12.5363 63.8716 12.8865 62.5815 13.9251 62.1792C14.0484 62.1314 14.1962 62.1013 14.3063 62.1743C14.4001 62.2365 14.4372 62.3543 14.4654 62.4631C15.0361 64.6732 14.5991 67.1733 15.7687 69.1331C15.9156 69.3791 16.0999 69.6228 16.366 69.7293C16.6322 69.8357 16.9931 69.7464 17.0968 69.4793C17.1465 69.3515 17.1308 69.2083 17.1066 69.0733C17.0269 68.6284 16.861 68.1988 16.6212 67.8158C17.0214 68.188 17.1305 68.7679 17.3682 69.2601C17.7126 69.9731 18.3719 70.5214 19.1302 70.7461C16.3602 67.71 18.8742 61.7588 17.0637 60.2746C16.0438 59.4383 15.3369 60.2148 15.3369 60.2148C15.3369 60.2148 14.8582 56.925 10.6734 55.669C6.48818 54.4129 3.6768 58.4206 3.6768 58.4206C3.6768 58.4206 -0.451961 61.0139 0.153983 66.1365C0.271124 67.1282 0.505407 67.9688 0.857443 68.6781C1.03775 68.8596 1.21684 69.0427 1.40236 69.2187C1.5425 69.3518 1.71576 69.4931 1.90558 69.457C2.1325 69.414 2.23278 69.1518 2.29319 68.9292C2.45142 68.3453 2.60812 67.7363 2.64001 67.1362C2.67129 67.3745 2.74028 67.6048 2.92244 67.7514C3.1745 67.954 3.67618 67.7602 3.58879 67.4487C3.73016 67.8713 3.96628 68.2619 4.27477 68.5833C4.33457 68.0132 4.35143 67.4389 4.32475 66.8664C5.08678 67.9725 6.02391 68.9577 7.09044 69.774C7.43727 70.0396 7.85125 70.2999 8.27995 70.2178C7.38943 68.7596 6.91197 67.0525 6.91627 65.3438C6.91749 64.9035 6.96993 64.4177 7.29069 64.116C8.19255 64.6514 8.59365 65.7348 8.84511 66.7526ZM1.93778 64.5953C1.82891 64.1249 1.97672 63.5315 2.43057 63.3675C2.48208 64.3383 2.5336 65.3089 2.58542 66.2797C2.56181 66.1626 2.53084 66.0464 2.49128 65.9314C2.33336 65.4751 2.04694 65.0657 1.93778 64.5953Z" fill="#C7F3FF"/>
<path d="M8.84511 66.7526C9.09656 67.7704 9.28822 68.8593 9.9696 69.656C10.2161 69.9442 10.57 70.1972 10.9444 70.1383C11.3189 70.0794 11.5801 69.5505 11.2956 69.3003C11.7218 69.1218 11.9555 68.5809 11.7926 68.1485C12.0971 68.5671 12.505 69.0338 13.0186 68.9694C12.6126 67.6851 12.4326 66.33 12.4894 64.9844C12.5363 63.8716 12.8865 62.5815 13.9251 62.1792C14.0484 62.1314 14.1962 62.1013 14.3063 62.1743C14.4001 62.2365 14.4372 62.3543 14.4654 62.4631C15.0361 64.6732 14.5991 67.1733 15.7687 69.1331C15.9156 69.3791 16.0999 69.6228 16.366 69.7293C16.6322 69.8357 16.9931 69.7464 17.0968 69.4793C17.1465 69.3515 17.1308 69.2083 17.1066 69.0733C17.0269 68.6284 16.861 68.1988 16.6212 67.8158C17.0214 68.188 17.1305 68.7679 17.3682 69.2601C17.7126 69.9731 18.3719 70.5214 19.1302 70.7461C16.3602 67.71 18.8742 61.7588 17.0637 60.2746C16.0438 59.4383 15.3369 60.2148 15.3369 60.2148C15.3369 60.2148 14.8582 56.925 10.6734 55.669C6.48818 54.4129 3.6768 58.4206 3.6768 58.4206C3.6768 58.4206 -0.451961 61.0139 0.153983 66.1365C0.271124 67.1282 0.505407 67.9688 0.857443 68.6781C1.03775 68.8596 1.21684 69.0427 1.40236 69.2187C1.5425 69.3518 1.71576 69.4931 1.90558 69.457C2.1325 69.414 2.23278 69.1518 2.29319 68.9292C2.45142 68.3453 2.60812 67.7363 2.64001 67.1362C2.67129 67.3745 2.74028 67.6048 2.92244 67.7514C3.1745 67.954 3.67618 67.7602 3.58879 67.4487C3.73016 67.8713 3.96628 68.2619 4.27477 68.5833C4.33457 68.0132 4.35143 67.4389 4.32475 66.8664C5.08678 67.9725 6.02391 68.9577 7.09044 69.774C7.43727 70.0396 7.85125 70.2999 8.27995 70.2178C7.38943 68.7596 6.91197 67.0525 6.91627 65.3438C6.91749 64.9035 6.96993 64.4177 7.29069 64.116C8.19255 64.6514 8.59365 65.7348 8.84511 66.7526ZM1.93778 64.5953C1.82891 64.1249 1.97672 63.5315 2.43057 63.3675C2.48208 64.3383 2.5336 65.3089 2.58542 66.2797C2.56181 66.1626 2.53084 66.0464 2.49128 65.9314C2.33336 65.4751 2.04694 65.0657 1.93778 64.5953Z" fill="#C7F3FF"/>
<path d="M17.0633 60.2752C16.8232 60.0783 16.6012 59.9728 16.4006 59.9238C16.3145 59.9517 16.2295 59.9829 16.1474 60.0228C15.2611 60.4497 14.7358 61.5088 14.5718 62.9409C14.9805 65.0277 14.6822 67.3137 15.7686 69.1337C15.9155 69.3797 16.0998 69.6235 16.366 69.7299C16.6322 69.8363 16.9931 69.747 17.0967 69.4799C17.1464 69.3521 17.1308 69.2089 17.1066 69.0739C17.0268 68.629 16.8609 68.1994 16.6211 67.8164C17.0213 68.1886 17.1305 68.7685 17.3681 69.2607C17.7125 69.9736 18.3718 70.5219 19.1302 70.7467C16.3599 67.7103 18.8738 61.7594 17.0633 60.2752Z" fill="#A3E1EF"/>
<path opacity="0.47" d="M14.0541 57.7355C13.9167 57.58 13.7665 57.4249 13.599 57.2715C13.2044 57.6309 12.8082 57.9897 12.3804 58.2988C12.3139 58.347 12.2378 58.396 12.1565 58.3859C12.0514 58.3724 11.9864 58.2688 11.9051 58.2007C11.5871 57.9342 11.1219 58.243 10.8297 58.5374C10.3176 59.0532 9.80544 59.569 9.29333 60.0848C9.0474 60.3322 8.76896 60.5953 8.42091 60.6174C7.92444 60.6487 7.55125 60.189 7.27894 59.7726C6.67423 58.8484 1.62674 61.4178 5.58346 56.9266C5.64418 56.8576 5.49637 56.7634 5.45958 56.6791C4.32496 57.5 3.67701 58.4212 3.67701 58.4212C3.67701 58.4212 0.832202 60.2114 0.213379 63.7514C1.04563 63.1182 1.52769 62.0084 2.41299 61.4006C2.49609 61.3436 2.58932 61.2893 2.6902 61.2914C2.93829 61.297 3.04285 61.6021 3.21305 61.783C3.43537 62.0191 3.80335 62.0458 4.12319 61.9909C4.44303 61.9357 5.92446 60.3322 6.2489 60.3319C6.9956 60.3313 6.54574 62.4451 7.24858 62.1927C7.46017 62.1167 7.6549 61.9621 7.87906 61.9744C8.15382 61.9894 8.35161 62.2516 8.43655 62.5131C8.52149 62.7747 8.53621 63.0587 8.65243 63.308C8.76896 63.5573 9.04341 63.7704 9.30529 63.6855C9.47733 63.6297 9.58741 63.4659 9.68401 63.3129C10.9508 61.3098 12.2786 59.2896 14.0541 57.7355Z" fill="#E1F9FF"/>
<path d="M60.6694 71.9994C63.2327 71.9994 64.6455 71.9994 67.1241 71.9994C71.6408 71.9994 74.7423 66.384 73.6359 63.2163C71.8932 58.2264 63.6857 55.3479 61.5535 58.186C59.5609 60.8385 64.0398 63.3534 64.0398 63.3534C64.0398 63.3534 62.253 63.5738 62.2597 65.0341C62.2711 67.4101 65.406 68.5956 64.7111 69.8127C63.6841 71.6118 60.6694 71.9994 60.6694 71.9994Z" fill="#84CBF7"/>
<path d="M67.7519 66.0421C67.609 62.2375 64.8 58.9112 61.4781 58.6128C61.4167 58.6073 61.3563 58.6052 61.2953 58.6018C60.0221 61.0952 64.0398 63.3534 64.0398 63.3534C64.0398 63.3534 62.253 63.5739 62.2597 65.0341C62.2711 67.4101 65.406 68.5956 64.7111 69.8127C63.6841 71.6118 60.6694 71.9994 60.6694 71.9994C62.1791 71.9994 63.2901 71.9994 64.4544 71.9994C66.497 71.104 67.8564 68.8329 67.7519 66.0421Z" fill="#63BAE5"/>
<path d="M71.4824 63.8873C71.5496 63.7278 71.8019 63.8085 71.904 63.948C72.0065 64.0875 72.0859 64.2789 72.2567 64.3077C72.5361 64.3549 72.6369 63.9523 72.6167 63.6696C72.8485 64.0397 73.1021 64.396 73.3754 64.7367C73.4686 63.7775 73.3103 62.8094 72.9979 61.8947C70.4312 57.7451 63.488 55.6092 61.5524 58.1857C59.5598 60.8383 64.0387 63.3531 64.0387 63.3531C64.0387 63.3531 62.2519 63.5736 62.2586 65.0339C62.2589 65.0952 62.2626 65.1553 62.2669 65.2154C62.5647 65.6055 62.871 65.9888 63.1902 66.3614C63.4423 66.6554 63.7072 66.9477 64.04 67.1458C64.3727 67.3439 64.7876 67.4374 65.1528 67.3083C65.4662 67.1976 65.7161 66.8943 65.7339 66.5702C65.7744 66.6892 65.8842 66.7873 66.0114 66.7907C66.1942 66.7956 66.3549 66.6033 66.3178 66.4242C66.5711 66.5843 66.9461 66.7278 67.1298 66.4911C67.1847 66.4205 67.2055 66.3301 67.223 66.2424C67.3727 65.4929 67.372 64.7137 67.2215 63.9646C67.165 63.684 67.0872 63.3994 67.1261 63.1157C67.2089 62.508 67.9906 62.0741 68.4987 62.4175C68.6839 62.5426 68.8075 62.7386 68.9163 62.9336C69.3683 63.7438 69.6848 64.6717 70.3956 65.2681C70.637 65.4705 71.008 65.6223 71.2503 65.4212C71.3426 65.3445 71.395 65.2304 71.4343 65.117C71.5719 64.7244 71.5885 64.2899 71.4824 63.8873Z" fill="#C7F3FF"/>
<path d="M67.2231 63.9652C67.1679 63.6908 67.0937 63.4123 67.1268 63.1348C65.6708 60.2967 63.3945 58.4378 61.4384 58.3562C59.7546 60.9453 64.04 63.3534 64.04 63.3534C64.04 63.3534 62.2532 63.5739 62.2599 65.0342C62.2602 65.0955 62.2639 65.1556 62.2682 65.2157C62.566 65.6058 62.8723 65.9891 63.1915 66.3617C63.4436 66.6558 63.7086 66.948 64.0413 67.1461C64.374 67.3442 64.7889 67.4377 65.1541 67.3086C65.4675 67.1979 65.7174 66.8947 65.7352 66.5705C65.7757 66.6895 65.8855 66.7876 66.0127 66.791C66.1955 66.7959 66.3562 66.6037 66.3191 66.4246C66.5724 66.5846 66.9474 66.7282 67.1311 66.4914C67.186 66.4209 67.2068 66.3304 67.2243 66.2427C67.3743 65.4936 67.3737 64.7144 67.2231 63.9652Z" fill="#A3E1EF"/>
<path d="M73.153 8.69394L72.8362 8.62126L54.7026 71.6891L55.5898 71.8921L73.153 8.69394Z" fill="#5F7A7A"/>
<path d="M79.231 6.25174L77.5806 13.0321C76.7162 15.3903 74.9063 17.1462 73.1608 17.6123C72.1569 17.8803 71.0655 16.811 71.3829 15.7242L73.0802 9.24253L73.5564 10.1867L75.4856 4.57764e-05L71.6883 9.75862L72.607 9.13398L70.6751 15.4915C70.3758 16.5856 68.8683 17.0241 68.1057 16.3826C66.9941 15.4473 66.0425 13.5274 66.6427 10.5262L68.7935 3.86048L65.3081 10.3888L66.3676 9.78745C65.5313 13.8193 66.4283 17.1649 68.4709 17.6328L72.201 18.4872C74.2433 18.9551 76.8078 16.4022 78.2145 12.501L78.8256 13.4854L79.231 6.25174Z" fill="#81AAA2"/>
<path d="M32.1399 43.5038C33.4916 39.4088 39.1729 42.2922 43.8672 45.5814C43.543 44.8773 43.2235 44.2336 42.9064 43.6685C38.6829 40.6286 33.2999 37.7118 32.0592 41.4707C32.0592 41.4707 27.33 40.9335 24.3433 44.0383C24.3706 44.5274 24.3914 45.0178 24.4141 45.5075C27.7606 43.007 32.1399 43.5038 32.1399 43.5038Z" fill="#C7F3FF"/>
<path d="M31.8416 19.259C33.0513 17.0566 31.0351 16.0947 31.0351 16.0947C31.0351 16.0947 32.5138 17.2529 31.3764 18.6383C30.5095 19.6944 28.7297 22.4608 31.9658 24.2222L34.0443 22.485C32.5242 23.2608 30.6318 21.4617 31.8416 19.259Z" fill="#3C4956"/>
<path d="M29.2052 23.4159C26.6407 20.6033 27.9436 19.0314 28.2126 18.8042C28.4815 18.5767 29.4533 18.8456 29.4533 18.8456C29.4533 18.8456 27.4671 17.0735 26.6612 19.6521C26.2478 20.9756 29.2052 23.4159 29.2052 23.4159Z" fill="#3C4956"/>
<path d="M32.5476 10.6194C32.5476 10.5807 32.3833 10.4489 32.1754 10.4489C31.9674 10.4489 31.7954 10.581 31.7954 10.6194C31.7954 10.6577 31.9754 10.6427 32.1833 10.6427C32.3912 10.6427 32.5476 10.658 32.5476 10.6194Z" fill="#232D35"/>
<path d="M29.9646 10.6194C29.9646 10.5808 29.7999 10.4489 29.5923 10.4489C29.3847 10.4489 29.2124 10.5811 29.2124 10.6194C29.2124 10.6577 29.3924 10.6427 29.6 10.6427C29.8076 10.6427 29.9646 10.658 29.9646 10.6194Z" fill="#232D35"/>
<path d="M40.5173 30.2406C40.5173 29.9778 40.0172 29.7649 39.4005 29.7649C38.7838 29.7649 38.2837 29.9778 38.2837 30.2406C38.2837 30.5034 38.7838 30.7162 39.4005 30.7162C40.0172 30.7165 40.5173 30.5034 40.5173 30.2406Z" fill="#E87446"/>
<path opacity="0.47" d="M64.8882 57.0869C64.895 57.2001 64.8971 57.3135 64.887 57.427C64.806 58.3546 64.0658 59.0682 63.3813 59.6993C62.9992 60.0516 62.5843 60.5193 62.718 61.0216C62.7923 61.3003 63.0213 61.5058 63.1768 61.7483C63.3323 61.9912 63.3951 62.3555 63.1707 62.5364C63.1145 62.5815 63.0483 62.6063 62.9784 62.6229C63.5561 63.0807 64.0394 63.3531 64.0394 63.3531C64.0394 63.3531 62.2526 63.5735 62.2593 65.0338C62.2596 65.0951 62.2633 65.1552 62.2676 65.2154C62.2992 65.2568 62.332 65.2969 62.3636 65.338C62.5111 64.9832 62.745 64.6652 63.1004 64.5462C63.4319 64.4352 63.8014 64.5254 64.1093 64.691C64.4169 64.8566 64.68 65.0927 64.9615 65.2994C65.0839 65.3892 65.217 65.4763 65.3678 65.4932C65.7576 65.537 66.036 65.1092 66.1044 64.7229C66.1728 64.3368 66.1415 63.9127 66.3571 63.5852C66.4356 63.4659 66.5441 63.3653 66.599 63.2335C66.6717 63.0587 66.638 62.8599 66.6006 62.6741C66.5221 62.2822 66.4331 61.8925 66.3338 61.5052C66.1452 60.7701 65.9308 59.9434 66.3209 59.2924C66.7386 58.5947 67.7137 58.4169 68.4917 58.6536C69.2694 58.8904 69.9047 59.4405 70.5417 59.9458C71.2411 60.5009 71.9725 61.0154 72.729 61.4898C70.9434 58.9716 67.5576 57.2823 64.8882 57.0869Z" fill="#E1F9FF"/>
<path d="M28.1743 9.34248L31.5708 9.44519C31.7407 9.13854 31.902 8.83343 32.0544 8.53199C31.9517 8.53506 31.848 8.53782 31.7425 8.53997C31.5527 7.81198 31.3083 6.91103 31.3083 6.91103C31.3083 6.91103 31.1317 7.62 31.0403 8.54824C30.6886 8.54916 30.3402 8.54518 30.0188 8.53506C29.86 7.85706 29.7349 7.18856 29.642 6.63597C29.5171 6.83775 29.3923 7.04595 29.2681 7.25938C29.2586 7.66232 29.2666 8.08827 29.3098 8.49827C29.0219 8.47588 28.7888 8.44551 28.6374 8.40596C28.473 8.72242 28.3184 9.03552 28.1743 9.34248Z" fill="#BDE0DA"/>
<path d="M32.6382 7.29465C32.7881 6.95212 32.9234 6.62003 33.043 6.30081C32.9185 5.68321 32.7955 5.25543 32.7955 5.25543C32.7955 5.25543 32.7648 6.15115 32.6382 7.29465Z" fill="#BDE0DA"/>
<path d="M13.755 21.9493C13.1209 21.4417 11.8526 21.3997 10.6266 21.5687C9.40059 21.738 8.34357 25.2893 8.76613 26.304C9.189 27.3187 10.4785 29.1439 10.4785 29.1439C10.4785 29.1439 12.0219 29.3693 12.8673 29.1157C13.7127 28.8621 14.7698 26.3463 15.0237 25.7122C15.277 25.0777 14.3892 22.4565 13.755 21.9493Z" fill="#FF9566"/>
<path d="M13.7552 21.9493C13.121 21.4421 11.7892 21.22 10.5632 21.389C9.43811 21.5442 8.51969 24.726 8.69234 26.0038C9.33906 26.1167 11.7999 26.6211 12.1274 25.9658C13.2372 23.7462 13.6178 22.9536 14.075 22.3448C13.9655 22.171 13.857 22.0308 13.7552 21.9493Z" fill="#FFB882"/>
<path d="M13.2212 25.1835C13.3481 24.7183 14.0455 22.5623 14.4049 22.6681C14.7643 22.7738 15.4671 23.8625 14.9811 24.983C14.495 26.1032 13.2212 25.1835 13.2212 25.1835Z" fill="#FFB882"/>
<path d="M10.5581 24.507C11.9374 24.6339 12.5875 25.4582 12.5875 25.4582L12.9521 24.602C12.1423 24.2868 11.3462 24.3034 10.5581 24.507Z" fill="#FF9566"/>
<path d="M11.3022 23.0327C12.6816 23.1597 13.3317 23.9839 13.3317 23.9839L13.6963 23.1278C12.8864 22.8122 12.0903 22.8291 11.3022 23.0327Z" fill="#FF9566"/>
<path d="M61.9618 34.4223C64.3776 35.4661 64.8826 35.4858 65.196 36.1104C65.5094 36.7351 64.2157 39.023 64.1139 39.2929C63.9848 39.6345 62.7845 39.6639 62.7925 39C62.8005 38.3361 63.3282 37.36 63.3282 37.36C63.3282 37.36 61.4991 37.3993 61.3319 36.0715C61.2065 35.0755 61.9618 34.4223 61.9618 34.4223Z" fill="#FFB882"/>
<path d="M65.3882 37.342C65.8984 37.2619 67.2652 37.4606 67.4761 37.7194C67.6871 37.9783 67.2885 38.828 66.8294 38.8967C66.3704 38.9654 65.2207 38.6854 65.0306 38.4312C64.8399 38.177 65.1487 37.3794 65.3882 37.342Z" fill="#FFB882"/>
<path d="M64.5256 38.9688C65.0202 38.8976 66.3734 39.1181 66.5985 39.3797C66.8236 39.6412 66.4927 40.4821 66.0475 40.5428C65.6022 40.6035 64.4559 40.3054 64.2514 40.0488C64.0472 39.7924 64.2934 39.0022 64.5256 38.9688Z" fill="#FFB882"/>
<path d="M63.5565 40.2097C64.0545 40.1665 65.3934 40.4633 65.6031 40.7375C65.8132 41.0113 65.4351 41.8322 64.9874 41.8678C64.5393 41.9034 63.4118 41.5409 63.222 41.2729C63.0321 41.0049 63.3225 40.23 63.5565 40.2097Z" fill="#FFB882"/>
</svg>
