<svg width="71" height="72" viewBox="0 0 71 72" fill="none" xmlns="http://www.w3.org/2000/svg">
<path d="M22.3769 8.76443C21.6654 9.26988 22.3671 9.89151 22.3671 9.89151C22.3671 9.89151 22.1601 10.4604 22.4547 10.8347C22.7453 11.2041 23.2722 11.3255 23.2722 11.3255L24.911 10.85C24.911 10.85 24.9478 9.86645 24.3587 9.12275C23.3331 7.82804 22.3769 8.76443 22.3769 8.76443Z" fill="#683A36"/>
<path d="M31.1147 24.0237C34.6884 29.6003 34.9888 32.7736 37.5886 36.1598L33.491 37.4662L31.1147 24.0237Z" fill="#EAC68C"/>
<path d="M58.9344 62.6015C58.5562 62.5778 53.4958 62.3177 53.2595 62.4596C53.0229 62.6015 52.8338 62.9088 52.4556 65.2023L52.6212 65.3205C52.6922 65.0367 53.4372 64.3805 54.0045 64.3333C55.9199 64.1739 55.2637 63.8012 55.2637 63.8012C57.569 63.6417 56.7 63.1981 56.7 63.1981C58.1187 63.1037 59.3129 62.625 58.9344 62.6015Z" fill="#FFEBC0"/>
<path d="M29.5545 54.2663C29.1763 54.2425 24.1159 53.9825 23.8796 54.1244C23.643 54.2663 23.4539 54.5736 23.0757 56.8671L23.2413 56.9853C23.3123 56.7015 24.0573 56.0453 24.6246 55.9981C26.54 55.8387 25.8838 55.466 25.8838 55.466C28.1891 55.3065 27.3204 54.8629 27.3204 54.8629C28.7388 54.7688 29.933 54.2901 29.5545 54.2663Z" fill="#FFEBC0"/>
<path d="M21.7987 25.49C15.509 18.6327 5.86182 5.67511 5.86182 5.67511L6.80763 3.49966L22.6974 13.8092L21.7987 25.49Z" fill="#FFB882"/>
<path d="M6.07565 5.18294L5.86182 5.67472C5.86182 5.67472 15.5094 18.9161 21.7987 25.7734L22.1102 21.4391C16.0119 15.7747 8.71651 8.02135 6.07565 5.18294Z" fill="#FF9566"/>
<path d="M35.9865 39.3461C34.2368 34.097 34.8041 31.6849 35.8446 29.557C36.4581 28.3017 35.7684 23.6104 32.4395 19.4369C30.1245 16.5343 26.197 15.4645 22.4138 13.4782C22.4138 13.4782 18.8671 21.8486 22.792 29.0369C26.7175 36.2249 35.9865 39.3461 35.9865 39.3461Z" fill="#FFB882"/>
<path d="M33.7219 38.4052L35.3867 37.3116C34.4057 33.432 35.1149 31.5303 36.0103 29.6989C36.1698 29.3731 36.0744 28.6723 36.0347 27.9524L32.5343 26.1698C32.5343 26.1698 32.3946 29.2608 32.103 37.5905C32.6872 37.9043 33.2347 38.1773 33.7219 38.4052Z" fill="#FF9566"/>
<path d="M33.8463 30.3372C32.2428 31.1876 28.6431 30.6506 25.8658 25.9746C23.1658 21.4284 22.3544 16.1855 23.6595 14.0995C23.2439 13.9003 22.8279 13.6953 22.4139 13.4779C22.4139 13.4779 18.867 21.8483 22.7921 29.0366C26.7173 36.2249 35.9863 39.3462 35.9863 39.3462C34.9777 36.3196 33.6683 31.9668 33.8463 30.3372Z" fill="#FF9566"/>
<path d="M22.816 56.9146C18.2289 49.1115 13.4998 37.7855 13.9727 36.3668C14.0583 36.1096 14.4359 35.4886 15.1086 35.4001C17.8269 35.0424 26.211 36.0498 30.9739 37.2888L32.4164 44.288C28.0655 43.8623 19.892 41.3845 19.8842 41.7106C19.8604 42.7036 21.1138 51.9017 22.8163 56.1344L22.816 56.9146Z" fill="#FFB882"/>
<path d="M19.9401 42.5116C19.9004 42.122 19.8803 41.8425 19.8835 41.7107C19.8913 41.3845 28.0648 43.8623 32.4157 44.288L30.9732 37.2888C26.2103 36.0498 17.8262 35.0424 15.1079 35.4001C15.0916 35.4024 15.078 35.4083 15.062 35.4109C16.5042 36.467 18.2682 39.0434 19.9401 42.5116Z" fill="#FF9566"/>
<path d="M32.6997 46.1087C36.3411 51.6417 39.4151 56.2289 40.1718 56.8437C40.9285 57.4585 52.1836 65.4032 53.2713 66.3965L53.4604 66.1599C53.4604 66.1599 44.0023 55.5669 43.5766 55.0939C43.1508 54.621 38.3746 43.9333 38.3746 43.9333L32.6997 46.1087Z" fill="#FFB882"/>
<path d="M40.1715 56.8437C40.2099 56.8749 40.2822 56.9296 40.372 56.997C42.2949 57.232 44.3814 57.699 46.5308 58.4001C44.9712 56.6536 43.7246 55.2586 43.5766 55.0939C43.1508 54.621 38.3746 43.9333 38.3746 43.9333L32.6997 46.1087C36.3411 51.6417 39.4151 56.2289 40.1715 56.8437Z" fill="#FF9566"/>
<path d="M18.441 34.6643C20.5217 40.2448 27.8099 47.189 28.9868 48.0475C32.4863 50.6012 45.2075 56.2289 45.2075 56.2289C45.2075 56.2289 43.4106 51.0269 41.2824 47.5275C41.2824 47.5275 42.789 47.4959 40.1003 44.359C38.6816 42.704 38.1139 42.704 38.2559 42.0892C38.3978 41.4744 39.6746 42.1839 38.8235 40.2923C38.4638 39.4929 38.1631 38.7948 37.9359 38.2122C37.6254 37.4164 38.9615 38.0638 37.589 36.1601C37.589 36.1601 19.8184 28.8647 22.9295 13.9247C22.967 13.7457 22.9025 13.5599 22.759 13.4463L22.5862 13.3093C22.3248 13.1351 21.9736 13.2035 21.7982 13.4639C20.4602 15.4476 15.9202 23.6156 24.2581 33.1036L24.0215 33.8604C24.0215 33.8604 22.508 32.6779 22.7447 34.6171C22.7447 34.6171 17.9287 33.2898 18.441 34.6643Z" fill="#FFEBC0"/>
<path d="M40.1007 44.359C38.6819 42.704 38.1143 42.704 38.2562 42.0892C38.2852 41.9642 38.3617 41.8949 38.457 41.8464C27.9587 36.8989 27.8481 33.7962 23.6599 32.3958C23.8523 32.6311 24.0498 32.8667 24.2578 33.104L24.0212 33.8607C24.0212 33.8607 22.5078 32.6783 22.7444 34.6174C22.7444 34.6174 17.9284 33.2905 18.441 34.6646C20.4749 40.1188 27.4796 46.8723 28.8944 47.9769C23.714 42.7294 20.7789 37.7377 22.1703 36.2021C23.7673 34.439 27.4005 39.9128 34.059 45.9434C21.7159 31.2241 40.7448 47.4311 42.1645 49.1021C41.8797 48.5562 41.5848 48.0244 41.2824 47.5275C41.2831 47.5275 42.7897 47.4959 40.1007 44.359Z" fill="#F4D8A2"/>
<path d="M21.1845 21.8011C21.1845 21.8011 20.5785 17.6947 22.928 13.736C22.9075 13.624 22.8522 13.5195 22.7597 13.4463L22.5869 13.3093C22.4662 13.2289 22.3269 13.2025 22.1938 13.2204C20.7711 16.3602 20.8287 19.5921 21.1845 21.8011Z" fill="#F4D8A2"/>
<path d="M41.283 47.5275C41.283 47.5275 37.4575 44.5048 34.7688 41.368C33.35 39.7126 38.1146 42.704 38.2565 42.0892C38.3984 41.4744 39.6752 42.1839 38.8241 40.2923C38.7291 40.0807 38.6386 39.8776 38.552 39.6804C35.0575 40.4521 28.6405 36.5182 24.7079 31.8744C19.4112 25.6202 19.542 20.0039 20.5832 15.7087C19.0646 19.2172 17.627 25.7656 24.0755 33.1037L23.9515 33.6889C23.9515 33.6889 22.3671 32.5302 22.6037 34.469C22.6037 34.469 19.6257 33.7575 18.6763 34.1396C21.5661 34.3278 27.393 36.8117 31.6127 40.4456C35.793 44.0456 42.0404 49.9864 44.5693 55.9435C44.9768 56.126 45.2088 56.2289 45.2088 56.2289C45.2088 56.2289 43.4109 51.0269 41.283 47.5275Z" fill="#F4D8A2"/>
<path d="M29.7435 17.0482C27.7099 15.4638 27.308 13.7141 27.3552 12.3901C27.4024 11.0661 22.5757 14.6336 22.5757 14.6336C22.5757 14.6336 24.423 15.2041 24.3049 16.741C26.5516 18.3016 28.7505 17.8524 29.7435 17.0482Z" fill="#FFB882"/>
<path d="M29.9546 17.2357L32.724 29.226C39.2503 32.1582 43.4244 35.1375 46.4038 37.9277L48.7918 35.4597C48.7918 35.4597 38.1359 21.3028 29.9546 17.2357Z" fill="#FFB882"/>
<path d="M32.4663 28.1139L32.658 29.3972C39.1843 32.3294 43.4235 35.1372 46.4029 37.9274C46.4029 37.9274 43.3874 33.009 32.4663 28.1139Z" fill="#FF9566"/>
<path d="M29.7955 28.6776C29.9052 28.511 29.761 28.2229 29.4733 28.0335C29.1856 27.8441 28.8637 27.8258 28.754 27.9922C28.6443 28.1588 28.7885 28.4472 29.0762 28.6363C29.364 28.8257 29.6858 28.8439 29.7955 28.6776Z" fill="#EF7443"/>
<path d="M33.5619 29.0249C31.7175 27.8545 31.0083 23.8112 31.0083 23.8112C31.0083 23.8112 31.0438 28.6704 33.8457 31.5788L33.5619 29.0249Z" fill="#FF9566"/>
<path d="M24.4122 57.4701C23.8508 56.7912 23.4902 57.1154 22.1069 54.7391L22.2488 55.7321C24.1287 58.8889 24.0223 63.7123 24.4832 63.8188C24.7237 63.8741 24.9226 62.637 24.696 61.0523C24.5717 60.1836 25.1748 58.3925 24.4122 57.4701Z" fill="#FFB882"/>
<path d="M54.4997 66.0499C53.7417 65.6011 53.5119 66.0284 51.4058 64.2608L51.8757 65.1471C54.7135 67.4807 56.2468 72.0555 56.7168 71.9995C56.9619 71.9702 56.7298 70.7386 55.9802 69.3244C55.5688 68.5489 55.5295 66.6592 54.4997 66.0499Z" fill="#FFB882"/>
<path d="M22.4077 56.486L23.1169 55.9451L23.8619 56.7786L22.975 57.5766L22.4077 56.486Z" fill="#FFEBC0"/>
<path d="M52.7628 66.0535L53.1882 65.4152L52.3133 64.7412L52.1362 65.5809L52.7628 66.0535Z" fill="#FFEBC0"/>
<path d="M35.9624 47.0546C38.9655 51.216 43.9309 54.101 43.9309 54.101L44.6166 55.5906C41.732 53.4386 37.8306 50.1992 35.9624 47.0546Z" fill="#F4D8A2"/>
<path d="M22.354 26.152C25.2624 32.3945 32.285 39.2752 37.5345 40.4811L38.5926 39.7745C31.9287 36.9771 26.2421 32.8179 22.354 26.152Z" fill="#F4D8A2"/>
<path opacity="0.6" d="M34.5461 20.3333C32.9549 19.0356 31.3952 17.9521 29.9541 17.2354L29.955 17.239C29.8721 17.1847 29.7878 17.131 29.7035 17.0779C29.7165 17.0678 29.7318 17.0584 29.7445 17.048C28.0859 15.7559 27.5131 14.3537 27.3835 13.1622C26.2785 13.0629 25.281 13.1222 24.4807 13.3292C24.1139 13.5632 23.762 13.7988 23.4636 14.0045C23.3868 13.9671 23.3099 13.9264 23.2331 13.889C22.9741 14.083 22.6968 14.371 22.5767 14.6336C23.2771 14.8611 24.0019 15.4597 24.01 15.5235C24.3055 17.8171 27.4978 22.1442 34.5461 20.3333Z" fill="#C94343"/>
<path d="M25.4414 8.18838C27.1055 6.77844 27.5117 5.25459 27.7665 5.16378C28.0217 5.07298 32.7813 8.04321 35.0238 8.31921C37.2663 8.5952 33.7145 9.33468 31.6594 8.2372C31.6594 8.2372 35.3428 10.6535 29.1016 8.23361C29.1016 8.23361 33.5055 10.2372 27.6542 8.52068C26.8445 8.28309 25.9663 8.27592 25.6165 8.51482C25.2666 8.75404 25.0687 8.50441 25.4414 8.18838Z" fill="#FFEBC0"/>
<path d="M25.8063 8.26417C27.4701 6.85391 27.8213 5.8723 28.0762 5.78149C28.331 5.69069 32.7811 8.04351 35.0236 8.31951C37.2661 8.59551 33.7142 9.33497 31.6592 8.23749C31.6592 8.23749 35.3426 10.6538 29.1014 8.23391C29.1014 8.23391 33.5053 10.2375 27.654 8.52096C26.8442 8.28337 25.9661 8.27621 25.6163 8.5151C25.2664 8.75399 25.4337 8.57987 25.8063 8.26417Z" fill="#F4D8A2"/>
<path d="M22.5767 14.6335C23.4987 14.8936 25.9846 15.6532 26.7648 14.5421C27.5453 13.4306 27.5453 11.9175 27.5687 11.6574C27.5925 11.3974 23.4951 8.73929 23.2416 9.03286C22.7924 9.55263 22.5767 14.6335 22.5767 14.6335Z" fill="#FFB882"/>
<path d="M23.641 11.0841L22.979 10.812C22.979 10.812 23.0617 10.5874 23.2983 10.6938C23.4083 10.7433 23.641 11.0841 23.641 11.0841Z" fill="#664239"/>
<path d="M23.78 12.5914L22.9497 12.0625C22.9497 12.0625 23.7025 10.8514 23.8841 10.8055C24.0674 10.7593 23.78 12.5914 23.78 12.5914Z" fill="#FF9566"/>
<path d="M23.9971 12.537L23.1567 12.0058C23.1567 12.0058 23.9206 10.7853 24.1045 10.7388C24.2904 10.6916 23.9971 12.537 23.9971 12.537Z" fill="#FFB882"/>
<path d="M24.7595 11.845L24.1382 11.4896C24.1382 11.4896 24.2495 11.2777 24.4702 11.4138C24.5727 11.4769 24.7595 11.845 24.7595 11.845Z" fill="#664239"/>
<path d="M25.069 11.4831L24.0581 11.0131L24.091 10.8159L25.1221 11.1371L25.069 11.4831Z" fill="#683A36"/>
<path d="M23.8005 10.7375L22.98 10.3463L23.0067 10.1467L23.8438 10.3876L23.8005 10.7375Z" fill="#683A36"/>
<path d="M27.7576 15.5384C28.6325 15.9166 28.5853 14.9708 28.5853 14.9708C28.5853 14.9708 29.1763 14.8526 29.2473 14.3797C29.3182 13.9068 29.0107 13.363 29.0107 13.363L27.45 12.2281C27.45 12.2281 26.7444 12.7722 26.6461 13.6705C26.4808 15.1836 27.7576 15.5384 27.7576 15.5384Z" fill="#512927"/>
<path d="M26.0191 11.0466C25.2712 11.5781 26.092 12.1151 26.092 12.1151C26.092 12.1151 25.9058 12.6694 26.259 13.0024C26.6075 13.3311 27.1983 13.4072 27.1983 13.4072L28.9721 12.836C28.9721 12.836 28.9395 11.9016 28.2339 11.2406C27.0053 10.0891 26.0191 11.0466 26.0191 11.0466Z" fill="#683A36"/>
<path d="M26.3345 13.4922C26.4315 12.6352 27.0528 12.1692 27.3024 12.7768C27.6923 13.7272 26.3345 13.4922 26.3345 13.4922Z" fill="#FFB882"/>
<path d="M26.5513 13.2797C26.6043 12.8104 26.9448 12.5552 27.0815 12.8879C27.295 13.4086 26.5513 13.2797 26.5513 13.2797Z" fill="#EA7B59"/>
<path d="M26.4741 13.323C26.5073 13.0287 26.7208 12.8683 26.8068 13.0772C26.9408 13.404 26.4741 13.323 26.4741 13.323Z" fill="#FFB882"/>
<path opacity="0.6" d="M27.5221 12.2798C27.5549 11.9739 27.5608 11.7441 27.5689 11.6572C27.5839 11.4916 25.9289 10.3543 24.6586 9.6253C24.5831 9.45475 24.4864 9.28323 24.3595 9.12277C23.3336 7.82773 22.3774 8.76411 22.3774 8.76411C22.2003 8.88974 22.1112 9.02286 22.0767 9.15142C23.5989 10.8302 26.5206 13.9166 28.5584 15.2321C28.5912 15.0932 28.5857 14.9705 28.5857 14.9705C28.5857 14.9705 29.1768 14.8523 29.2477 14.3794C29.3187 13.9065 29.0111 13.3627 29.0111 13.3627L27.5221 12.2798Z" fill="#C94343"/>
<path d="M22.2483 8.36473C26.455 11.2429 26.593 13.2416 29.5075 14.4712C30.604 14.9337 28.9399 13.6731 29.4128 11.0957C29.8857 8.51835 27.9232 6.76277 26.3153 6.79662C24.5624 6.83373 23.7021 8.27002 22.7166 7.96473C21.9469 7.72616 21.9114 8.13397 22.2483 8.36473Z" fill="#FFE05C"/>
<path d="M25.0383 7.2262C24.4782 7.47127 24.0287 7.80812 23.6089 7.98355C23.7423 8.0493 23.8478 8.13002 23.9148 8.22213C24.2494 8.04508 24.613 7.80358 25.0387 7.61025V7.2262H25.0383Z" fill="#FFEB99"/>
<path d="M26.3028 6.934C26.0707 6.93888 25.8549 6.96948 25.6528 7.017V7.39129C25.8702 7.33596 26.1017 7.29853 26.3542 7.29332C27.578 7.26728 29.0097 8.31919 29.3375 9.98396C29.1601 8.11219 27.6122 6.90633 26.3028 6.934Z" fill="#FFEB99"/>
<path d="M29.4123 11.0957C29.6154 9.98981 29.368 9.03685 28.8945 8.31007C28.9189 8.42301 28.9195 8.53399 28.8938 8.64107C28.6859 9.50877 26.8502 9.81242 24.7939 9.31934C23.63 9.04041 22.6458 8.56588 22.0476 8.04968C22.0359 8.147 22.1101 8.27036 22.2478 8.36474C26.4544 11.2429 26.5924 13.2416 29.507 14.4712C30.6035 14.9337 28.9394 13.6731 29.4123 11.0957Z" fill="#FFC550"/>
<path d="M29.4129 11.0957C29.4445 10.9242 29.4634 10.7569 29.4741 10.5929C29.465 10.6603 29.4608 10.7257 29.4484 10.7944C29.4168 10.9662 29.3953 11.1315 29.3813 11.2917C29.3911 11.2269 29.4009 11.1618 29.4129 11.0957Z" fill="#FFE05C"/>
<path d="M29.5427 14.1695C26.6284 12.9399 26.6232 10.9057 22.4165 8.02756C22.356 7.9859 22.1747 7.97418 22.1405 7.92601C21.9729 8.0077 22.038 8.22057 22.2483 8.36443C26.4549 11.2426 26.5929 13.2412 29.5075 14.4709C29.9296 14.6489 29.942 14.5708 29.8255 14.2616C29.7646 14.2548 29.6738 14.2248 29.5427 14.1695Z" fill="#FFE05C"/>
<path d="M27.6015 9.72715C27.6015 9.48077 27.3421 9.28094 27.0222 9.28094C26.7023 9.28094 26.4429 9.48077 26.4429 9.72715C26.4429 9.97353 26.7023 10.1734 27.0222 10.1734C27.3421 10.1734 27.6015 9.97353 27.6015 9.72715Z" fill="#FFE05C"/>
<path d="M27.6665 10.3885C27.5595 10.0829 27.2773 9.79684 27.0999 9.69854C26.9821 9.63312 26.8893 9.63703 26.8561 9.69952C26.8148 9.7773 26.7822 10.0923 26.9482 10.3332C27.3023 10.8474 27.8638 10.9522 27.6665 10.3885Z" fill="#FFC550"/>
<path d="M27.1426 9.48177C29.2542 8.63718 29.8736 7.08762 30.1574 7.08762C30.4412 7.08762 34.52 12.0354 36.6717 13.1469C38.8234 14.2583 35.0401 13.7145 33.3376 11.8229C33.3376 11.8229 36.246 15.6771 30.7839 10.8771C30.7839 10.8771 34.5438 14.5705 29.2471 10.6404C28.5141 10.0966 27.6393 9.76558 27.2136 9.88372C26.7878 10.0022 26.6697 9.67087 27.1426 9.48177Z" fill="#FFEBC0"/>
<path d="M29.3879 38.4546C25.9585 37.2289 23.1903 34.6847 24.1378 34.4351C25.0856 34.1858 29.3879 38.4546 29.3879 38.4546Z" fill="#FFEBC0"/>
<path d="M37.3022 13.5875C36.4147 13.6419 34.5224 12.6128 32.6249 10.9766C32.3414 10.7322 32.0752 10.4858 31.8207 10.2407C31.8444 10.2739 31.8666 10.3042 31.8906 10.3384C32.8251 11.6513 33.5141 12.3771 33.0334 12.2863C32.5527 12.1952 31.2618 11.1755 30.15 10.009C29.6475 9.48175 29.2192 9.05896 29.461 9.39875C30.3954 10.7117 31.0845 11.4375 30.6037 11.3467C30.136 11.2582 28.3932 9.58883 27.5066 9.67768C26.9998 9.72845 26.7883 10.0028 27.214 9.88467C27.6397 9.76653 28.5146 10.0975 29.2475 10.6414C34.5442 14.5711 30.7844 10.878 30.7844 10.878C36.2464 15.678 33.338 11.8238 33.338 11.8238C34.7339 13.3734 37.5252 14.0175 37.3022 13.5875Z" fill="#FFDCAE"/>
<path d="M23.3042 12.7687L23.5395 12.9858C23.9359 13.0671 24.8027 13.2299 24.8027 13.2299C24.8027 13.2299 23.6014 12.9178 23.3042 12.7687Z" fill="#FF9566"/>
<path d="M25.2289 21.7422L25.3353 25.8564L24.4839 24.2958L25.2289 21.7422Z" fill="#FF9566"/>
<path d="M48.0931 34.0504C49.3653 35.3891 50.964 36.4865 50.8863 37.4171C50.8088 38.3476 47.8451 40.139 47.115 39.8675C46.385 39.5961 44.9136 36.4612 44.9136 36.4612C47.2257 36.7066 47.8005 35.4965 48.0931 34.0504Z" fill="#FF9566"/>
<path d="M55.2596 30.495C54.2174 29.4642 54.1588 27.8275 55.129 26.8465C56.0993 25.8655 57.7364 25.9059 58.7788 26.937C59.821 27.9677 59.8799 29.6045 58.9097 30.5855C57.9388 31.5665 56.3017 31.5258 55.2596 30.495ZM58.4 27.3194C57.5818 26.5103 56.2968 26.4784 55.5352 27.2485C54.7736 28.0185 54.8195 29.3032 55.6377 30.1123C56.456 30.9214 57.7409 30.9533 58.5025 30.1832C59.2641 29.4131 59.2182 28.1285 58.4 27.3194Z" fill="#FFC648"/>
<path d="M52.1295 33.6588C51.1971 32.7364 51.2277 31.1882 52.1979 30.2072C53.1681 29.2263 54.716 29.1787 55.6485 30.1008C56.581 31.0232 56.5504 32.5714 55.5801 33.5524C54.6099 34.5337 53.062 34.5812 52.1295 33.6588ZM55.27 30.4835C54.5618 29.7831 53.3657 29.8394 52.6044 30.6095C51.8428 31.3796 51.7995 32.576 52.508 33.2764C53.2163 33.9768 54.4124 33.9205 55.1736 33.1504C55.9349 32.3807 55.9782 31.1843 55.27 30.4835Z" fill="#FFC648"/>
<path d="M61.1932 25.1677L60.5208 24.5027L44.7573 40.9054L44.9656 41.1114L61.1932 25.1677Z" fill="#FFC648"/>
<path d="M49.6989 36.1171C49.0063 35.4323 49.0733 34.2382 49.8479 33.4548C50.6226 32.6717 51.8157 32.5917 52.5083 33.2764C53.2009 33.9612 53.1339 35.1554 52.3593 35.9385C51.585 36.7219 50.3915 36.8019 49.6989 36.1171ZM52.1301 33.6589C51.6621 33.1961 50.8208 33.2846 50.2548 33.8567C49.6888 34.4289 49.6094 35.2712 50.0777 35.7341C50.5457 36.1972 51.3871 36.1084 51.9531 35.5362C52.5187 34.9643 52.5981 34.122 52.1301 33.6589Z" fill="#FFE05C"/>
<path d="M58.7788 26.9366C58.6707 26.8295 58.5545 26.7357 58.4351 26.6501C58.7407 27.1803 58.9188 27.731 58.9464 28.2101C59.1642 28.8982 59.0206 29.6594 58.5028 30.1831C57.7412 30.9532 56.4563 30.9213 55.638 30.1122C55.557 30.0321 55.4857 29.9462 55.42 29.8576C55.1703 29.7991 54.9174 29.7232 54.6636 29.6285C54.8006 29.9419 54.9995 30.2375 55.2598 30.4949C56.302 31.5257 57.9394 31.5664 58.9096 30.5854C59.8795 29.6041 59.8209 27.9676 58.7788 26.9366Z" fill="#FFE05C"/>
<path d="M59.8988 23.9543C59.3937 24.465 59.3983 25.2884 59.9089 25.7936C60.4196 26.2987 61.243 26.2941 61.7482 25.7835C62.2533 25.2728 62.2487 24.4494 61.7381 23.9443C61.2271 23.4391 60.4036 23.4437 59.8988 23.9543Z" fill="#FFE05C"/>
<path d="M60.6914 25.1707C60.2689 24.7528 60.1986 24.1194 60.4707 23.623C60.2614 23.682 60.0626 23.7887 59.8988 23.9544C59.3937 24.465 59.3983 25.2885 59.9089 25.7936C60.4196 26.2987 61.243 26.2942 61.7482 25.7835C61.8354 25.6953 61.9018 25.5954 61.9587 25.4919C61.5226 25.6146 61.0364 25.5117 60.6914 25.1707Z" fill="#FFC648"/>
<path d="M52.387 33.1426C51.808 32.4311 51.8893 31.3324 52.6044 30.6095C53.366 29.8394 54.5618 29.7831 55.27 30.4835C55.3865 30.5988 55.4806 30.7286 55.5567 30.8666C55.8034 30.9587 56.0443 31.0857 56.2714 31.2471C56.1797 30.8227 55.9743 30.4233 55.6485 30.1011C54.716 29.1787 53.1681 29.2266 52.1979 30.2075C51.2277 31.1885 51.1971 32.7371 52.1295 33.6591C52.2799 33.8079 52.4475 33.9286 52.6249 34.0269C52.4967 33.7379 52.4163 33.4391 52.387 33.1426Z" fill="#FFE05C"/>
<path d="M50.2546 33.8568C50.7194 33.3868 51.3674 33.2491 51.8446 33.4695C51.8048 33.2511 51.7303 33.0359 51.6174 32.8341C51.0172 32.7394 50.3461 32.9507 49.8478 33.4545C49.276 34.0325 49.0911 34.8345 49.3114 35.4903C49.535 35.5801 49.7687 35.6303 50.0011 35.6377C49.6275 35.1616 49.7244 34.3928 50.2546 33.8568Z" fill="#FFC648"/>
<path d="M58.7987 26.6524L58.9282 26.4793C56.2486 23.8293 59.697 21.0713 61.0018 20.627C61.2137 20.5548 61.1785 20.2964 61.0434 19.9214C60.7964 18.711 60.1012 15.4739 59.7653 15.6493C59.5209 15.7769 59.4252 16.1776 59.5544 17.236C59.5411 17.2461 59.5281 17.2555 59.5144 17.2659C59.3129 16.7621 59.1316 16.4233 59.0281 16.4981C58.841 16.6332 58.7814 16.9554 58.9286 17.7362C58.9084 17.7535 58.8882 17.7704 58.8677 17.788C58.6838 17.4648 58.5292 17.2789 58.4443 17.3616C58.2897 17.5126 58.2347 17.7743 58.331 18.2863C58.3037 18.3133 58.2763 18.3403 58.249 18.3683C58.0739 18.0194 57.9193 17.8049 57.8242 17.8768C57.6355 18.02 57.5736 18.3156 57.708 18.9658C57.6836 18.9955 57.6596 19.026 57.6355 19.0563C57.4555 18.8044 57.3041 18.6687 57.2192 18.7527C57.0428 18.9271 56.9914 19.2073 57.1368 19.7492C57.1215 19.7733 57.1069 19.7977 57.0919 19.8221C56.8595 19.5478 56.6779 19.3873 56.6272 19.4785C56.5351 19.6431 56.5591 19.8918 56.7915 20.3663C56.7743 20.4018 56.7564 20.437 56.7394 20.4728C56.5754 20.3397 56.4563 20.2869 56.4218 20.3712C56.3554 20.5333 56.3681 20.7344 56.5142 21.043C56.4996 21.0876 56.4862 21.1328 56.4729 21.1781C56.2932 21.0065 56.1562 20.9239 56.1106 21.0088C56.0085 21.2005 56.0387 21.4641 56.3128 21.9514C56.3098 21.9767 56.3059 22.0021 56.3033 22.0278C56.0947 21.8768 55.9362 21.8124 55.8932 21.9191C55.7894 22.1756 55.8792 22.4366 56.316 22.9515V22.9525C56.0612 22.7393 55.8646 22.6186 55.8294 22.7165C55.7445 22.9525 55.8988 23.2314 56.5552 23.9292C56.5572 23.9338 56.5591 23.9384 56.5608 23.9429C56.2939 23.7528 56.0859 23.6471 56.1002 23.7938C56.1364 24.1665 56.3971 24.4598 57.4005 25.292C58.0693 26.1076 58.7987 26.6524 58.7987 26.6524Z" fill="#FFE05C"/>
<path d="M58.9281 26.4793C56.3898 23.969 59.4782 21.3076 60.9063 20.6622C60.6004 20.0689 60.2733 19.2718 60.0269 18.4025C59.7942 17.5823 59.5452 16.892 59.5003 16.2954C59.4886 16.5284 59.5052 16.8347 59.554 17.236C59.5407 17.2461 59.5277 17.2555 59.514 17.2659C59.6058 17.8449 60.4484 20.1304 60.1874 20.1991C59.8951 20.2759 59.2071 18.2983 58.9281 17.7362C58.908 17.7535 58.8878 17.7704 58.8673 17.788C59.4639 19.4004 59.8954 20.3595 59.7122 20.4607C59.4134 20.6257 58.9633 19.5872 58.3309 18.2863C58.3036 18.3133 58.2762 18.3403 58.2489 18.3683C58.5926 19.0371 59.4958 20.6082 59.2292 20.7976C59.0043 20.9577 58.422 19.9325 57.7079 18.9655C57.6835 18.9951 57.6595 19.0257 57.6354 19.056C58.2212 19.9501 58.9669 21.3672 58.8816 21.4515C58.7052 21.6259 57.7643 20.4627 57.1368 19.7489C57.1215 19.773 57.1068 19.7974 57.0918 19.8218C58.161 21.1712 58.4416 21.7893 58.3908 21.8804C58.2987 22.0451 57.8202 21.5325 56.7914 20.3657C56.7742 20.4012 56.7563 20.4363 56.7393 20.4721C57.8964 21.7408 58.118 22.174 58.0832 22.258C58.0168 22.4201 57.665 22.2101 56.5138 21.042C56.4992 21.0866 56.4858 21.1319 56.4725 21.1771C57.4723 22.1695 57.898 22.8262 57.8528 22.9112C57.7506 23.1029 57.1488 22.5974 56.3127 21.9504C56.3097 21.9758 56.3058 22.0012 56.3032 22.0269C57.4772 23.0218 57.6738 23.4326 57.6305 23.5393C57.5267 23.7958 56.8686 23.3177 56.3159 22.9502V22.9512C57.499 23.9579 57.5862 24.1942 57.5511 24.2922C57.4661 24.5281 57.0157 24.245 56.5551 23.9279C56.5571 23.9325 56.559 23.9371 56.5607 23.9416C57.3604 24.5691 57.7685 25.0482 57.79 25.1937C57.8248 25.4277 57.4811 25.2874 57.4001 25.2907C58.0686 26.1063 58.7983 26.6511 58.7983 26.6511L58.9281 26.4793Z" fill="#FFC648"/>
<path d="M59.0952 26.9453L59.2667 26.8138C61.9463 29.4638 64.6659 25.9855 65.0956 24.6758C65.1652 24.463 65.4243 24.4955 65.8009 24.6264C67.0142 24.86 70.2585 25.5195 70.087 25.8573C69.962 26.103 69.5623 26.2033 68.5026 26.0858C68.4928 26.0991 68.4834 26.1125 68.4733 26.1261C68.9794 26.3221 69.3201 26.4998 69.2466 26.6039C69.1135 26.7927 68.7922 26.8555 68.0095 26.7172C67.9922 26.7377 67.976 26.7579 67.9584 26.7784C68.2835 26.9587 68.471 27.1113 68.3893 27.1969C68.2399 27.3531 67.9789 27.4111 67.466 27.3203C67.4389 27.3479 67.4122 27.3756 67.3849 27.4033C67.7358 27.5745 67.9519 27.7268 67.8809 27.8225C67.7397 28.0129 67.4451 28.0776 66.7932 27.9507C66.7639 27.9754 66.7333 27.9998 66.7034 28.0243C66.9572 28.2013 67.0949 28.3513 67.0116 28.4373C66.8391 28.6156 66.5595 28.67 66.016 28.5304C65.9922 28.546 65.9678 28.5606 65.9437 28.5759C66.2204 28.8054 66.3831 28.9851 66.2926 29.0368C66.1289 29.1305 65.8803 29.1094 65.4031 28.8822C65.368 28.8998 65.3328 28.9183 65.2974 28.9353C65.4321 29.098 65.4865 29.2165 65.4025 29.2519C65.2414 29.3203 65.0399 29.3095 64.7297 29.167C64.6851 29.1823 64.6402 29.1959 64.595 29.2099C64.7685 29.3877 64.8528 29.5237 64.7681 29.5702C64.5777 29.6744 64.3135 29.6474 63.8233 29.3785C63.7979 29.3818 63.7725 29.386 63.7468 29.3886C63.9001 29.5956 63.9665 29.7532 63.8601 29.7978C63.6046 29.9042 63.3426 29.8176 62.8231 29.386H62.8222C63.038 29.6383 63.161 29.8339 63.0637 29.87C62.8287 29.9576 62.5478 29.8062 61.8428 29.1579C61.8383 29.1563 61.8337 29.1543 61.8292 29.1523C62.0225 29.4173 62.1302 29.624 61.9834 29.6113C61.6104 29.5794 61.3143 29.3216 60.471 28.3276C59.6482 27.6688 59.0952 26.9453 59.0952 26.9453Z" fill="#FFE05C"/>
<path d="M59.2664 26.8139C61.8047 29.3242 64.4316 26.2069 65.0614 24.7716C65.6583 25.071 66.4586 25.3893 67.3306 25.6262C68.1533 25.8498 68.8463 26.091 69.4435 26.1294C69.2105 26.1434 68.9042 26.1307 68.5022 26.0861C68.4925 26.0995 68.483 26.1128 68.473 26.1265C67.893 26.0412 65.5984 25.2236 65.5327 25.4856C65.4591 25.7786 67.4441 26.4448 68.0095 26.7175C67.9922 26.738 67.976 26.7582 67.9584 26.7787C66.3395 26.2 65.3758 25.7789 65.2762 25.9634C65.1144 26.2638 66.1582 26.7026 67.4656 27.3206C67.4386 27.3483 67.4119 27.376 67.3846 27.4036C66.7118 27.0674 65.1314 26.1818 64.9445 26.45C64.787 26.6765 65.8184 27.2477 66.7932 27.9507C66.7639 27.9755 66.7333 27.9999 66.7034 28.0243C65.8028 27.4482 64.3776 26.7185 64.2943 26.8044C64.1218 26.9828 65.2951 27.9107 66.0157 28.5304C65.9919 28.546 65.9675 28.5607 65.9434 28.576C64.5823 27.5218 63.961 27.248 63.8705 27.2998C63.7068 27.3935 64.2249 27.8664 65.4028 28.8822C65.3677 28.8998 65.3325 28.9184 65.297 28.9353C64.0156 27.7922 63.5802 27.5758 63.4962 27.6113C63.3351 27.6796 63.5486 28.0288 64.7294 29.167C64.6848 29.1823 64.6399 29.196 64.5947 29.21C63.5912 28.2212 62.9299 27.8026 62.8453 27.8489C62.6549 27.953 63.1668 28.5493 63.823 29.3786C63.7976 29.3818 63.7722 29.3861 63.7465 29.3887C62.7385 28.2258 62.3258 28.0337 62.2194 28.078C61.9639 28.1844 62.4492 28.8373 62.8228 29.3861H62.8218C61.8021 28.214 61.5649 28.1297 61.4676 28.1659C61.2326 28.2534 61.5206 28.7006 61.8425 29.1579C61.8379 29.1563 61.8334 29.1543 61.8288 29.1524C61.1925 28.3598 60.7089 27.9569 60.5631 27.9367C60.3287 27.9045 60.4729 28.2466 60.4703 28.3276C59.6472 27.6682 59.0942 26.9447 59.0942 26.9447L59.2664 26.8139Z" fill="#FFC648"/>
<path d="M61.104 23.8681C60.9208 23.9875 60.925 24.3618 61.1128 24.7039C61.3009 25.0463 61.6017 25.2269 61.7849 25.1075C61.9681 24.988 61.9639 24.6137 61.7761 24.2717C61.588 23.9296 61.2873 23.7487 61.104 23.8681Z" fill="#FFF48D"/>
<path d="M47.0549 33.254C48.8635 34.5094 49.49 35.2625 49.5141 35.833C49.5382 36.4033 47.8083 37.6745 47.642 37.8412C47.4314 38.0524 46.5273 37.6723 46.7558 37.1805C46.9842 36.6887 47.7042 36.1383 47.7042 36.1383C47.7042 36.1383 46.3284 35.5548 46.6484 34.5097C46.8882 33.7256 47.0549 33.254 47.0549 33.254Z" fill="#FFB882"/>
<path d="M49.2448 36.8144C49.6519 36.9257 50.6033 37.5314 50.6739 37.795C50.7442 38.0586 50.1626 38.5579 49.7977 38.4554C49.4326 38.3528 48.67 37.7592 48.6134 37.506C48.5567 37.2528 49.0537 36.7623 49.2448 36.8144Z" fill="#FFB882"/>
<path d="M48.0572 37.738C48.4494 37.8506 49.3838 38.4683 49.4639 38.7385C49.5439 39.0089 49.0157 39.5245 48.6639 39.4207C48.312 39.3168 47.5579 38.7108 47.4915 38.4511C47.4251 38.191 47.873 37.6849 48.0572 37.738Z" fill="#FFB882"/>
<path d="M46.9196 38.3375C47.3049 38.4723 48.2029 39.1418 48.2673 39.4161C48.3318 39.6905 47.7756 40.1754 47.4299 40.0518C47.0843 39.9281 46.3656 39.2804 46.3139 39.0174C46.2628 38.7544 46.7386 38.2744 46.9196 38.3375Z" fill="#FFB882"/>
<path d="M6.81001 6.55124C6.43441 6.34815 6.02042 6.23848 5.5934 6.355C5.2663 6.44417 3.77794 6.04483 3.60837 5.88437C3.4248 5.71025 2.70356 5.06809 3.1475 3.93839C3.53871 2.94278 4.23489 2.68662 4.80576 2.87702C5.37663 3.06742 6.67558 2.11577 6.91578 2.10926C7.49283 2.09396 7.46452 3.01209 8.25313 3.85343C10.34 6.08159 8.94638 7.70633 6.81001 6.55124Z" fill="#FFB882"/>
<path d="M8.07786 3.98916C8.09251 3.61325 7.01358 1.68125 6.62041 1.42316C6.22724 1.16538 5.56361 0.242683 5.38037 0.0431705C5.19681 -0.156667 4.50844 0.389789 4.62008 0.610457C4.73139 0.830799 5.67851 1.8134 5.76085 2.11803C5.92489 2.72438 5.20853 2.84123 5.00218 2.947C5.19551 3.36523 8.03685 5.04173 8.07786 3.98916Z" fill="#FFB882"/>
<path d="M5.99134 2.93296C5.316 2.79041 4.40567 2.69376 4.2234 2.58213C3.82991 2.34095 3.25806 0.877311 3.03706 0.846717C2.81379 0.815797 2.13063 0.919625 2.25594 1.2695C2.37506 1.60083 3.06213 3.13931 3.35733 3.3219C3.64081 3.49733 4.8662 3.95527 4.9889 3.95917C5.11063 3.9634 6.22015 2.98146 5.99134 2.93296Z" fill="#FFB882"/>
<path d="M4.80528 3.52664C4.0733 3.48628 2.95825 3.56926 2.78575 3.40588C2.61325 3.24249 1.72439 2.02101 1.59355 1.93443C1.43049 1.8267 0.76328 2.32989 0.907462 2.61012C1.05132 2.89035 1.9161 4.20556 2.24384 4.3709C2.57159 4.53657 3.78982 4.78002 3.9174 4.76407C4.04499 4.74845 5.06175 3.54063 4.80528 3.52664Z" fill="#FFB882"/>
<path d="M4.47075 4.61635C3.72444 4.75793 2.84698 4.97468 2.64128 4.86597C2.43559 4.75727 1.48099 4.07932 1.33225 4.03115C1.14673 3.97126 0.611013 4.57045 0.811176 4.79373C1.01101 5.01732 2.25952 5.87689 2.62274 5.94979C2.98564 6.0227 3.82241 6.01716 4.34707 6.16199C4.47888 6.19844 4.73242 4.56655 4.47075 4.61635Z" fill="#FFB882"/>
</svg>
