<svg width="63" height="72" viewBox="0 0 63 72" fill="none" xmlns="http://www.w3.org/2000/svg">
<path d="M22.3221 0.45932C22.5317 0.175688 22.9344 0.43356 22.9344 0.43356C22.9344 0.43356 22.4948 -0.19379 21.9719 0.060871C21.2848 0.396007 21.385 1.51945 22.1375 1.93864L23.5052 1.04446C22.5442 1.32201 22.0924 0.770135 22.3221 0.45932Z" fill="#723F35"/>
<path d="M29.153 4.9831C28.7435 4.50919 28.207 4.30173 27.9544 4.51991C27.7019 4.73808 27.8293 5.29892 28.2388 5.77319C28.6483 6.24746 29.1848 6.45455 29.4373 6.23637C29.6899 6.01819 29.5625 5.45702 29.153 4.9831Z" fill="#592923"/>
<path d="M55.2036 18.546C56.3825 17.4343 56.6518 17.1385 56.7577 16.6868C56.8636 16.2354 56.8543 15.1864 57.0467 15.0286C57.2391 14.8709 57.8064 14.8498 58.0142 15.3301C58.222 15.8105 57.9494 17.092 57.9176 17.4236C57.8861 17.7555 56.5427 19.4595 56.5427 19.4595L55.2036 18.546Z" fill="#FF9566"/>
<path d="M54.7524 16.1693C55.5901 14.7822 55.7704 14.4253 55.7514 13.9617C55.7325 13.4982 57.0083 14.0329 57.0666 14.3612C57.1249 14.6896 56.2872 16.6911 56.2872 16.6911L54.7524 16.1693Z" fill="#FF9566"/>
<path d="M53.312 16.3388C54.0924 14.9189 54.258 14.5548 54.2201 14.0926C54.1822 13.6305 53.8517 12.6351 53.9862 12.4259C54.1207 12.2167 54.4662 11.692 54.8114 12.0854C55.1565 12.4788 55.4788 14.1127 55.5503 14.4382C55.6222 14.7636 54.8664 16.7977 54.8664 16.7977L53.312 16.3388Z" fill="#FF9566"/>
<path d="M51.8603 17.5262C51.3459 16.2171 51.19 15.726 51.2114 15.2525C51.2325 14.7893 51.1256 13.3375 51.1803 13.095C51.235 12.8522 51.851 12.5242 52.2501 12.8625C52.7437 13.281 52.4837 14.8401 52.9794 15.4131C53.5978 16.1284 54.0506 17.3985 54.0506 17.3985L51.8603 17.5262Z" fill="#FF9566"/>
<path d="M52.6626 16.6954C53.8955 15.0186 54.9989 14.3902 55.7386 14.9571C56.4782 15.524 57.1993 19.2105 56.4596 19.4816C55.72 19.7527 53.7474 21.1831 53.7474 21.1831L52.6626 16.6954Z" fill="#FF9566"/>
<path d="M55.2749 16.7694L54.7603 16.764C54.8042 15.5769 54.9992 14.9263 55.3919 14.6552C55.819 14.3608 56.3787 14.55 57.0873 14.79C57.7944 15.0293 58.6753 15.3283 59.6546 15.1831C60.8396 15.0093 61.8947 13.7821 62.2524 12.565C62.5428 11.5771 62.4283 10.4608 62.0428 10.1239C61.7942 9.90713 61.2444 9.90141 60.7484 10.1239C59.4089 10.7251 59.0823 11.5395 59.0716 11.8868C59.0616 12.2177 59.3996 12.5385 59.6725 12.6812C59.8638 12.7817 60.0623 12.7731 60.2179 12.658C60.2179 12.658 60.0327 12.9967 59.5398 12.7252C59.1732 12.5235 58.9368 12.3336 58.95 11.8922C58.9625 11.4773 59.205 10.6822 60.6886 10.0162C61.4465 9.67571 61.885 9.84918 62.1197 10.0534C62.6036 10.4758 62.6984 11.4394 62.3665 12.5682C62.0109 13.7778 61.0585 15.1574 59.6568 15.3634C58.6077 15.5165 57.7303 15.3133 56.9939 15.064C56.3623 14.8505 56.0071 14.7818 55.6995 14.9935C55.394 15.2053 55.3146 15.6975 55.2749 16.7694Z" fill="#8B933F"/>
<path d="M0.949707 45.8165C0.949707 45.8165 0.972955 46.8333 1.03447 47.1706C1.08348 47.4403 1.40538 48.2354 1.40538 48.2354L2.02057 48.421L2.72911 48.1553L3.03814 47.4013L2.93191 46.7056C2.93191 46.7056 2.23124 46.1827 1.97836 46.069C1.72978 45.957 0.949707 45.8165 0.949707 45.8165Z" fill="#797C31"/>
<path d="M5.93799 45.8591C5.93799 45.8591 4.90575 45.6785 4.55345 45.6806C4.27196 45.6824 3.40819 45.8931 3.40819 45.8931L3.10596 46.568L3.24259 47.4436L3.9472 47.9558L4.67005 47.9747C4.67005 47.9747 5.32923 47.2697 5.49126 46.9997C5.65042 46.7343 5.93799 45.8591 5.93799 45.8591Z" fill="#797C31"/>
<path d="M1.53857 51.1071C1.53857 51.1071 2.25606 51.3092 2.505 51.3185C2.70422 51.326 3.32871 51.1564 3.32871 51.1564L3.5873 50.5348L3.54904 49.7115L3.08514 49.2096L2.57546 49.1685C2.57546 49.1685 2.06256 49.8073 1.92987 50.0545C1.80003 50.2977 1.53857 51.1071 1.53857 51.1071Z" fill="#797C31"/>
<path d="M25.4909 1.95073C27.4341 0.744667 27.3894 2.93718 27.3894 2.93718C27.3894 2.93718 29.8798 4.3178 27.8579 5.20554C25.836 6.09327 23.3456 3.28233 25.4909 1.95073Z" fill="#592923"/>
<path d="M33.9087 12.1158C39.8156 14.0819 48.2806 22.1566 48.0767 26.1804C47.8796 30.0701 36.8305 28.6791 35.0482 27.4144L33.9087 12.1158Z" fill="#FFB882"/>
<path d="M33.9116 12.154L35.0483 27.4143C36.8306 28.679 47.8797 30.07 48.0768 26.1804C48.1072 25.5802 44.1335 25.5755 43.8155 24.8287C42.5154 20.2831 36.1664 12.923 33.9116 12.154Z" fill="#FF9566"/>
<path d="M31.6203 47.0014C31.3374 60.1868 27.2629 71.6544 27.2629 71.6544H26.8791L22.9351 46.1569L31.6203 47.0014Z" fill="#FF9566"/>
<path d="M37.3696 47.8341C43.9801 61.3254 55.1283 71.6549 55.1283 71.6549H55.4981L47.0414 45.5654L37.3696 47.8341Z" fill="#FFB882"/>
<path d="M52.1553 61.3425L47.0414 45.5654L37.3696 47.8341C41.2511 55.7557 46.6948 62.5836 50.5297 66.8742C50.4968 64.5637 51.0963 62.554 52.1553 61.3425Z" fill="#FF9566"/>
<path d="M19.6968 13.3669C21.3242 10.6547 21.9651 9.42181 21.9651 9.42181L21.2748 6.90703C21.2748 6.90703 24.1644 2.06597 26.2847 3.05206C28.405 4.03816 29.3621 6.41382 29.3621 6.41382L30.1264 9.96441L33.1791 11.811L19.6968 13.3669Z" fill="#FFB882"/>
<path d="M24.3569 43.3246C21.3242 37.481 18.5873 26.4597 18.5873 26.4597L15.3325 16.3999C15.3325 16.3999 20.6582 10.5563 25.9839 10.5563C31.3096 10.5563 34.4904 12.4055 34.4904 12.4055L39.9642 34.1525L24.3569 43.3246Z" fill="#FFB882"/>
<path d="M26.1802 28.6816C23.9337 28.4173 23.7395 22.8845 19.6996 17.6213C18.0193 17.0655 16.7056 17.5899 16.7056 17.5899L18.5862 26.4597C18.5862 26.4597 21.3231 37.4813 24.3558 43.3246L24.5789 43.1933C24.5789 43.1629 26.6488 42.4919 26.6488 42.4615C26.6488 34.1686 30.1514 26.5828 35.2786 26.5828C37.2204 26.5828 37.6046 29.0525 39.095 30.7013L37.6049 24.7808C33.898 24.5609 28.0294 28.899 26.1802 28.6816Z" fill="#FF9566"/>
<path d="M34.4903 12.4051C34.4903 12.4051 34.5915 12.4058 33.9953 12.1554C33.3494 11.884 34.0625 16.7143 34.2682 19.1364C34.6506 23.6363 35.5358 32.5183 35.0819 33.8317C34.1448 36.5439 30.1657 38.1634 28.622 38.1713C26.2328 38.1831 21.6196 27.1744 21.3159 21.0961C21.2544 19.8654 17.1308 23.2028 16.9223 22.1319C16.3307 30.9714 23.0002 40.7111 24.3561 43.3242L39.9637 34.1521L34.4903 12.4051Z" fill="#FF9566"/>
<path d="M20.0779 33.8195C21.4533 33.8195 22.5683 30.839 22.5683 27.1622C22.5683 23.4855 21.4533 20.5049 20.0779 20.5049C18.7024 20.5049 17.5874 23.4855 17.5874 27.1622C17.5874 30.839 18.7024 33.8195 20.0779 33.8195Z" fill="#FC8456"/>
<path d="M45.5857 32.8209C51.7376 31.7543 55.2017 19.5803 55.2017 19.5803L52.6522 16.9264C52.6522 16.9264 44.7667 21.6122 43.1847 23.4761C41.6027 25.3399 40.5218 33.6986 45.5857 32.8209Z" fill="#FFB882"/>
<path d="M47.7305 24.906C45.5462 25.2848 44.3562 24.7758 43.2932 23.3559C43.2557 23.3963 42.7328 23.2403 42.7006 23.2786C41.1186 25.1421 40.5217 33.6986 45.5855 32.8205C51.7375 31.7539 55.2015 19.5799 55.2015 19.5799L54.2408 18.5799C52.6052 21.9048 50.9728 24.3437 47.7305 24.906Z" fill="#FF9566"/>
<path d="M24.3568 68.1784C38.337 70.3233 52.7611 58.2666 52.7611 58.2666L48.3969 47.0233L48.5449 44.6562L44.6245 32.895L44.7726 29.4924C44.7726 29.4924 36.6352 15.235 34.5586 12.1837C34.3451 11.8697 33.908 11.7284 33.9298 12.0604C34.1351 15.1789 37.239 32.91 35.6002 34.8922C33.4853 37.4506 28.8688 40.2919 23.987 41.3274C23.2316 41.4876 24.3568 68.1784 24.3568 68.1784Z" fill="#F9D58C"/>
<path d="M26.7319 53.482L30.5418 58.7719C28.7875 49.3831 33.1228 43.1357 33.1228 43.1357C33.1228 43.1357 27.8529 47.5618 26.7319 53.482Z" fill="#F2C679"/>
<path d="M34.1021 54.2339C34.1021 54.2339 37.29 54.0361 38.5761 52.0009C41.4632 47.4328 44.7556 44.6669 44.7556 44.6669C44.7556 44.6669 37.8225 48.7705 34.1021 54.2339Z" fill="#F2C679"/>
<path d="M30.0753 43.2956C32.4427 40.0118 41.8022 35.1955 44.8918 33.6986L44.6239 32.8946L44.7612 29.7353C44.3527 32.4013 38.6815 36.149 35.7125 34.7137C31.2352 38.6148 28.0494 39.6334 23.6905 41.4379C23.1583 44.139 24.3561 68.178 24.3561 68.178C25.1774 68.3039 26.0004 68.3793 26.8216 68.4126C27.3148 60.4115 25.4889 49.6571 30.0753 43.2956Z" fill="#F2C679"/>
<path d="M48.5299 44.8951C47.4108 46.5054 45.2086 48.1056 43.4657 49.0201C35.8688 53.0064 29.2268 56.0419 26.9492 51.7009C26.2364 50.3424 25.8268 46.1652 25.7768 40.8656C25.0228 40.9944 24.5496 41.2079 23.987 41.327C23.2316 41.4873 24.3568 68.178 24.3568 68.178C26.4231 68.4949 28.499 68.4999 30.5366 68.2814C30.3467 68.0628 27.0937 58.6361 42.1319 50.6186C44.391 49.4143 46.4654 48.1639 48.5238 47.3498L48.3969 47.0229L48.5299 44.8951Z" fill="#F2C679"/>
<path d="M27.1893 49.7254C27.1893 49.7254 26.327 49.3269 26.0312 49.2654C25.8002 49.2175 25.1163 49.2951 25.1163 49.2951L24.8999 49.8989L24.9947 50.6517L25.43 51.1582L25.8924 51.3124C25.8924 51.3124 26.4243 50.9189 26.586 50.7301C26.7555 50.5319 27.1893 49.7254 27.1893 49.7254Z" fill="#797C31"/>
<path d="M23.5481 38.9056L10.8665 36.0174C4.17595 43.4923 -1.07178 56.1284 1.71554 71.9507H23.719C27.8333 59.9673 25.9455 46.2721 23.5481 38.9056Z" fill="#914343"/>
<path d="M23.9244 43.8324C22.4143 42.2734 20.5183 41.3273 18.5132 41.3273C14.1014 41.3273 10.8391 45.8976 11.2271 51.5352C11.6152 57.1728 15.5066 61.7431 19.9185 61.7431C22.13 61.7431 24.0521 60.5946 25.3708 58.7394C25.5218 53.2391 24.869 48.0211 23.9244 43.8324Z" fill="#A84E4E"/>
<path d="M8.28857 39.2732C10.1449 40.1266 13.5395 40.6985 17.421 40.6985C19.8649 40.6985 22.1147 40.4714 23.9105 40.0905C23.7911 39.681 23.6702 39.2829 23.5475 38.9055L10.8659 36.0174C9.9757 37.0121 9.11229 38.1008 8.28857 39.2732Z" fill="#752F2F"/>
<path d="M21.4722 70.9149C23.7652 61.0768 23.7652 47.8366 22.2118 40.9572C22.5402 52.0897 22.4368 62.3612 21.4722 70.9149Z" fill="#752F2F"/>
<path d="M18.7644 41.3366C20.3932 51.0033 19.5216 63.6423 17.5269 70.0221C18.5856 59.4354 19.1589 49.6181 18.7644 41.3366Z" fill="#752F2F"/>
<path d="M6.05908 67.8904C6.46504 57.6121 9.44836 44.433 12.2249 37.9148C9.4573 48.9257 7.22473 59.1715 6.05908 67.8904Z" fill="#752F2F"/>
<path d="M12.5532 69.8658C12.6409 60.0263 14.2708 46.554 15.8874 39.4453C15.1152 50.7566 13.7629 61.1576 12.5532 69.8658Z" fill="#752F2F"/>
<path d="M17.0826 67.7591C11.5541 67.7591 4.80384 62.6799 5.83929 48.6749C6.08894 45.2978 6.97346 42.0176 8.19347 39.4117C2.88029 47.0504 -0.686752 58.3156 1.71536 71.9507H23.7188C25.2715 67.4286 25.9686 62.663 26.1066 58.0852C24.4717 64.985 21.0188 67.7591 17.0826 67.7591Z" fill="#752F2F"/>
<path d="M15.9183 15.8152C11.5093 19.2549 7.07883 30.2218 8.2316 34.1154C9.38437 38.009 19.8669 30.3287 21.1192 28.3776C24.3933 23.2765 18.9084 13.4825 15.9183 15.8152Z" fill="#FFB882"/>
<path d="M9.11935 33.6346C8.33891 30.9983 9.81609 24.8825 12.4224 19.9541C9.36328 24.7408 6.99836 31.5469 7.84354 34.4011C8.36574 36.1655 10.8841 35.4945 13.5984 34.0513C11.2725 35.1383 9.57931 35.188 9.11935 33.6346Z" fill="#FF9566"/>
<path d="M19.0186 27.8386C16.467 31.4178 13.5473 34.0366 11.0522 35.2452C14.6876 34.2323 20.1582 30.3501 21.0741 29.0264C22.2877 27.2727 22.4877 24.8635 22.0932 22.5354C21.3045 24.278 20.2698 26.0831 19.0186 27.8386Z" fill="#FF9566"/>
<path d="M8.56138 35.6805C13.6964 39.2325 25.5017 39.9274 25.5017 39.9274L27.093 34.8918C27.093 34.8918 19.6524 29.5275 17.3125 28.8193C14.9726 28.1111 5.09842 33.2852 8.56138 35.6805Z" fill="#FFB882"/>
<path d="M9.38974 33.4865C9.19696 33.3616 8.94588 32.8209 8.91405 31.5883C8.90761 31.3426 8.32925 32.0072 8.00878 32.4753C7.47585 33.3198 7.66256 35.0584 8.56138 35.6801C13.6964 39.2321 25.5017 39.927 25.5017 39.927C25.5017 39.927 13.9919 36.4637 9.38974 33.4865Z" fill="#FF9566"/>
<path d="M20.831 7.35054C19.4257 5.18092 20.1654 3.1837 21.4226 2.64111C21.4226 2.64111 21.7431 0.98905 23.0747 1.08777C23.0747 1.08777 23.4692 -0.120462 24.5787 0.150652C25.6882 0.421765 25.6141 1.99982 25.6141 1.99982L20.831 7.35054Z" fill="#723F35"/>
<path d="M23.2413 3.05104C22.7294 3.89872 21.6446 3.8862 21.5062 2.34966C21.4472 2.52098 21.4229 2.64116 21.4229 2.64116C20.1653 3.18374 19.4256 5.18061 20.8313 7.35059L24.6229 3.10935C24.4062 3.14083 23.3611 2.85254 23.2413 3.05104Z" fill="#592923"/>
<path d="M27.2467 3.61494C28.3788 1.64239 26.3776 -0.132727 25.2345 0.588693C24.7592 0.888778 22.7777 2.34521 21.646 8.26178L21.7329 8.57867C22.9318 5.41508 25.4133 2.3309 27.2467 3.61494Z" fill="#723F35"/>
<path d="M24.1597 42.0917L8.63822 38.7912C8.34565 39.1796 8.05915 39.5805 7.77588 39.9886L24.7881 43.5739C24.6765 43.0825 24.2791 42.5539 24.1597 42.0917Z" fill="#752F2F"/>
<path d="M3.62033 51.8311C3.62033 51.8311 0.978227 58.1246 2.80091 71.9507H10.0469C3.70904 59.4387 3.32418 55.8116 3.62033 51.8311Z" fill="#7F3636"/>
<path d="M24.3862 41.8457L9.01214 38.2761C8.63802 38.3037 8.11261 38.9439 8.16983 39.4461L24.7239 43.2896C24.9113 43.2781 24.6709 41.9469 24.3862 41.8457Z" fill="#FFC248"/>
<path d="M24.6043 68.991L1.23341 68.5132C0.949063 69.0039 1.03598 69.4424 1.39401 69.8433L24.238 70.3104C24.6293 69.9134 24.8507 69.4896 24.6043 68.991Z" fill="#FFC248"/>
<path d="M23.671 71.945C23.7396 71.2486 23.6563 70.5418 23.416 69.8941C23.1792 69.2435 22.8279 68.6412 22.4098 68.0925C21.5675 66.9913 20.517 66.067 19.4229 65.2097C17.2172 63.4904 14.8065 62.0315 12.4323 60.4899C11.238 59.7202 10.0434 58.9394 8.88098 58.0957C8.30155 57.6693 7.72749 57.2312 7.17203 56.7641C6.61979 56.2919 6.08185 55.7969 5.57217 55.2665C4.57499 54.191 3.65041 52.9656 3.16041 51.511C2.91469 50.7867 2.80202 50.0109 2.83672 49.2455C2.88035 48.479 3.06062 47.7275 3.36535 47.0405L3.42186 47.0634C2.97335 48.4879 2.99981 50.0299 3.55313 51.3572C4.09071 52.6863 4.98703 53.8301 5.99637 54.8287C6.49389 55.3359 7.02253 55.8127 7.56797 56.269C8.10948 56.7286 8.66387 57.174 9.23042 57.6035C10.356 58.4687 11.5231 59.2788 12.6941 60.0797C15.0311 61.6709 17.4286 63.053 19.6186 64.8374C20.698 65.7351 21.908 66.8368 22.7339 67.9834C23.1434 68.5546 23.485 69.1809 23.7082 69.853C23.9349 70.5222 23.9997 71.2472 23.9103 71.9511L23.671 71.945Z" fill="#8B933F"/>
<path d="M57.9381 72H54.7326C54.7326 72 54.5356 70.8411 54.9054 70.6437C55.2752 70.4466 57.9381 72 57.9381 72Z" fill="#FFB882"/>
<path d="M24.6304 72H27.7993C27.7993 72 27.6824 70.7943 27.2635 70.589C26.8447 70.3837 24.6304 72 24.6304 72Z" fill="#FFB882"/>
<path d="M35.1699 25.6053C34.0969 23.4993 32.5171 21.942 32.5171 21.942C32.5171 21.942 33.5597 24.3738 33.2875 26.1611L35.1699 25.6053Z" fill="#FF9566"/>
<path d="M43.6621 31.8223C43.3291 28.7524 38.0034 20.1351 38.0034 20.1351C38.0034 20.1351 42.4786 31.4524 41.813 34.596L43.6621 31.8223Z" fill="#F2C679"/>
<path d="M41.1968 54.4939C41.1968 54.4939 44.5499 61.3482 42.3782 64.7286C44.1951 63.867 45.8465 62.9485 47.2718 62.0822C44.5996 58.3896 41.1968 54.4939 41.1968 54.4939Z" fill="#F2C679"/>
<path d="M22.4594 41.3986L10.1352 38.5372C9.92307 38.9274 9.71491 39.3327 9.51318 39.7583L22.7688 42.836C22.6747 42.3414 22.571 41.8632 22.4594 41.3986Z" fill="#FFDB80"/>
<path d="M20.2184 68.9016L6.52393 68.6216C6.63051 69.0805 6.74389 69.5265 6.86693 69.9553L19.6475 70.2168C19.8432 69.7929 20.0342 69.3566 20.2184 68.9016Z" fill="#FFDB80"/>
<path d="M0.328613 52.5461C0.328613 52.5461 1.2607 52.007 1.59834 51.8926C1.86802 51.8014 2.75898 51.7452 2.75898 51.7452L3.25471 52.3819L3.39205 53.383L2.87486 54.1756L2.18921 54.4356C2.18921 54.4356 1.34296 53.8841 1.10511 53.643C0.871556 53.4063 0.328613 52.5461 0.328613 52.5461Z" fill="#AAAF4E"/>
<path d="M9.49338 61.7929L9.40539 61.6545C9.05846 62.2375 8.56201 62.5029 8.56201 62.5029L8.91539 62.7282C8.91539 62.7282 9.08349 62.0071 9.49338 61.7929Z" fill="#8B933F"/>
<path d="M13.6666 67.5231L13.8072 67.4386C13.2331 67.0774 12.9799 66.5745 12.9799 66.5745L12.7456 66.9222C12.7456 66.9222 13.4631 67.1078 13.6666 67.5231Z" fill="#8B933F"/>
<path d="M10.9309 68.0023L10.7739 68.0485C11.2385 68.5431 11.3566 69.0932 11.3566 69.0932L11.671 68.8157C11.671 68.8157 11.0232 68.4555 10.9309 68.0023Z" fill="#8B933F"/>
<path d="M9.7419 66.6088C9.7419 66.6088 10.5835 66.7912 10.8492 66.8989C11.0613 66.9847 11.6422 67.3939 11.6422 67.3939L11.6404 67.9633L11.2384 68.5431L10.5313 68.6944L9.97868 68.4905C9.97868 68.4905 9.72115 67.7923 9.69075 67.552C9.66071 67.3159 9.7419 66.6088 9.7419 66.6088Z" fill="#8B933F"/>
<path d="M14.8935 69.3175C14.8935 69.3175 14.9221 68.4076 14.886 68.1065C14.857 67.8661 14.6206 67.159 14.6206 67.159L14.1056 67.0024L13.4893 67.2513L13.1899 67.9312L13.2472 68.5525C13.2472 68.5525 13.8191 69.01 14.029 69.108C14.2358 69.2038 14.8935 69.3175 14.8935 69.3175Z" fill="#AAAF4E"/>
<path d="M11.219 60.7646C11.219 60.7646 10.3087 60.7406 10.0079 60.7785C9.76755 60.8086 9.06187 61.0489 9.06187 61.0489L8.90771 61.5647L9.15987 62.1799L9.84123 62.4757L10.4621 62.4152C10.4621 62.4152 10.9164 61.8408 11.0133 61.6305C11.1085 61.423 11.219 60.7646 11.219 60.7646Z" fill="#AAAF4E"/>
<path d="M5.60978 49.3449C5.60978 49.3449 4.75638 49.753 4.50708 49.9554C4.30786 50.1171 3.83252 50.8156 3.83252 50.8156L4.06286 51.6526L4.73778 52.438L5.57687 52.5428L6.10372 52.1508C6.10372 52.1508 6.1073 51.0814 6.04471 50.723C5.98283 50.3707 5.60978 49.3449 5.60978 49.3449Z" fill="#AAAF4E"/>
<path d="M19.8816 65.3428C15.7186 60.7664 13.9485 56.9432 14.3434 53.8226C14.5158 52.4598 15.1818 51.3622 16.2694 50.6475C18.261 49.3392 20.6759 50.0781 22.5945 50.4455C23.8932 50.6937 25.0628 50.87 25.8503 50.4827C26.026 50.5495 26.0481 50.6547 25.8722 50.8096C24.9977 51.2384 23.89 50.988 22.5401 50.7301C20.6763 50.3736 18.5635 49.9698 16.6697 51.213C15.6407 51.889 15.0358 52.888 14.872 54.182C14.4883 57.2179 16.5373 61.3744 20.6423 65.8868L19.8816 65.3428Z" fill="#8B933F"/>
<path d="M27.6382 13.2085C24.9095 14.6985 22.6108 14.574 23.3419 13.8977C24.0726 13.2213 27.6382 13.2085 27.6382 13.2085Z" fill="#FF9566"/>
<path d="M28.9849 12.8712C31.2275 12.6634 31.9263 12.0475 31.691 11.8636C31.3766 11.6179 28.9849 12.8712 28.9849 12.8712Z" fill="#FF9566"/>
<path d="M37.5474 23.5254C35.5133 19.3832 34.9214 14.0203 34.9214 14.0203C34.9214 14.0203 37.3625 17.9776 37.5474 23.5254Z" fill="#F2C679"/>
<path d="M28.3391 26.6704C28.2278 26.4343 27.6291 26.4218 27.0021 26.6421C26.3751 26.8625 25.957 27.2327 26.0682 27.4687C26.1794 27.7048 26.7782 27.7173 27.4052 27.497C28.0325 27.2766 28.4503 26.9065 28.3391 26.6704Z" fill="#FC8456"/>
<path opacity="0.6" d="M16.9604 14.8412C18.7742 15.3484 21.5193 15.2672 24.4855 14.4853C27.6369 13.6545 30.2064 12.2467 31.5258 10.8113L30.1256 9.96439L29.3916 6.55507C24.5777 10.2848 25.5957 6.4095 23.2801 6.95924C22.6449 7.11017 22.0272 7.28722 21.4328 7.48465L21.9646 9.4218C21.9646 9.4218 21.4753 10.3628 20.2667 12.4087C18.9588 13.1924 17.8167 14.0933 16.9604 14.8412Z" fill="#C94343"/>
<path d="M22.4816 7.60802C23.9312 8.6145 22.5535 8.5773 21.831 9.67213C21.831 9.67213 21.0284 10.204 20.5691 9.2093C20.1099 8.21462 20.0097 5.40049 21.5956 5.25492C23.1815 5.10899 22.4816 7.60802 22.4816 7.60802Z" fill="#592923"/>
<path d="M22.1372 5.96996C22.3836 10.1615 24.2332 10.8765 25.3673 11.1479C26.5015 11.4191 27.1918 10.3589 27.1918 10.3589C27.1918 10.3589 28.4494 11.2713 29.6082 10.3589C29.6082 10.3589 30.7177 11.3697 31.7042 10.3836C32.6903 9.39752 32.6412 8.41106 32.4438 7.77012C32.4438 7.77012 33.1094 7.22753 32.6409 6.36483C32.1723 5.50177 31.6054 5.79791 31.6054 5.79791C31.6054 5.79791 30.311 4.39263 29.4233 5.74855C29.4233 5.74855 27.7515 5.78219 26.1932 6.89526C25.848 7.1417 25.0465 6.30332 24.5289 4.24457C23.7324 1.07848 22.1372 5.96996 22.1372 5.96996Z" fill="#723F35"/>
<path d="M30.4255 8.96249C29.2144 9.78441 27.9003 8.77401 27.9003 8.77401C27.9003 8.77401 27.1789 9.78048 25.9936 9.42067C24.8694 9.07945 22.9094 7.90344 22.507 4.23125C22.1912 4.91511 22.1372 5.96952 22.1372 5.96952C22.3836 10.161 24.0604 11.0241 25.1946 11.2952C26.3287 11.5663 27.2412 10.5802 27.2412 10.5802C27.2412 10.5802 28.4 11.3814 29.5589 10.4694C29.5589 10.4694 30.8286 11.4186 31.815 10.4325C32.1824 10.0648 32.295 9.64814 32.4209 9.2987C31.4441 9.92677 30.4255 8.96249 30.4255 8.96249Z" fill="#592923"/>
<path d="M22.9675 6.85653C22.1852 7.4077 21.4456 6.98922 21.8118 6.34077C21.9399 6.114 22.1119 6.03603 22.2811 6.03066C22.6227 6.01993 22.9049 6.29929 22.9431 6.63908L22.9675 6.85653Z" fill="#FFB882"/>
<path d="M32.8055 6.91522C32.5919 7.69566 31.7299 7.79116 30.9771 7.27647C30.9771 7.27647 31.3716 8.41064 32.5569 8.43246C32.5486 8.18674 32.5032 7.96211 32.4439 7.76969C32.4439 7.76969 32.8326 7.45137 32.8055 6.91522Z" fill="#592923"/>
<path d="M26.3657 8.05332C28.03 8.05332 27.648 9.34772 27.1547 9.77943L28.5493 9.21609C28.5218 7.88198 27.3343 7.64843 26.3657 8.05332Z" fill="#592923"/>
<path d="M25.0837 7.04574C24.3018 8.51719 23.339 7.56864 23.1898 6.92949L23.0317 8.42813C24.2224 9.03259 24.986 8.09264 25.0837 7.04574Z" fill="#592923"/>
<path d="M24.1265 4.96839C22.5946 5.61756 22.4823 4.50056 22.7813 3.98552L21.6997 4.95086C22.204 5.93767 23.3804 5.64904 24.1265 4.96839Z" fill="#592923"/>
<path d="M22.6645 6.71819C22.2618 7.00182 21.8812 6.78652 22.0697 6.45282C22.1355 6.33586 22.2242 6.29579 22.3111 6.29328C22.4871 6.28792 22.6323 6.4317 22.652 6.60624L22.6645 6.71819Z" fill="#EA7B59"/>
<path d="M22.7347 6.77714C22.4743 6.96062 22.2283 6.82148 22.3499 6.60544C22.3924 6.52998 22.4497 6.50389 22.5062 6.5021C22.6199 6.49852 22.714 6.59151 22.7265 6.70453L22.7347 6.77714Z" fill="#FFB882"/>
<path d="M1.58051 71.9507C0.908093 68.1526 1.52722 65.2179 3.16821 63.6406C4.46297 62.3963 6.38831 62.0422 8.89128 62.588C11.8106 63.2246 12.7877 64.7862 12.9952 65.6485C13.2863 66.8593 12.7727 68.3096 11.8192 69.0908C11.1507 69.6384 10.229 69.6892 9.53938 69.3701C7.75139 68.5421 7.6516 66.954 8.02071 66.0888C8.29755 65.4397 8.82797 65.1192 9.30797 65.3066L9.27613 65.3882C8.89271 65.2372 8.32509 65.675 8.1459 66.0949C7.75675 67.0073 8.16235 68.413 9.66134 69.1069C10.2468 69.3783 10.9146 69.2617 11.4933 68.7867C12.3639 68.0735 12.7863 66.8024 12.5202 65.6961C12.1897 64.3209 10.8788 63.3176 8.82976 62.8705C6.42658 62.3473 4.58994 62.676 3.36922 63.8491C1.80012 65.3574 1.67065 68.2506 2.32518 71.9507H1.58051Z" fill="#8B933F"/>
<path d="M5.10554 61.7249C4.26001 61.7249 3.18629 61.4012 2.72132 60.5593C2.22737 59.6651 2.413 58.2756 3.01711 57.5881C4.07045 56.3896 5.8892 56.3209 8.97159 57.5388L9.48556 58.2773C5.27937 56.6156 3.7464 57.474 3.28822 57.9948C2.76567 58.5892 2.72203 59.6544 3.15624 60.4398C3.77966 61.5683 5.40384 61.6022 6.33628 61.1934C6.54945 61.0997 7.37889 60.712 7.19648 60.1648C6.95291 59.4344 6.48114 58.8181 6.07447 58.6854C5.83805 58.6078 5.46893 58.698 5.23502 58.8639L5.16456 58.7649C5.47287 58.5453 5.80693 58.4852 6.13027 58.591C6.62635 58.7527 7.05019 59.2935 7.32309 60.1133C7.49585 60.6319 7.16214 61.1473 6.45217 61.4585C6.08377 61.6201 5.6027 61.7249 5.10554 61.7249Z" fill="#8B933F"/>
<path d="M14.6615 56.2207C13.68 53.8569 14.2959 51.689 14.7909 49.9475C15.1776 48.5866 15.5117 47.4113 15.0059 46.5225C14.6325 45.8662 13.7995 45.374 12.4593 45.0178C10.9267 44.6111 9.8222 44.8969 9.41446 45.9502C8.87652 47.3401 9.70882 49.6449 10.6262 50.121C11.1728 50.4046 11.5998 50.3921 11.8945 50.0827C12.4282 49.5226 12.5333 48.1184 12.2254 47.5898C12.1349 47.4346 11.8638 47.3423 11.7636 47.3694L11.7221 47.2028C11.8577 47.1688 12.1174 47.1667 12.3313 47.534C12.6882 48.1467 12.6385 49.4751 11.9915 50.1543C11.7207 50.4393 11.3165 50.6901 10.4749 50.253C9.42912 49.7104 8.49632 47.3552 9.1065 45.7778C9.37404 45.0865 10.3126 43.9215 12.5709 44.5203C14.0098 44.9026 14.8385 45.6416 15.2581 46.3791C15.8239 47.3734 15.4745 48.6031 15.0699 50.0266C14.562 51.8135 13.9869 53.839 14.9294 56.1098L14.6615 56.2207Z" fill="#8B933F"/>
<path d="M15.0128 43.2956C14.7556 43.2956 14.4767 43.2545 14.1816 43.1708C12.2591 42.6267 10.1067 40.4571 9.71143 37.3636C9.7429 36.8947 9.86844 36.7957 10.0709 37.0002C10.45 39.9693 12.4655 42.1868 14.2964 42.7051C15.094 42.9304 15.7664 42.9808 16.1087 42.557C16.7493 41.7626 16.671 40.8867 16.2568 40.5043C16.0218 40.2879 15.491 40.1338 15.1012 40.5043L14.9828 40.4453C15.4835 39.9693 16.0518 40.073 16.3927 40.3877C16.9063 40.8613 17.0326 41.8288 16.28 42.7616C15.9964 43.1135 15.5536 43.2956 15.0128 43.2956Z" fill="#8B933F"/>
<path d="M20.6876 50.3557C20.6024 50.3557 20.5155 50.3532 20.4268 50.3482L20.4433 50.0592C22.3575 50.1665 23.3844 48.9701 23.6827 47.9099C23.9763 46.867 23.6355 45.878 22.835 45.4492C21.747 44.8662 20.6021 44.8254 19.9189 45.3454C19.4615 45.6934 19.2923 46.2518 19.4425 46.917C19.5813 47.5322 20.2011 47.6528 20.4612 47.676C21.0391 47.7293 21.547 47.5111 21.6433 47.2844C21.6901 47.1735 21.6336 47.0476 21.4751 46.911L21.5453 46.7765C21.8922 47.0762 21.8614 47.2207 21.8042 47.3559C21.6257 47.7776 21.0084 47.8788 20.4232 47.8244C19.7401 47.7633 19.367 47.4514 19.2397 46.8874C19.063 46.1048 19.1428 45.3604 19.6957 44.9395C20.469 44.3511 21.8486 44.3518 23.0367 44.9888C23.9602 45.4835 24.2932 46.8115 23.962 47.9883C23.6484 49.1017 22.6061 50.3557 20.6876 50.3557Z" fill="#8B933F"/>
<path d="M22.2148 64.0358C20.5473 64.0358 18.3645 62.6166 16.2321 60.1107L16.0024 59.336C18.3219 62.0615 21.12 64.0558 22.7324 63.6903C23.4641 63.524 23.9685 62.991 24.1906 62.1494C24.6108 60.5589 23.9052 59.2301 23.0718 58.669C22.4587 58.2555 21.7738 58.1832 21.2362 58.5867C20.3578 59.2452 20.1843 60.4691 20.5552 61.095C20.7938 61.4974 21.203 61.5933 21.7062 61.3644L21.7527 61.4663C21.115 61.7556 20.7126 61.5951 20.3978 61.0646C19.955 60.3175 20.0716 59.1836 21.0874 58.4214C21.7198 57.9468 22.522 57.9493 23.2331 58.4286C24.1491 59.0452 24.9267 60.4963 24.4703 62.2238C24.2224 63.1627 23.6276 63.784 22.796 63.9728C22.6111 64.015 22.4169 64.0358 22.2148 64.0358Z" fill="#8B933F"/>
<path d="M4.31105 53.4212C4.31105 53.4212 3.36179 53.4334 2.90576 53.3103L2.99196 53.3597C4.08929 53.594 4.81643 54.2228 4.81643 54.2228L4.31105 53.4212Z" fill="#8B933F"/>
<path d="M4.61865 53.5321C4.61865 53.5321 4.71022 52.286 4.74205 51.8185L4.84935 51.9741C4.63224 53.3472 5.04607 53.8676 5.04607 53.8676L4.61865 53.5321Z" fill="#8B933F"/>
<path d="M27.3249 53.7392C27.3249 53.7392 27.5045 52.7256 27.5009 52.3851C27.4981 52.1132 27.2802 51.2963 27.2802 51.2963L26.5924 51.0635L25.7022 51.2724L25.1839 51.9984L25.1675 52.6991C25.1675 52.6991 25.8878 53.2742 26.1629 53.4076C26.4333 53.5382 27.3249 53.7392 27.3249 53.7392Z" fill="#AAAF4E"/>
<path d="M25.1656 50.8296C25.1656 50.8296 25.8273 51.3425 26.0769 51.5328L25.9181 51.5571C25.2636 50.9054 24.6978 51.0277 24.6978 51.0277L25.1656 50.8296Z" fill="#8B933F"/>
<path d="M16.7515 43.394C16.7515 43.394 16.9822 44.3972 17.1184 44.7095C17.2272 44.9588 17.7469 45.6255 17.7469 45.6255L18.4711 45.5715L19.209 45.0314L19.4025 44.1605L19.1439 43.5091C19.1439 43.5091 18.2562 43.2609 17.9507 43.2459C17.6506 43.2305 16.7515 43.394 16.7515 43.394Z" fill="#AAAF4E"/>
<path d="M19.876 45.2288C19.876 45.2288 19.0666 45.0153 18.7622 44.9373L18.8988 44.8529C19.7558 45.197 20.229 44.8636 20.229 44.8636L19.876 45.2288Z" fill="#8B933F"/>
<path d="M20.3035 53.8419C20.3035 53.8419 20.8621 52.977 20.9909 52.6619C21.0939 52.4101 21.2098 51.5728 21.2098 51.5728L20.6661 51.0914L19.7644 50.9387L19.0051 51.4069L18.7183 52.0464C18.7183 52.0464 19.1589 52.8558 19.361 53.0854C19.5595 53.3107 20.3035 53.8419 20.3035 53.8419Z" fill="#AAAF4E"/>
<path d="M19.441 50.3224C19.441 50.3224 19.852 51.0517 20.0083 51.3243L19.8527 51.2853C19.5022 50.4308 18.9331 50.3239 18.9331 50.3239L19.441 50.3224Z" fill="#8B933F"/>
<path d="M11.2554 55.745C11.2554 55.745 12.0737 55.1778 12.3756 55.0397C12.6167 54.9295 13.4293 54.77 13.4293 54.77L13.9254 55.2379L14.1171 56.0551L13.6954 56.7812L13.0845 57.0849C13.0845 57.0849 12.2729 56.7322 12.039 56.5616C11.8094 56.3935 11.2554 55.745 11.2554 55.745Z" fill="#AAAF4E"/>
<path d="M14.7344 56.3119C14.7344 56.3119 14.0026 55.9814 13.729 55.8551L13.7744 55.9953C14.6257 56.2625 14.7569 56.7775 14.7569 56.7775L14.7344 56.3119Z" fill="#8B933F"/>
<path d="M24.2718 56.3787C24.2718 56.3787 23.6219 56.7299 23.4294 56.8834C23.2756 57.0061 22.8979 57.4903 22.8979 57.4903L23.0414 57.9757L23.5178 58.377L24.1394 58.3416L24.5454 58.039C24.5454 58.039 24.584 57.3834 24.5493 57.1713C24.515 56.9631 24.2718 56.3787 24.2718 56.3787Z" fill="#AAAF4E"/>
<path d="M23.481 58.8721C23.481 58.8721 23.5074 58.2766 23.5157 58.0534L23.5933 58.1306C23.4849 58.7838 23.7814 59.0434 23.7814 59.0434L23.481 58.8721Z" fill="#8B933F"/>
<path d="M18.1313 59.2427C18.1313 59.2427 18.6972 59.7176 18.9107 59.8403C19.0813 59.9383 19.6708 60.1114 19.6708 60.1114L20.0696 59.7996L20.2674 59.209L20.0055 58.6439L19.5749 58.3778C19.5749 58.3778 18.9511 58.5831 18.7666 58.6933C18.5849 58.8013 18.1313 59.2427 18.1313 59.2427Z" fill="#AAAF4E"/>
<path d="M20.7403 59.0605C20.7403 59.0605 20.177 59.2551 19.9663 59.3295L20.0096 59.229C20.657 59.0895 20.7893 58.7179 20.7893 58.7179L20.7403 59.0605Z" fill="#8B933F"/>
<path d="M21.9221 60.5496C21.9221 60.5496 21.4224 60.2334 21.2808 60.0968C21.1678 59.9873 20.9146 59.5588 20.9146 59.5588L21.1005 59.1361L21.5555 58.7916L22.0741 58.831L22.3749 59.101C22.3749 59.101 22.3195 59.6751 22.2619 59.86C22.2054 60.0417 21.9221 60.5496 21.9221 60.5496Z" fill="#AAAF4E"/>
<path d="M21.5911 58.3582C21.5911 58.3582 21.5335 58.8793 21.5103 59.075L21.5861 59.0084C21.5825 58.4355 21.8672 58.2126 21.8672 58.2126L21.5911 58.3582Z" fill="#8B933F"/>
<path d="M8.80807 52.4054C8.80807 52.4054 9.58958 52.2627 9.83459 52.1686C10.0306 52.0935 10.5624 51.7162 10.5624 51.7162L10.546 51.1561L10.1554 50.5684L9.49086 50.3889L8.97975 50.5656C8.97975 50.5656 8.75764 51.2412 8.73511 51.4758C8.71365 51.7065 8.80807 52.4054 8.80807 52.4054Z" fill="#AAAF4E"/>
<path d="M10.331 50.0612C10.331 50.0612 10.1382 50.6779 10.0678 50.9096L10.0073 50.8016C10.3024 50.1531 10.062 49.7765 10.062 49.7765L10.331 50.0612Z" fill="#8B933F"/>
<path d="M7.27329 43.6898C7.27329 43.6898 7.25433 44.4838 7.29654 44.7431C7.33052 44.9502 7.59161 45.5479 7.59161 45.5479L8.1435 45.6455L8.79839 45.3826L9.10921 44.7685L9.04018 44.2323C9.04018 44.2323 8.42391 43.8775 8.19858 43.8078C7.97647 43.7395 7.27329 43.6898 7.27329 43.6898Z" fill="#AAAF4E"/>
<path d="M9.25879 45.6577C9.25879 45.6577 8.69439 45.3437 8.48193 45.2275L8.59997 45.1903C9.1751 45.6112 9.5925 45.4521 9.5925 45.4521L9.25879 45.6577Z" fill="#8B933F"/>
<path d="M11.3824 47.7336C11.3824 47.7336 10.6302 47.7886 10.3802 47.7586C10.1806 47.7346 9.59115 47.5032 9.59115 47.5032L9.45166 46.9614L9.64552 46.3015L10.2021 45.9656L10.7171 46.0092C10.7171 46.0092 11.1066 46.603 11.1917 46.823C11.2754 47.0393 11.3824 47.7336 11.3824 47.7336Z" fill="#AAAF4E"/>
<path d="M9.34521 45.8576C9.34521 45.8576 9.69144 46.4019 9.81984 46.6069L9.84488 46.4881C9.39636 45.938 9.51189 45.5178 9.51189 45.5178L9.34521 45.8576Z" fill="#8B933F"/>
<path d="M14.3062 40.3753C14.3062 40.3753 13.9524 41.0416 13.794 41.2369C13.6674 41.3932 13.158 41.7691 13.158 41.7691L12.6251 41.5989L12.1694 41.0835L12.1816 40.4336L12.4928 40.0208C12.4928 40.0208 13.2027 40.0072 13.4342 40.0523C13.662 40.0966 14.3062 40.3753 14.3062 40.3753Z" fill="#AAAF4E"/>
<path d="M11.6336 41.1018C11.6336 41.1018 12.2784 41.0985 12.5206 41.0989L12.4337 41.0145C11.7294 41.1014 11.4351 40.7799 11.4351 40.7799L11.6336 41.1018Z" fill="#8B933F"/>
<path d="M18.9165 47.94C18.9165 47.94 18.248 48.1449 18.0434 48.2526C17.88 48.3384 17.4536 48.7229 17.4536 48.7229L17.5255 49.2108L17.9272 49.6843L18.5266 49.773L18.9551 49.5663C18.9551 49.5663 19.0803 48.9529 19.0756 48.7454C19.0706 48.5412 18.9165 47.94 18.9165 47.94Z" fill="#AAAF4E"/>
<path d="M17.8257 50.1453C17.8257 50.1453 17.9308 49.5866 17.9688 49.3767L18.0324 49.465C17.8411 50.0623 18.0896 50.3667 18.0896 50.3667L17.8257 50.1453Z" fill="#8B933F"/>
<path d="M26.9989 44.4311C26.9989 44.4311 26.0289 44.086 25.6927 44.033C25.4241 43.9908 24.5825 44.0702 24.5825 44.0702L24.2388 44.7101L24.2971 45.6229L24.9273 46.2545L25.6154 46.3869C25.6154 46.3869 26.3022 45.772 26.4789 45.5224C26.653 45.277 26.9989 44.4311 26.9989 44.4311Z" fill="#AAAF4E"/>
<path d="M23.772 46.0789C23.772 46.0789 24.3872 45.5113 24.6164 45.2964L24.6143 45.457C23.8632 45.9945 23.89 46.5729 23.89 46.5729L23.772 46.0789Z" fill="#8B933F"/>
<path d="M54.7735 20.449C53.3242 15.8315 55.4863 16.2804 55.3504 15.657C55.2671 15.2746 52.807 15.1949 51.656 17.1385C50.8517 18.4969 49.8888 23.1612 52.4969 23.9066C53.7617 24.2682 55.4513 22.6087 54.7735 20.449Z" fill="#7D358E"/>
<path d="M51.8481 23.1194C51.8742 22.8375 51.6664 22.5875 51.3845 22.5618C51.1027 22.536 50.8527 22.7435 50.8269 23.0253C50.8008 23.3075 51.0086 23.5572 51.2905 23.5829C51.5723 23.6087 51.822 23.4016 51.8481 23.1194Z" fill="#7D358E"/>
<path d="M51.5395 22.1812C51.5656 21.899 51.3578 21.6494 51.0759 21.6236C50.7941 21.5979 50.5441 21.8053 50.5183 22.0872C50.4922 22.3694 50.7 22.619 50.9819 22.6448C51.2637 22.6709 51.5134 22.4634 51.5395 22.1812Z" fill="#7D358E"/>
<path d="M51.4867 21.2667C51.5128 20.9845 51.305 20.7348 51.0232 20.709C50.7414 20.6829 50.4913 20.8908 50.4656 21.1726C50.4395 21.4548 50.6473 21.7045 50.9291 21.7302C51.211 21.7563 51.4606 21.5485 51.4867 21.2667Z" fill="#7D358E"/>
<path d="M51.5336 20.2066C51.5597 19.9244 51.3523 19.6747 51.0701 19.6486C50.7882 19.6225 50.5382 19.8303 50.5125 20.1121C50.4864 20.3943 50.6942 20.644 50.976 20.6698C51.2578 20.6962 51.5075 20.4884 51.5336 20.2066Z" fill="#7D358E"/>
<path d="M51.6332 19.306C51.6593 19.0238 51.4519 18.7741 51.1697 18.748C50.8878 18.7219 50.6378 18.9297 50.6121 19.2115C50.586 19.4937 50.7938 19.7434 51.0756 19.7695C51.3575 19.7956 51.6071 19.5878 51.6332 19.306Z" fill="#7D358E"/>
<path d="M51.8393 18.3806C51.8654 18.0984 51.6576 17.8487 51.3757 17.823C51.0939 17.7972 50.8439 18.0047 50.8181 18.2865C50.792 18.5684 50.9998 18.8184 51.2817 18.8441C51.5635 18.8702 51.8132 18.6628 51.8393 18.3806Z" fill="#7D358E"/>
<path d="M52.1821 17.4511C52.2082 17.1689 52.0004 16.9192 51.7185 16.8935C51.4367 16.8674 51.1867 17.0752 51.1609 17.357C51.1348 17.6389 51.3426 17.8889 51.6244 17.9146C51.9063 17.9404 52.1563 17.7329 52.1821 17.4511Z" fill="#7D358E"/>
<path d="M52.7621 16.749C52.7882 16.4668 52.5804 16.2171 52.2985 16.1913C52.0167 16.1652 51.7667 16.3731 51.7409 16.6549C51.7152 16.9367 51.9223 17.1867 52.2045 17.2125C52.4863 17.2386 52.736 17.0312 52.7621 16.749Z" fill="#7D358E"/>
<path d="M53.4653 16.196C53.4914 15.9138 53.2836 15.6641 53.0017 15.6383C52.7199 15.6122 52.4699 15.8197 52.4441 16.1019C52.418 16.3841 52.6258 16.6338 52.9077 16.6595C53.1895 16.6856 53.4391 16.4778 53.4653 16.196Z" fill="#7D358E"/>
<path d="M54.7709 17.4836C54.797 17.2018 54.5892 16.9518 54.3074 16.926C54.0255 16.9003 53.7755 17.1077 53.7498 17.3896C53.7237 17.6718 53.9315 17.9214 54.2133 17.9472C54.4955 17.9733 54.7452 17.7658 54.7709 17.4836Z" fill="#7D358E"/>
<path d="M54.8481 18.5037C54.8742 18.2215 54.6664 17.9719 54.3845 17.9457C54.1023 17.9196 53.8527 18.1274 53.8269 18.4093C53.8008 18.6915 54.0086 18.9411 54.2905 18.9669C54.5723 18.9933 54.8223 18.7859 54.8481 18.5037Z" fill="#7D358E"/>
<path d="M55.1449 19.3893C55.1711 19.1074 54.9632 18.8574 54.6814 18.8317C54.3996 18.8056 54.1495 19.0134 54.1238 19.2952C54.0977 19.5774 54.3055 19.8271 54.5873 19.8528C54.8692 19.8786 55.1188 19.6715 55.1449 19.3893Z" fill="#7D358E"/>
<path d="M55.3119 20.3661C55.338 20.0839 55.1302 19.8343 54.8484 19.8085C54.5666 19.7824 54.3165 19.9902 54.2908 20.2721C54.2647 20.5543 54.4725 20.8039 54.7543 20.8297C55.0362 20.8554 55.2858 20.6484 55.3119 20.3661Z" fill="#7D358E"/>
<path d="M55.3432 21.3304C55.3693 21.0482 55.1615 20.7985 54.8796 20.7724C54.5974 20.7463 54.3478 20.9541 54.322 21.2359C54.2959 21.5182 54.5034 21.7678 54.7856 21.7939C55.0674 21.82 55.3174 21.6126 55.3432 21.3304Z" fill="#7D358E"/>
<path d="M55.1381 22.2556C55.1642 21.9734 54.9564 21.7237 54.6746 21.698C54.3924 21.6719 54.1427 21.8793 54.117 22.1615C54.0909 22.4437 54.2987 22.6934 54.5805 22.7191C54.8623 22.7449 55.112 22.5378 55.1381 22.2556Z" fill="#7D358E"/>
<path d="M54.7739 23.0461C54.8 22.7639 54.5922 22.5142 54.3103 22.4885C54.0281 22.4624 53.7785 22.6701 53.7527 22.952C53.7266 23.2342 53.9344 23.4839 54.2162 23.5096C54.4981 23.5357 54.7477 23.3279 54.7739 23.0461Z" fill="#7D358E"/>
<path d="M54.0687 23.6163C54.0948 23.3341 53.887 23.0844 53.6052 23.0587C53.3233 23.0325 53.0733 23.2404 53.0476 23.5222C53.0218 23.804 53.2293 24.054 53.5111 24.0798C53.793 24.1055 54.0426 23.8981 54.0687 23.6163Z" fill="#7D358E"/>
<path d="M53.3123 23.9929C53.3384 23.7107 53.1306 23.461 52.8488 23.4352C52.5666 23.4091 52.3169 23.6169 52.2908 23.8988C52.2647 24.181 52.4725 24.4306 52.7543 24.4568C53.0365 24.4825 53.2862 24.2751 53.3123 23.9929Z" fill="#7D358E"/>
<path d="M52.5561 23.6313C52.5822 23.3491 52.3744 23.0994 52.0925 23.0736C51.8107 23.0475 51.5607 23.2553 51.5349 23.5372C51.5088 23.8194 51.7166 24.069 51.9985 24.0948C52.2803 24.1205 52.53 23.9135 52.5561 23.6313Z" fill="#7D358E"/>
<path d="M53.3045 23.3334C53.331 23.048 53.1511 22.7979 52.9032 22.775C52.6553 22.7522 52.4329 22.9653 52.4064 23.2508C52.3799 23.5362 52.5598 23.7862 52.8077 23.8091C53.0559 23.832 53.2784 23.6188 53.3045 23.3334Z" fill="#9347A5"/>
<path d="M53.5707 22.0768C53.5968 21.7946 53.389 21.5449 53.1072 21.5192C52.8253 21.4934 52.5753 21.7009 52.5496 21.9827C52.5235 22.2649 52.7309 22.5145 53.0131 22.5403C53.295 22.5664 53.5446 22.359 53.5707 22.0768Z" fill="#9347A5"/>
<path d="M54.6752 22.2431C54.7013 21.9609 54.4935 21.7112 54.2117 21.6855C53.9298 21.6594 53.6798 21.8672 53.6541 22.149C53.628 22.4312 53.8354 22.6809 54.1176 22.7066C54.3995 22.7327 54.6495 22.5249 54.6752 22.2431Z" fill="#9347A5"/>
<path d="M54.6806 20.517C54.6309 20.2287 54.4027 20.0273 54.1709 20.0674C53.9392 20.1074 53.7915 20.3732 53.8412 20.6615C53.8909 20.9498 54.1191 21.1511 54.3509 21.1111C54.5826 21.071 54.7303 20.8049 54.6806 20.517Z" fill="#9347A5"/>
<path d="M52.2895 22.7997C52.3156 22.5179 52.1078 22.2678 51.8259 22.2421C51.5437 22.216 51.2941 22.4238 51.2683 22.7056C51.2422 22.9875 51.4497 23.2375 51.7319 23.2632C52.0137 23.2894 52.2634 23.0819 52.2895 22.7997Z" fill="#9347A5"/>
<path d="M51.8949 20.1883C51.9211 19.9061 51.7136 19.6564 51.4314 19.6307C51.1492 19.6046 50.8995 19.8124 50.8738 20.0942C50.8477 20.376 51.0555 20.6261 51.3373 20.6518C51.6195 20.6779 51.8692 20.4705 51.8949 20.1883Z" fill="#9347A5"/>
<path d="M51.4651 21.1684C51.4847 20.9559 51.3163 20.7667 51.0888 20.7456C50.8613 20.7245 50.661 20.8797 50.6417 21.0922C50.622 21.3047 50.7905 21.4939 51.018 21.515C51.2451 21.5361 51.4454 21.3808 51.4651 21.1684Z" fill="#9347A5"/>
<path d="M52.502 21.1801C52.5263 20.9168 52.3614 20.6865 52.1343 20.6654C51.9068 20.6443 51.703 20.8407 51.6786 21.1039C51.6543 21.3671 51.8192 21.5975 52.0463 21.6186C52.2738 21.6393 52.4777 21.443 52.502 21.1801Z" fill="#9347A5"/>
<path d="M53.1255 19.5259C53.0464 19.2687 52.7957 19.1178 52.5654 19.1886C52.3354 19.2594 52.2131 19.5252 52.2921 19.7823C52.3711 20.0395 52.6219 20.1905 52.8519 20.1196C53.0822 20.0488 53.2045 19.7827 53.1255 19.5259Z" fill="#9347A5"/>
<path d="M53.5356 20.7094C53.4566 20.4522 53.2059 20.3013 52.9755 20.3721C52.7455 20.4429 52.6232 20.7087 52.7023 20.9658C52.7813 21.223 53.032 21.3739 53.262 21.3031C53.4923 21.2323 53.6147 20.9666 53.5356 20.7094Z" fill="#9347A5"/>
<path d="M54.2729 18.9961C54.1939 18.739 53.9432 18.588 53.7128 18.6589C53.4828 18.7297 53.3605 18.9954 53.4396 19.2526C53.5186 19.5098 53.7693 19.6607 53.9997 19.5899C54.2297 19.5194 54.3523 19.2533 54.2729 18.9961Z" fill="#9347A5"/>
<path d="M52.727 17.5011C52.7531 17.2189 52.5453 16.9693 52.2634 16.9431C51.9816 16.917 51.7316 17.1249 51.7058 17.4067C51.6797 17.6889 51.8872 17.9385 52.1694 17.9647C52.4512 17.9908 52.7012 17.7833 52.727 17.5011Z" fill="#9347A5"/>
<path d="M53.1674 18.4861C53.1935 18.2039 52.9857 17.9543 52.7039 17.9285C52.4217 17.9024 52.172 18.1102 52.1463 18.3921C52.1201 18.6743 52.328 18.9239 52.6098 18.95C52.8916 18.9762 53.1413 18.768 53.1674 18.4861Z" fill="#9347A5"/>
<path d="M51.9397 18.5302C51.9622 18.2873 51.787 18.0724 51.5488 18.0506C51.3106 18.0287 51.0992 18.2076 51.0767 18.4508C51.0541 18.6937 51.2294 18.9086 51.4676 18.9304C51.7058 18.9522 51.9172 18.773 51.9397 18.5302Z" fill="#9347A5"/>
<path d="M53.7269 13.9272L53.5181 13.8178C54.0131 14.3139 54.2663 14.9169 54.2663 14.9169L54.7964 15.3136L53.7269 13.9272Z" fill="#8B933F"/>
<path d="M56.3808 18.9984C56.3808 18.9984 56.8633 17.7258 56.942 17.2826C57.005 16.9285 56.9227 15.8144 56.9227 15.8144L56.0865 15.343L54.8786 15.3956L54.027 16.2114L53.8335 17.1174C53.8335 17.1174 54.6279 18.0416 54.9526 18.282C55.272 18.5184 56.3808 18.9984 56.3808 18.9984Z" fill="#8B933F"/>
<path d="M54.2902 14.6884C54.2902 14.6884 55.0238 15.5171 55.3017 15.8258L55.0896 15.8187C54.3993 14.8115 53.6343 14.8311 53.6343 14.8311L54.2902 14.6884Z" fill="#8B933F"/>
<path d="M55.2873 16.891C55.9657 16.9535 56.5813 16.8255 56.9619 16.5798C56.9511 16.1935 56.9229 15.814 56.9229 15.814L56.0866 15.3426L54.8788 15.3952L54.0272 16.211L53.9692 16.4832C54.3054 16.6914 54.7672 16.843 55.2873 16.891Z" fill="#AAAF4E"/>
<path d="M49.8872 16.6881C49.8872 16.6881 50.2924 15.3865 50.5049 14.9895C50.6748 14.6722 51.4341 13.8521 51.4341 13.8521L52.398 14.0113L53.3334 14.816L53.5083 15.9931L53.0994 16.8247C53.0994 16.8247 51.8877 17.0464 51.4778 17.0296C51.0747 17.0128 49.8872 16.6881 49.8872 16.6881Z" fill="#8B933F"/>
<path d="M52.7556 12.6275C52.7556 12.6275 53.4634 12.8514 53.6884 12.9662C53.8683 13.0578 54.368 13.4627 54.368 13.4627L54.3887 13.9648L54.0768 14.4462L53.4942 14.5267L53.026 14.3053C53.026 14.3053 52.7846 13.6701 52.7495 13.4558C52.7155 13.2452 52.7556 12.6275 52.7556 12.6275Z" fill="#8B933F"/>
<path d="M54.2454 14.6347C54.2454 14.6347 53.1416 14.82 52.7271 14.8862L52.9016 15.0146C54.0815 14.6623 54.6828 15.1609 54.6828 15.1609L54.2454 14.6347Z" fill="#8B933F"/>
<path d="M54.2648 14.1558L54.3886 13.9648L54.3678 13.4627C54.3678 13.4627 53.8685 13.0581 53.6883 12.9662C53.4629 12.8514 52.7555 12.6275 52.7555 12.6275C52.7555 12.6275 52.7154 13.2452 52.7497 13.4558C52.7537 13.4805 52.7608 13.5116 52.7698 13.546C52.8714 13.6486 52.988 13.7452 53.1185 13.8314C53.5026 14.0843 53.9218 14.1919 54.2648 14.1558Z" fill="#AAAF4E"/>
<path d="M53.4198 16.1745L53.5089 15.9931L53.334 14.816L52.3983 14.0113L51.4344 13.8521C51.4344 13.8521 50.6751 14.6726 50.5052 14.9895C50.5023 14.9945 50.4994 15.0017 50.4966 15.007C50.6951 15.3068 50.992 15.6026 51.3664 15.8461C52.1354 16.3469 52.9756 16.4642 53.4198 16.1745Z" fill="#AAAF4E"/>
<path d="M55.5903 16.1405L55.312 16.353L56.145 18.3595L55.5903 16.1405Z" fill="#AAAF4E"/>
<path d="M51.8809 15.4867L51.6413 15.4059L50.1187 16.5057L51.8809 15.4867Z" fill="#AAAF4E"/>
<path d="M51.6707 15.5047L51.5473 15.3222L50.2446 15.6052L51.6707 15.5047Z" fill="#AAAF4E"/>
<path d="M51.7836 15.432L51.5923 15.5404L51.7697 16.8616L51.7836 15.432Z" fill="#AAAF4E"/>
<path d="M55.519 16.5726L55.5161 16.7743L56.7272 17.1087L55.519 16.5726Z" fill="#AAAF4E"/>
<path d="M55.4344 16.6527L55.2774 16.5247L54.2612 17.2644L55.4344 16.6527Z" fill="#AAAF4E"/>
<path d="M26.2517 2.93724C25.5213 2.93724 24.6472 3.306 24.5073 4.18802C25.3958 3.39006 26.4623 3.14612 27.2782 3.6397C28.0404 1.93433 26.5046 1.21722 26.5046 1.21722C27.158 1.61495 27.118 2.93724 26.2517 2.93724Z" fill="#592923"/>
<path d="M25.895 36.021C25.889 36.6012 28.0757 38.783 29.3372 39.4836C30.4872 40.1224 31.3416 38.4153 30.4314 37.1345C30.0297 36.569 28.2846 35.1555 27.5081 34.8994C26.732 34.6437 25.895 36.021 25.895 36.021Z" fill="#FF9566"/>
<path d="M26.8079 38.0493C26.7761 38.6388 27.716 39.9886 28.8466 40.7362C29.8767 41.4175 31.1071 39.9829 30.9365 39.308C30.7655 38.6327 29.0487 37.2367 28.3448 36.9552C27.6406 36.6734 26.8079 38.0493 26.8079 38.0493Z" fill="#FF9566"/>
<path d="M25.1824 38.95C25.1084 39.4761 26.0215 40.7093 27.1156 41.4783C28.2097 42.247 29.6483 41.224 29.5174 40.6092C29.3865 39.9944 27.5688 38.3563 26.8563 38.0619C26.1442 37.7675 25.1824 38.95 25.1824 38.95Z" fill="#FF9566"/>
<path d="M23.6492 39.6913C23.5752 40.2171 24.4883 41.4507 25.5824 42.2193C26.6765 42.988 28.1151 41.9654 27.9842 41.3502C27.8533 40.7354 26.0356 39.0972 25.3231 38.8029C24.611 38.5089 23.6492 39.6913 23.6492 39.6913Z" fill="#FF9566"/>
<path d="M27.0458 34.9029C28.1371 35.5281 30.801 38.0797 30.904 38.9317C31.007 39.7836 27.2272 42.4232 25.8394 41.969C25.1487 41.7429 22.9619 39.1341 22.7674 38.3619C22.5732 37.5901 27.0458 34.9029 27.0458 34.9029Z" fill="#FFB882"/>
<path d="M55.3124 14.1187C55.4672 13.8151 56.1003 13.4746 56.2795 13.5146C56.4501 13.5529 57.0911 14.1606 57.032 14.3838C56.9755 14.598 56.5417 14.9567 56.2863 15.0311C56.017 15.1091 55.1911 14.3569 55.3124 14.1187Z" fill="#FFB882"/>
<path d="M28.0968 5.00241C27.87 5.03854 27.7022 5.19986 27.7631 5.22919C27.8239 5.25852 28.3471 5.18592 28.37 5.08827C28.37 5.08827 28.2788 4.97344 28.0968 5.00241Z" fill="#3D2522"/>
<path d="M27.0659 5.05756C27.14 5.45207 27.5098 6.21641 27.5098 6.21641C27.5098 6.21641 28.262 6.31511 28.6193 6.17956C28.8782 6.0812 28.8657 5.66165 28.8657 5.66165L27.337 4.63835L27.0659 5.05756Z" fill="#EA7B59"/>
<path d="M26.7515 4.92409C26.8073 5.32146 27.1417 6.10225 27.1417 6.10225C27.1417 6.10225 27.8885 6.23531 28.2519 6.1162C28.5151 6.03 28.5219 5.61046 28.5219 5.61046L27.038 4.43515L26.7515 4.92409Z" fill="#FFB882"/>
<path d="M25.5871 5.51894C26.7427 5.49104 27.3336 4.82327 27.3336 4.82327C27.3336 4.82327 27.2134 4.20378 26.8711 4.13904C26.5292 4.0743 25.3639 4.7124 25.3085 4.86942C25.253 5.0268 25.5871 5.51894 25.5871 5.51894Z" fill="#723F35"/>
<path d="M27.5712 4.79568C27.5451 4.77816 27.2224 4.36112 27.2593 4.1762C27.2961 3.99128 27.8509 3.73484 28.1745 4.03063C28.4982 4.32643 28.5816 4.72164 28.4335 4.77708C28.2854 4.83252 27.5712 4.79568 27.5712 4.79568Z" fill="#723F35"/>
<path d="M26.7232 5.35966C26.4471 5.43621 26.2425 5.62793 26.3166 5.64617C26.3906 5.66477 27.0287 5.49809 27.0562 5.39651C27.0562 5.39651 26.945 5.29779 26.7232 5.35966Z" fill="#3D2522"/>
</svg>
