<svg width="53" height="72" viewBox="0 0 53 72" fill="none" xmlns="http://www.w3.org/2000/svg">
<path d="M42.6641 47.9674C42.9641 48.7478 43.2442 49.5079 43.2442 49.5079L46.8455 49.4077L46.0454 47.447L42.6641 47.9674Z" fill="#FFB882"/>
<path d="M43.0635 47.9274C45.3843 49.5279 46.2045 49.6478 47.1448 49.6478C48.0851 49.6478 49.0599 50.4087 49.5054 51.0881C49.7846 51.5139 50.5882 50.8191 50.5557 50.333C50.5406 50.1078 49.3954 49.2426 48.68 48.1723C48.2441 47.5202 46.7594 47.1519 46.2794 46.2667C46.1128 45.9591 43.0635 47.9274 43.0635 47.9274Z" fill="#FFB882"/>
<path d="M24.0729 9.32244C23.2214 4.77359 24.2255 1.41055 25.0541 0.451677C25.8824 -0.507489 26.61 -0.297081 26.0298 4.68623C25.4494 9.66954 24.0729 9.32244 24.0729 9.32244Z" fill="#992525"/>
<path d="M23.7832 10.6237C21.8591 6.24611 22.4688 2.77309 23.3168 1.70393C24.1648 0.63477 25.1098 0.737508 25.3356 5.75274C25.5614 10.7674 23.7832 10.6237 23.7832 10.6237Z" fill="#B73434"/>
<path d="M22.7676 34.8932C20.7268 37.5939 18.9033 43.5083 18.9033 43.5083L20.7868 43.6258L22.7676 34.8932Z" fill="#841E1E"/>
<path d="M24.2077 16.467C22.9673 19.8431 20.6098 17.396 20.5164 14.5463C20.2764 7.22387 22.3317 3.46237 23.3472 3.7282C24.3623 3.99375 25.2878 13.5262 24.2077 16.467Z" fill="#CC4040"/>
<path d="M3.05365 42.3163L1.58496 42.7809L3.3408 48.3314L4.80949 47.8667L3.05365 42.3163Z" fill="#843C43"/>
<path d="M5.08593 47.7376L3.29297 48.3046L8.88487 68.3673L11.2745 70.4148L12.0514 67.3655L5.08593 47.7376Z" fill="#B6F2F2"/>
<path d="M5.13236 47.7872L3.29297 48.3047L8.88487 68.3674L11.2745 70.4149L4.88771 50.4874L5.53721 49.0509L5.13236 47.7872Z" fill="#91E2E8"/>
<path d="M3.86388 47.4125L1.76735 48.076C1.25367 48.2385 1.15732 48.9359 1.61673 49.2174C1.87125 49.3732 2.21254 49.4461 2.6618 49.3039L5.82458 48.3032C6.15978 48.197 6.42911 47.9796 6.6044 47.7045C6.91638 47.2152 6.41692 46.6048 5.86377 46.7798L3.86388 47.4125Z" fill="#FF9B40"/>
<path d="M5.80455 47.6512L2.21051 48.7882C2.03551 48.8437 1.87764 48.8736 1.7334 48.886C1.77461 48.9441 1.82366 48.9978 1.89128 49.0393C2.11736 49.1777 2.42034 49.2421 2.8191 49.1162L5.62694 48.2278C5.9247 48.1335 6.16356 47.9405 6.3194 47.6964C6.39254 47.5818 6.4143 47.4599 6.3995 47.345C6.22711 47.4727 6.02889 47.5801 5.80455 47.6512Z" fill="#FFD15F"/>
<path d="M5.63184 47.4074C5.63184 47.6227 5.80654 47.7974 6.02189 47.7974C6.23723 47.7974 6.41194 47.6227 6.41194 47.4074C6.41194 47.192 6.23723 47.0173 6.02189 47.0173C5.80654 47.0173 5.63184 47.1917 5.63184 47.4074Z" fill="#843C43"/>
<path d="M1.65527 48.6678C1.65527 48.8831 1.82999 49.0578 2.04533 49.0578C2.26067 49.0578 2.43538 48.8831 2.43538 48.6678C2.43538 48.4524 2.26067 48.2777 2.04533 48.2777C1.82999 48.2777 1.65527 48.4521 1.65527 48.6678Z" fill="#843C43"/>
<path d="M3.74325 44.4799L3.05862 42.3164L1.58984 42.781L2.659 46.1606C2.83284 45.2499 3.24611 44.5815 3.74325 44.4799Z" fill="#5E272F"/>
<path d="M2.86378 43.915C3.49105 43.6535 3.78761 42.9331 3.52617 42.3058C3.26473 41.6786 2.54429 41.382 1.91702 41.6434C1.28976 41.9049 0.993189 42.6253 1.25463 43.2526C1.51607 43.8799 2.23652 44.1764 2.86378 43.915Z" fill="#FFD15F"/>
<path d="M1.91053 42.9314C1.99528 43.1995 2.28172 43.3484 2.54988 43.2634C2.81804 43.1786 2.96692 42.8922 2.88188 42.624C2.79714 42.3559 2.5107 42.207 2.24254 42.292C1.97438 42.3767 1.82579 42.6629 1.91053 42.9314Z" fill="#843C43"/>
<path d="M1.89037 47.7715C2.70356 48.1781 5.07783 47.7425 8.21942 44.4032C8.21942 44.4032 6.18877 41.3461 5.74358 41.6343C4.42629 42.4869 1.86542 41.6784 0.77014 43.5657C0.504592 44.0233 1.89037 47.7715 1.89037 47.7715Z" fill="#FFB882"/>
<path d="M6.63145 45.8869L5.847 46.5213C5.847 46.5213 4.58659 44.1389 4.42871 42.052L5.43112 41.6854L6.63145 45.8869Z" fill="#FF9566"/>
<path d="M50.0126 61.3421C51.5995 55.456 50.1147 49.9372 46.6962 49.0155C43.2777 48.0939 39.2201 52.1185 37.6331 58.0046C36.0462 63.8908 37.531 69.4096 40.9495 70.3312C44.368 71.2529 48.4256 67.2283 50.0126 61.3421Z" fill="#774A55"/>
<path d="M49.1947 61.2367C50.6439 55.8614 49.288 50.8215 46.1662 49.9799C43.0444 49.1382 39.3388 52.8135 37.8896 58.1888C36.4404 63.5642 37.7964 68.604 40.9182 69.4457C44.04 70.2873 47.7455 66.612 49.1947 61.2367Z" fill="#603642"/>
<path d="M45.2615 49.8547C41.4062 49.8547 38.5017 54.2654 37.553 59.7067C37.4636 60.2198 37.3949 60.7233 37.3467 61.2152C38.6451 56.9813 41.2161 53.8562 44.461 53.8562C47.9529 53.8562 49.4026 57.4746 48.94 62.1994C49.184 61.403 49.3837 60.568 49.5337 59.7067C50.4828 54.2654 49.1167 49.8547 45.2615 49.8547Z" fill="#4C2934"/>
<path d="M46.0828 55.0327C47.0399 57.2404 44.9948 61.0216 43.3318 63.2975L43.1855 63.1207C46.0474 58.145 45.2377 54.9622 45.2377 54.9622L46.0828 55.0327Z" fill="#4C2934"/>
<path d="M43.775 54.8313C44.7321 57.039 42.6855 60.8521 41.0225 63.128L40.876 62.9667C43.7378 57.9909 42.9295 54.7605 42.9295 54.7605L43.775 54.8313Z" fill="#4C2934"/>
<path d="M42.9238 54.7495C40.7631 56.6702 40.4831 60.6113 40.7631 63.0523L41.0374 63.1324C41.1575 57.9309 43.764 54.8299 43.764 54.8299L42.9238 54.7495Z" fill="#995E52"/>
<path d="M45.2246 54.9297C43.0639 56.8503 42.7838 60.7915 43.0639 63.2325L43.3382 63.3126C43.4583 58.111 46.0647 55.0101 46.0647 55.0101L45.2246 54.9297Z" fill="#995E52"/>
<path d="M18.1504 20.08L17.4638 34.6526C14.6101 36.6159 12.0286 42.7923 6.63956 45.5163L4.93164 42.0653C10.6039 33.452 8.38724 24.4817 18.1504 20.08Z" fill="#FFB882"/>
<path d="M6.13477 44.9387L6.63945 45.5162C12.0285 42.7919 15.0221 37.2665 17.8758 35.3032L16.9955 26.6205C14.3546 30.4615 11.9818 40.2641 6.13477 44.9387Z" fill="#FF9566"/>
<path d="M5.53125 41.1052C5.74137 42.5757 7.19187 45.1264 7.19187 45.1264L10.3529 42.2054L6.17553 39.9144L5.53125 41.1052Z" fill="#FF9566"/>
<path d="M46.2773 47.6499C43.6604 37.3707 40.4654 20.5016 33.8111 19.2269L33.248 35.6474C36.4117 38.3693 41.0363 44.6888 43.0394 48.365L46.2773 47.6499Z" fill="#FFB882"/>
<path d="M44.0551 48.1407C43.8685 47.232 43.6544 46.308 43.4111 45.3741C41.0676 36.3788 35.1017 29.8814 33.5412 26.8205L33.248 35.6477C36.4117 38.3697 41.0363 44.6892 43.0394 48.3653L44.0551 48.1407Z" fill="#FF9566"/>
<path d="M38.9728 36.7238C38.1326 31.6822 38.1927 22.6492 38.1927 22.6492L37.5026 22.4391L35.9717 33.3927L38.9728 36.7238Z" fill="#FF9566"/>
<path d="M38.5168 23.7436C38.6683 23.2653 38.2576 22.5557 37.6 22.1587C36.9423 21.7617 36.2864 21.8278 36.135 22.3061C35.9835 22.7844 36.3941 23.494 37.0517 23.891C37.7097 24.288 38.3656 24.2221 38.5168 23.7436Z" fill="#FF9566"/>
<path d="M29.0996 50.1723C34.4135 61.1987 40.2921 70.4546 40.2921 70.4546L40.564 70.4387L32.3953 45.3506L29.0996 50.1723Z" fill="#FFB882"/>
<path d="M36.3164 60.0117C36.5794 59.9316 36.8449 59.8744 37.1113 59.835L32.3953 45.3508L29.0996 50.1725C30.9744 54.0628 32.9191 57.7321 34.6517 60.853C35.1503 60.485 35.7067 60.1977 36.3164 60.0117Z" fill="#FF9566"/>
<path d="M24.2702 47.3651C19.9152 58.7344 14.655 70.2934 14.655 70.2934L14.3906 70.2769L20.1372 44.0688L24.2702 47.3651Z" fill="#FFB882"/>
<path d="M19.825 58.4019C21.254 54.995 22.8125 51.1699 24.2699 47.3652L20.1367 44.0692L17.1445 57.7149C18.0291 57.8618 18.9273 58.0899 19.825 58.4019Z" fill="#FF9566"/>
<path d="M16.6748 32.7623C18.1152 37.324 19.8559 41.8853 19.7357 44.5263L31.0193 42.1256L34.8607 30.6617L25.6175 28.7411L16.6748 32.7623Z" fill="#FFB882"/>
<path d="M20.4761 44.3687C20.4639 44.1632 20.456 43.9557 20.456 43.7459C20.456 39.536 23.0753 36.0235 26.1579 36.0235C28.6007 36.0235 30.5556 38.2672 31.3122 41.2515L34.8607 30.6618L25.7978 26.5804L16.6748 32.7623C18.1152 37.3237 19.8559 41.8853 19.7357 44.5263L20.4761 44.3687Z" fill="#FF9566"/>
<path d="M28.8893 36.3637C28.8893 36.3637 25.2781 41.0452 20.0664 42.6358L20.3665 43.1759C23.8476 43.146 30.4199 37.7141 30.4199 37.7141L28.8893 36.3637Z" fill="#FF9566"/>
<path d="M34.0407 19.3381C28.4601 16.6049 22.892 17.1911 17.6353 20.3986C15.1745 23.2796 14.7395 29.4766 16.4199 35.2385C16.4199 35.2385 22.3626 35.7008 25.9036 33.42C25.9036 33.42 25.905 29.9363 26.098 27.721C26.2916 29.9096 27.3837 33.5039 27.3837 33.5039C30.9417 35.4852 35.7913 34.8934 35.7913 34.8934C37.4797 28.9893 36.513 22.011 34.0407 19.3381Z" fill="#FFB882"/>
<path d="M16.6355 35.143C14.9586 29.3935 15.6624 27.5404 15.6766 24.9598C15.0857 28.0013 15.275 31.7756 16.3154 35.3429C16.3154 35.3429 22.4224 35.8081 25.9637 33.5273C25.9637 33.5273 25.905 33.4147 25.9053 33.4136C22.3322 35.4793 16.6355 35.143 16.6355 35.143Z" fill="#FF9566"/>
<path d="M35.6409 34.7631C35.6409 34.7631 30.298 35.0504 26.7356 33.1974C26.7501 33.3048 26.668 33.4226 26.668 33.4226C30.226 35.4039 35.8809 35.0432 35.8809 35.0432C36.8752 31.5666 36.9175 27.6658 36.2797 24.5002C35.8342 22.2902 37.2734 29.0551 35.6409 34.7631Z" fill="#FF9566"/>
<path d="M37.0413 21.6587C37.0413 21.6587 32.0496 33.1925 27.5684 35.4333L31.7196 36.4635C35.4808 33.1025 37.9216 22.819 37.9216 22.819L37.0413 21.6587Z" fill="#FF9566"/>
<path d="M18.2958 50.4981L17.9658 52.929C17.9658 52.929 28.2891 58.0005 36.4518 57.4305L35.9416 55.3598L18.2958 50.4981Z" fill="#FFD15F"/>
<path d="M18.4421 52.0882C23.468 54.4491 29.2753 55.7539 35.4511 56.5602L35.6661 57.4679C35.9299 57.461 36.192 57.4485 36.4518 57.4305L35.9416 55.3598L18.2958 50.4981L17.9658 52.929C17.9658 52.929 18.0866 52.9882 18.3112 53.0929L18.4421 52.0882Z" fill="#FFB24D"/>
<path d="M25.7539 52.5531C25.9817 53.5364 26.3439 54.762 26.9156 56.2296C28.4988 56.6582 30.1817 57.0248 31.8696 57.2471C31.0686 55.798 30.2436 54.58 29.4603 53.5744L25.7539 52.5531Z" fill="#FFB24D"/>
<path d="M17.9961 51.2683C17.9961 51.2683 29.2278 55.6889 36.1846 55.9298L32.9449 44.4459L32.3847 43.8451L32.2643 43.4049C35.612 41.569 38.3626 29.4214 37.7732 21.6572L37.4148 21.4175C37.4148 21.4175 33.2124 38.6833 19.1366 43.4058C19.1366 43.4058 18.3261 46.0868 17.9961 51.2683Z" fill="#CC4040"/>
<path d="M37.7733 21.6572L37.4149 21.4175C37.4149 21.4175 37.0431 23.0317 36.124 25.4045C37.1023 24.9985 37.4045 26.6057 37.5414 28.9025C37.8409 26.3587 37.9385 23.8356 37.7733 21.6572Z" fill="#B52D2D"/>
<path d="M19.1572 43.7929C28.2187 44.1366 33.1831 37.6514 35.5507 32.081C35.5507 32.081 34.4699 39.8289 28.5344 43.3312C25.1035 45.3552 19.1572 43.7929 19.1572 43.7929Z" fill="#B52D2D"/>
<path d="M32.3845 43.8452L32.264 43.4049C33.1852 42.8996 34.3713 41.4932 34.9398 39.6095C30.0703 42.3294 22.4663 44.1586 19.1361 43.4058C18.8688 43.4264 18.9082 43.5222 18.8839 43.584C18.8746 43.6072 19.0806 43.6623 19.0702 43.6893C19.0142 43.8341 18.9198 43.9676 18.8371 44.2123C18.8244 44.25 18.6703 44.2605 18.6572 44.3005C18.2524 45.5351 18.0611 47.8777 17.9961 51.2683C17.9961 51.2683 18.3449 51.3864 18.6366 51.5075C19.1985 47.3698 21.4764 45.8651 24.7483 45.8166C27.4493 45.7766 33.121 49.9081 35.6093 55.8999C35.8038 55.913 36.3836 55.9533 36.5723 55.96L32.9449 44.4462L32.3845 43.8452Z" fill="#B52D2D"/>
<path d="M32.3981 43.3278C32.3981 43.3278 29.8007 44.4024 26.998 44.4663L27.1196 44.809C29.3302 44.8865 32.4495 43.9154 32.4495 43.9154L32.3981 43.3278Z" fill="#E87446"/>
<path d="M19.0361 43.6609C19.0361 43.6609 22.4899 44.5167 25.9725 44.4186L25.974 44.7727C23.2245 44.9779 18.832 44.2013 18.832 44.2013L19.0361 43.6609Z" fill="#E87446"/>
<path d="M28.1286 12.886L22.5268 13.6162C22.4667 15.897 21.5366 17.6075 19.916 19.3781L30.8395 18.1778C28.6042 17.4575 28.1286 12.886 28.1286 12.886Z" fill="#FFB882"/>
<path d="M43.5145 70.4546H40.1335C40.1335 70.4546 39.6947 69.4336 40.2165 69.2929C40.738 69.1521 43.5145 70.4546 43.5145 70.4546Z" fill="#FFB882"/>
<path d="M11.1611 70.4546H14.8657C14.8657 70.4546 15.3466 69.4336 14.7749 69.2928C14.2035 69.1521 11.1611 70.4546 11.1611 70.4546Z" fill="#FFB882"/>
<path d="M38.482 22.5593C38.482 21.9185 37.9982 21.345 37.4015 21.2788C36.8048 21.2127 36.3213 21.6782 36.3213 22.3193C36.3213 22.9601 36.8051 23.5335 37.4015 23.5997C37.9982 23.6659 38.482 23.2001 38.482 22.5593Z" fill="#FFB24D"/>
<path d="M27.7186 44.4813C27.7186 44.1249 27.2685 43.8362 26.7133 43.8362C26.1581 43.8362 25.708 44.1249 25.708 44.4813C25.708 44.8377 26.1581 45.1265 26.7133 45.1265C27.2685 45.1265 27.7186 44.8377 27.7186 44.4813Z" fill="#FFB24D"/>
<path d="M27.4843 44.6314C27.4843 44.4305 27.1326 44.5864 26.6987 44.5864C26.2648 44.5864 25.9131 44.4305 25.9131 44.6314C25.9131 44.8322 26.2648 44.995 26.6987 44.995C27.1326 44.9947 27.4843 44.8319 27.4843 44.6314Z" fill="#FFD15F"/>
<path d="M24.3183 20.6586C22.3175 20.2183 19.0767 20.0985 18.9165 20.7787C18.7563 21.4587 24.3183 20.6586 24.3183 20.6586Z" fill="#FF9566"/>
<path d="M27.1982 20.6429C28.8798 19.9525 31.6896 19.4208 31.9276 20.0735C32.1653 20.7262 27.1982 20.6429 27.1982 20.6429Z" fill="#FF9566"/>
<path d="M19.3252 34.1441C19.2858 33.898 18.824 33.716 18.2941 33.7375C17.7641 33.759 17.3666 33.9761 17.406 34.2219C17.4455 34.468 17.9072 34.6499 18.4372 34.6285C18.9674 34.607 19.365 34.3902 19.3252 34.1441Z" fill="#E87446"/>
<path opacity="0.6" d="M30.5494 18.0556C29.031 17.2967 28.4497 14.7202 28.1592 13.496C27.287 13.476 26.1593 13.5172 25.1998 13.6507C24.2354 13.7848 23.3218 13.9897 22.4848 14.2486C22.2962 16.0871 21.5019 17.5631 20.2061 19.0534C20.6968 20.1881 22.5556 17.8597 25.7385 17.4174C28.2848 17.0634 30.5096 18.9878 30.5494 18.0556Z" fill="#C94343"/>
<path d="M23.2603 13.196C22.3151 8.84449 22.5836 5.36334 22.9812 4.28316C23.3785 3.20268 23.8298 3.29294 23.9694 8.3044C24.1089 13.3162 23.2603 13.196 23.2603 13.196Z" fill="#CC4040"/>
<path d="M22.3167 9.89507C22.2567 11.9359 23.0434 15.188 23.217 15.3369C23.4971 15.5769 25.1075 15.8672 25.9778 15.7171C26.8482 15.5671 28.3335 14.4416 28.3637 14.0814C28.3936 13.7213 27.5383 9.26501 27.5383 9.26501L22.3167 9.89507Z" fill="#FFB882"/>
<path d="M22.3167 9.895C22.2567 11.9358 23.0434 15.188 23.217 15.3369C23.2646 15.3778 23.3531 15.4199 23.4672 15.4611C23.5023 14.039 23.9988 12.0362 25.9979 12.3758C27.0194 11.8537 27.7185 12.563 27.9635 14.5974C28.1986 14.3855 28.3541 14.1951 28.3634 14.0811C28.3933 13.7209 27.538 9.26465 27.538 9.26465L22.3167 9.895Z" fill="#FF9566"/>
<path d="M25.8788 11.6429C25.6661 12.0693 25.6882 12.8755 25.6882 12.8755C25.6882 12.8755 26.1461 13.209 26.555 12.764C26.4241 12.0603 26.1661 11.6598 25.8788 11.6429Z" fill="#FF9566"/>
<path d="M25.9875 11.7495C25.8429 12.1198 25.903 12.8094 25.903 12.8094C25.903 12.8094 26.28 13.0828 26.5775 12.6913C26.4373 12.0923 26.2138 11.7562 25.9875 11.7495Z" fill="#FFB882"/>
<path d="M24.7944 5.19354C24.4847 5.01099 24.303 4.09884 25.0323 4.16182C25.7616 4.22508 25.3333 5.17235 25.3333 5.17235L24.7944 5.19354Z" fill="#FFDD7D"/>
<path d="M21.665 15.0615L23.3575 15.9571C23.3575 15.9571 21.7895 11.008 26.031 11.5682C27.5418 10.9123 28.3991 11.4155 28.2892 15.4669L28.7994 15.0769C28.7994 15.0769 28.8194 10.1354 28.319 8.63465C27.819 7.13423 26.1384 5.09342 25.0779 4.77332C25.0779 4.77332 21.2366 6.21395 21.1966 9.55493C21.1568 12.8959 21.665 15.0615 21.665 15.0615Z" fill="#FFC34A"/>
<path d="M25.2483 4.8392C25.1903 4.81366 25.1328 4.78986 25.078 4.77332C25.078 4.77332 25.0666 4.77767 25.0498 4.78434C25.8842 7.10259 26.0307 11.5679 26.0307 11.5679C26.3503 11.4291 26.6402 11.3432 26.8982 11.3308C26.579 8.85434 26.0557 6.25255 25.2483 4.8392Z" fill="#FFDA66"/>
<path d="M22.3178 9.89502C22.458 7.05408 25.2287 5.28841 25.2287 5.28841C26.0465 5.58094 27.5594 6.99401 28.2586 8.47092C27.6973 6.98966 26.2114 5.09338 25.0862 4.66589C24.0858 4.83596 21.1648 6.60164 21.1398 9.51251C21.1099 13.0236 21.6657 15.0615 21.6657 15.0615L22.745 15.6326C22.5279 14.7466 22.2476 11.3194 22.3178 9.89502Z" fill="#FFAC3E"/>
<path d="M25.3783 49.568C25.3783 49.568 25.2512 51.0513 26.1425 54.0048C27.5779 54.4184 29.0928 54.8145 30.5906 55.1399C27.9259 51.1534 25.3783 49.568 25.3783 49.568Z" fill="#B52D2D"/>
<path d="M25.8584 11.2352C25.138 11.1952 23.4974 11.2753 23.6176 10.8551C23.7377 10.4348 24.3179 10.4348 24.7979 10.575C25.2782 10.7152 25.8584 11.2352 25.8584 11.2352Z" fill="#FF9566"/>
<path d="M25.2209 11.1438C25.0076 11.1319 24.5221 11.1507 24.5575 11.0381C24.5929 10.9255 24.7647 10.9264 24.9069 10.9647C25.0491 11.003 25.2209 11.1438 25.2209 11.1438Z" fill="#603642"/>
<path d="M26.1318 11.1879C26.6194 11.109 27.7411 11.0884 27.6311 10.705C27.5208 10.3217 27.1261 10.3553 26.8086 10.5132C26.4914 10.6711 26.1318 11.1879 26.1318 11.1879Z" fill="#FF9566"/>
<path d="M28.6191 46.0566C31.0799 48.0374 33.5406 51.5185 33.8407 50.7982C34.1408 50.0779 32.7655 48.2916 31.44 47.3771C30.6002 46.7979 28.6191 46.0566 28.6191 46.0566Z" fill="#CC4040"/>
<path d="M38.2827 22.3378C38.2905 21.9248 37.9385 21.5234 37.4968 21.4413C37.0548 21.3592 36.6903 21.6273 36.6827 22.0403C36.6749 22.4533 37.0269 22.8547 37.4687 22.9368C37.9104 23.0189 38.2749 22.7508 38.2827 22.3378Z" fill="#FFE05C"/>
<path d="M4.59863 41.5765C4.80875 43.0471 6.56108 46.2667 6.56108 46.2667L10.2222 43.716L5.84076 40.0549L4.59863 41.5765Z" fill="#FFD15F"/>
<path d="M9.06403 42.8323L5.85917 40.1545L4.7041 41.5696C4.77201 42.0453 5.01376 42.7177 5.29963 43.3925C5.70651 43.5167 6.14852 43.5869 6.61257 43.5869C7.56303 43.5866 8.4241 43.2987 9.06403 42.8323Z" fill="#FFE576"/>
<path d="M26.0782 37.2439C26.0581 38.2443 25.918 39.6446 25.918 39.6446L26.418 39.1245L26.0782 37.2439Z" fill="#FF9566"/>
<path d="M24.0771 39.8247C25.0375 39.8247 26.0779 39.2646 26.0779 39.2646L26.118 38.5844C25.725 39.1366 25.0412 39.5484 24.0771 39.8247Z" fill="#FF9566"/>
<path d="M26.5439 11.0623C26.7085 11.0388 27.0765 11.0327 27.0649 10.9192C27.0533 10.8057 26.9218 10.8156 26.808 10.8623C26.6943 10.9093 26.5439 11.0623 26.5439 11.0623Z" fill="#603642"/>
<path d="M26.7354 13.3274C26.7354 13.2714 26.4448 13.1286 26.0864 13.1475C25.728 13.166 25.4375 13.339 25.4375 13.395C25.4375 13.451 25.728 13.2853 26.0864 13.2667C26.4448 13.2479 26.7354 13.3831 26.7354 13.3274Z" fill="#FF9566"/>
<path d="M23.6001 9.78247L23.4727 10.2326C24.9655 10.5553 25.8359 11.2455 25.8359 11.2455C25.8359 11.2455 25.5431 10.5327 23.6001 9.78247Z" fill="#C94343"/>
<path d="M27.7826 9.80713L27.8769 10.2625C26.7726 10.5234 26.1289 11.1778 26.1289 11.1778C26.1289 11.1778 26.3451 10.4772 27.7826 9.80713Z" fill="#C94343"/>
<path d="M46.6092 46.5471C45.9377 47.7175 42.743 48.8958 42.743 48.8958L40.3115 45.1021L45.498 44.0585L46.6092 46.5471Z" fill="#FFD15F"/>
<path d="M41.6543 44.892L45.4515 44.1278L46.4832 46.5114C46.2682 46.8846 45.7559 47.333 45.123 47.6766C43.8956 47.1011 42.0638 45.5293 41.6543 44.892Z" fill="#FFE576"/>
</svg>
