<svg width="148" height="62" viewBox="0 0 148 62" fill="none" xmlns="http://www.w3.org/2000/svg">
<g clip-path="url(#clip0_166_1529)">
<path d="M46.3636 1H13.6364C6.10521 1 0 7.10521 0 14.6364V47.3636C0 54.8948 6.10521 61 13.6364 61H46.3636C53.8948 61 60 54.8948 60 47.3636V14.6364C60 7.10521 53.8948 1 46.3636 1Z" fill="black"/>
<path d="M27.2765 47.9291L24.305 46.2578C22.712 47.1554 23.34 49.608 25.1628 49.608H26.411C26.7098 49.608 27.0085 49.5306 27.2689 49.3836C27.828 49.0664 27.828 48.2541 27.2689 47.9368L27.2765 47.9291Z" fill="white"/>
<path d="M24.6266 21.9016C25.446 22.7836 26.8246 22.7836 27.6441 21.9016C28.3946 21.0969 28.3946 19.8358 27.6441 19.0311L24.1671 15.2942C23.7765 14.8764 23.2327 14.6366 22.6583 14.6366C20.8432 14.6366 19.9012 16.8261 21.1496 18.1647L24.6266 21.9016Z" fill="white"/>
<path d="M35.0501 26.9849C34.2306 26.1029 32.8444 26.1029 32.0249 26.9849C31.2743 27.7895 31.2743 29.0506 32.0249 29.8553L39.3772 37.7547L34.3532 40.5865C32.9363 41.3834 32.9363 43.4491 34.3532 44.246C34.9811 44.602 35.7471 44.602 36.375 44.246L46.0402 38.7993L35.0425 26.9849H35.0501Z" fill="white"/>
<path d="M34.353 45.6777L34.1001 45.5307L29.8419 43.1323L20.2917 37.7551L29.8419 27.5035L32.6833 24.4473L38.5269 18.1727C39.7752 16.8342 38.8332 14.6446 37.0181 14.6446C36.4437 14.6446 35.9 14.8844 35.5093 15.3022L29.8419 21.3913L26.993 24.4473L13.6363 38.7995L25.5915 45.5384L29.8497 47.9369L32.3387 49.345C32.645 49.523 32.9974 49.6081 33.3496 49.6081C35.4864 49.6081 36.2293 46.7377 34.3606 45.6854L34.353 45.6777Z" fill="white"/>
</g>
<path d="M85.08 45.905C82.92 45.905 81.27 45.245 80.13 43.925C78.99 42.605 78.42 40.715 78.42 38.255V15.305C78.42 14.705 78.57 14.255 78.87 13.955C79.17 13.625 79.62 13.46 80.22 13.46C80.79 13.46 81.24 13.625 81.57 13.955C81.9 14.255 82.065 14.705 82.065 15.305V37.985C82.065 39.605 82.38 40.82 83.01 41.63C83.67 42.41 84.63 42.8 85.89 42.8C86.16 42.8 86.4 42.785 86.61 42.755C86.82 42.725 87.03 42.71 87.24 42.71C87.57 42.68 87.795 42.755 87.915 42.935C88.065 43.115 88.14 43.475 88.14 44.015C88.14 44.555 88.02 44.96 87.78 45.23C87.54 45.5 87.15 45.68 86.61 45.77C86.37 45.8 86.115 45.83 85.845 45.86C85.575 45.89 85.32 45.905 85.08 45.905ZM96.112 53.915C95.662 53.915 95.302 53.795 95.032 53.555C94.762 53.315 94.597 52.985 94.537 52.565C94.507 52.175 94.582 51.77 94.762 51.35L97.867 44.375V45.95L89.227 25.88C89.047 25.43 88.987 25.01 89.047 24.62C89.107 24.23 89.287 23.915 89.587 23.675C89.887 23.435 90.307 23.315 90.847 23.315C91.327 23.315 91.702 23.42 91.972 23.63C92.242 23.84 92.482 24.215 92.692 24.755L100.072 42.845H98.857L106.327 24.755C106.567 24.215 106.822 23.84 107.092 23.63C107.362 23.42 107.752 23.315 108.262 23.315C108.742 23.315 109.102 23.435 109.342 23.675C109.612 23.915 109.762 24.23 109.792 24.62C109.852 24.98 109.792 25.385 109.612 25.835L98.092 52.475C97.852 53.015 97.582 53.39 97.282 53.6C97.012 53.81 96.622 53.915 96.112 53.915ZM114.509 45.5C114.119 45.5 113.804 45.41 113.564 45.23C113.324 45.05 113.159 44.81 113.069 44.51C112.979 44.21 112.979 43.88 113.069 43.52C113.159 43.16 113.354 42.815 113.654 42.485L126.344 25.52V26.465H114.329C113.849 26.465 113.474 26.345 113.204 26.105C112.964 25.835 112.844 25.475 112.844 25.025C112.844 24.575 112.964 24.23 113.204 23.99C113.474 23.75 113.849 23.63 114.329 23.63H128.144C128.594 23.63 128.954 23.72 129.224 23.9C129.524 24.08 129.719 24.32 129.809 24.62C129.899 24.89 129.899 25.205 129.809 25.565C129.749 25.895 129.584 26.225 129.314 26.555L116.399 43.7V42.665H129.044C130.034 42.665 130.529 43.13 130.529 44.06C130.529 44.51 130.394 44.87 130.124 45.14C129.884 45.38 129.524 45.5 129.044 45.5H114.509ZM136.779 45.815C136.179 45.815 135.714 45.65 135.384 45.32C135.084 44.99 134.934 44.525 134.934 43.925V25.16C134.934 24.56 135.084 24.11 135.384 23.81C135.684 23.48 136.119 23.315 136.689 23.315C137.259 23.315 137.694 23.48 137.994 23.81C138.324 24.11 138.489 24.56 138.489 25.16V28.805H138.039C138.519 27.035 139.434 25.67 140.784 24.71C142.134 23.75 143.799 23.24 145.779 23.18C146.229 23.15 146.589 23.255 146.859 23.495C147.129 23.705 147.279 24.08 147.309 24.62C147.339 25.13 147.219 25.535 146.949 25.835C146.679 26.135 146.259 26.315 145.689 26.375L144.969 26.465C142.929 26.645 141.354 27.305 140.244 28.445C139.164 29.555 138.624 31.085 138.624 33.035V43.925C138.624 44.525 138.459 44.99 138.129 45.32C137.829 45.65 137.379 45.815 136.779 45.815Z" fill="#121212"/>
<defs>
<clipPath id="clip0_166_1529">
<rect width="60" height="60" fill="white" transform="translate(0 1)"/>
</clipPath>
</defs>
</svg>
