<svg width="74" height="72" viewBox="0 0 74 72" fill="none" xmlns="http://www.w3.org/2000/svg">
<path d="M15.0504 34.9471C15.2162 34.815 13.2251 33.898 11.7774 34.0034C11.4894 34.0245 10.5289 33.9375 10.5573 34.3618C10.5769 34.6568 10.5777 34.9168 11.0503 35.3478C11.543 35.7971 13.9702 35.8092 15.0504 34.9471Z" fill="#FF9566"/>
<path d="M11.557 33.9816C11.7603 33.8088 11.557 32.0171 11.2729 31.7824C10.9888 31.5477 9.80031 31.585 9.60064 32.0928C9.46182 32.4459 9.37686 32.8685 9.696 33.2735C9.97896 33.6319 11.4322 34.0873 11.557 33.9816Z" fill="#FF9566"/>
<path d="M10.8751 32.0965C11.0784 31.9237 10.8751 30.132 10.5913 29.8973C10.3072 29.6625 8.94593 29.1603 8.74625 29.6679C8.60744 30.021 8.69522 30.9831 9.01463 31.3881C9.29704 31.7468 10.7503 32.2025 10.8751 32.0965Z" fill="#FF9566"/>
<path d="M60.2904 37.4332C61.7629 39.7777 62.9001 40.3523 63.1264 43.3572C62.0108 43.5229 58.2922 46.0446 57.3003 45.4296C56.3081 44.8144 55.2949 40.029 55.2949 40.029L60.2904 37.4332Z" fill="#FF9566"/>
<path d="M59.8649 45.0314C59.7914 44.6324 59.2168 44.4038 58.5816 44.521C57.9464 44.638 57.4909 45.0564 57.5644 45.4554C57.6379 45.8545 58.2125 46.0831 58.8477 45.9658C59.4829 45.8489 59.9383 45.4305 59.8649 45.0314Z" fill="#FF9566"/>
<path d="M61.7789 44.2389C61.7054 43.8398 61.1308 43.6112 60.4956 43.7285C59.8604 43.8457 59.405 44.2638 59.4785 44.6629C59.552 45.062 60.1266 45.2905 60.7618 45.1733C61.397 45.0561 61.8527 44.6379 61.7789 44.2389Z" fill="#FF9566"/>
<path d="M63.4021 43.3108C63.3286 42.9118 62.568 40.2353 61.9328 40.3522C61.2976 40.4692 61.0281 43.3358 61.1016 43.7346C61.1751 44.1337 61.7497 44.3622 62.3849 44.245C63.0201 44.1283 63.4755 43.7099 63.4021 43.3108Z" fill="#FF9566"/>
<path d="M59.6865 36.6351C61.5663 37.6652 62.1555 39.3669 62.022 40.2121C61.8882 41.0574 58.9694 42.4122 58.6755 42.6079C58.3037 42.8558 57.0877 42.0291 57.5692 41.3743C58.0504 40.7192 59.272 40.1241 59.272 40.1241C59.272 40.1241 57.4234 38.8587 58.2035 37.4181C58.7885 36.3373 59.6865 36.6351 59.6865 36.6351Z" fill="#FFB882"/>
<path d="M61.3339 41.5744C61.899 41.8588 63.1175 43.0307 63.143 43.4388C63.1685 43.8468 62.1657 44.4082 61.6598 44.1494C61.1539 43.8903 60.2094 42.7921 60.2012 42.4034C60.1931 42.0147 61.0686 41.4409 61.3339 41.5744Z" fill="#FFB882"/>
<path d="M59.5482 42.5022C60.0914 42.784 61.281 43.9686 61.3183 44.3895C61.3556 44.8105 60.4268 45.4114 59.9405 45.1546C59.4543 44.8977 58.5257 43.7835 58.5053 43.3822C58.4848 42.9809 59.2933 42.3698 59.5482 42.5022Z" fill="#FFB882"/>
<path d="M57.4669 43.123C57.9933 43.4352 59.1142 44.6851 59.1276 45.1074C59.1411 45.5297 58.18 46.0772 57.7089 45.7934C57.2378 45.5093 56.3737 44.3443 56.376 43.9428C56.3782 43.5412 57.2198 42.9766 57.4669 43.123Z" fill="#FFB882"/>
<path d="M52.8525 56.1746C52.7768 55.8148 52.399 55.5899 52.0087 55.6721C51.6183 55.7542 51.3634 56.1124 51.4391 56.4722C51.5148 56.832 51.8926 57.0569 52.2829 56.9747C52.6733 56.8926 52.9282 56.5344 52.8525 56.1746Z" fill="#EACFA9"/>
<path d="M45.4355 63.6595C45.3598 63.2997 44.982 63.0748 44.5917 63.1569C44.2013 63.2391 43.9464 63.5972 44.0221 63.957C44.0978 64.3168 44.4756 64.5418 44.8659 64.4596C45.256 64.3774 45.5112 64.0193 45.4355 63.6595Z" fill="#EACFA9"/>
<path d="M48.4489 67.7292C48.1373 66.2496 46.5832 65.3239 44.9776 65.6621C43.3721 66 42.3233 67.4737 42.6349 68.9533C42.9464 70.4329 44.5006 71.3586 46.1061 71.0204C47.7116 70.6825 48.7605 69.2088 48.4489 67.7292Z" fill="#EACFA9"/>
<path d="M6.58246 55.6359C6.19545 54.8523 5.10483 54.6011 4.14629 55.0744C3.18775 55.5478 2.72419 56.5666 3.11119 57.3499C3.49819 58.1335 4.58882 58.3847 5.54736 57.9113C6.5059 57.4382 6.96918 56.4194 6.58246 55.6359Z" fill="#FCF0D9"/>
<path d="M55.1472 64.1065C54.8356 62.6269 53.2814 61.7012 51.6759 62.0394C50.0704 62.3773 49.0215 63.851 49.3331 65.3306C49.6447 66.8102 51.1989 67.7359 52.8044 67.3977C54.4099 67.0595 55.4587 65.5861 55.1472 64.1065Z" fill="#EACFA9"/>
<path d="M38.8162 71.5894C41.8364 71.5894 44.2847 69.743 44.2847 67.4653C44.2847 65.1876 41.8364 63.3412 38.8162 63.3412C35.796 63.3412 33.3477 65.1876 33.3477 67.4653C33.3477 69.743 35.796 71.5894 38.8162 71.5894Z" fill="#EACFA9"/>
<path d="M22.4111 66.0755C39.2722 69.9946 50.6975 61.6291 49.9583 50.1715C42.9521 44.3269 22.4111 66.0755 22.4111 66.0755Z" fill="#EACFA9"/>
<path d="M44.1666 10.6118L42.5703 23.6199C48.5498 31.0605 56.7406 40.4067 56.7406 40.4067L60.7539 38.9801C60.7539 38.9801 51.5553 18.0869 44.1666 10.6118Z" fill="#FFB882"/>
<path d="M46.4711 16.9994C45.8213 15.3689 42.4619 23.8648 42.4619 23.8648C48.4372 31.3225 55.9987 41.0097 55.9987 41.0097L58.5215 40.1686C53.0944 32.0945 48.0328 20.918 46.4711 16.9994Z" fill="#FF9566"/>
<path d="M6.84997 71.9994H69.7867C69.7867 71.9994 73.1453 72.0805 73.6153 69.9713C74.0856 67.8619 73.0779 67.1319 73.0779 67.1319C73.0779 67.1319 75.3616 64.4545 72.742 60.8848C70.1224 57.3151 66.6296 62.5885 66.6296 62.5885C66.6296 62.5885 67.1669 56.8283 62.1964 57.883C57.2259 58.9377 57.4946 64.9414 57.4946 64.9414C57.4946 64.9414 56.4199 62.4264 54.3377 63.1564C52.2554 63.8866 52.3897 66.8071 52.3897 66.8071C52.3897 66.8071 51.1808 64.0487 48.9642 65.1845C46.7476 66.3203 40.8368 71.0258 36.0007 66.1579C31.1645 61.2901 25.6676 62.5621 24.3241 65.4826C24.3241 65.4826 26.7577 52.3873 14.3441 52.9052C8.25356 53.1593 7.77176 59.4669 7.77176 59.4669C3.07078 55.8975 -5.97895 71.9994 6.84997 71.9994Z" fill="#F4E1C1"/>
<path d="M57.9131 67.0475C57.9857 66.9312 58.0572 66.81 58.1265 66.6793C58.1265 66.6793 58.0393 66.8176 57.9131 67.0475Z" fill="#EACFA9"/>
<path d="M57.9131 67.0476C56.3735 69.5152 54.107 68.7914 52.2138 67.192L51.4277 67.602C54.5039 67.7728 57.4771 71.43 57.4771 71.43C56.3348 70.2603 57.4218 67.9447 57.9131 67.0476Z" fill="#EACFA9"/>
<path d="M52.9587 71.9994C47.36 70.9514 49.479 66.0297 50.914 65.1393C50.3935 64.8673 49.7409 64.7866 48.9644 65.1845C46.7478 66.3203 40.837 71.0257 36.0008 66.1579C31.1647 61.29 25.6678 62.5621 24.3242 65.4826C24.3242 65.4826 25.0259 61.7009 23.7496 58.2823C20.0389 61.7017 16.4863 71.498 8.26074 71.9991H52.9587V71.9994Z" fill="#EACFA9"/>
<path d="M62.3693 64.3469C64.0006 64.3469 65.4208 63.2562 66.1628 61.6443C66.0879 60.2441 65.5228 57.5507 62.2131 58.2529C60.1003 58.7014 59.0526 60.1543 58.5332 61.5503C59.2629 63.2136 60.7066 64.3469 62.3693 64.3469Z" fill="#FCF0D9"/>
<path d="M33.6204 48.4852C29.6101 61.3127 20.0284 71.9997 20.0284 71.9997H19.6865L22.9116 47.1868L33.6204 48.4852Z" fill="#FFB882"/>
<path d="M22.3392 67.806C22.7742 67.67 23.2063 67.5522 23.6337 67.4507C26.7799 63.144 31.2086 56.2026 33.6212 48.4853L22.9121 47.1868L20.1221 68.6549C20.815 68.3369 21.5574 68.0506 22.3392 67.806Z" fill="#FF9566"/>
<path d="M38.543 49.5111C44.1453 62.2481 54.0596 72 54.0596 72H54.4015L47.5661 47.3694L38.543 49.5111Z" fill="#FFB882"/>
<path d="M49.901 55.784L47.5658 47.3691L38.543 49.5108C41.2108 55.5764 44.8554 60.962 47.9427 64.9428C48.1042 61.2744 48.8314 58.035 49.901 55.784Z" fill="#FF9566"/>
<path d="M39.2321 5.39738C40.0836 5.26108 39.8791 4.15728 39.4197 4.04089C39.4197 4.04089 39.6982 3.00271 38.6544 3.04057C38.6544 3.04057 38.8788 2.09073 37.8381 2.37369C36.7977 2.65665 37.8406 5.62032 39.2321 5.39738Z" fill="#F4D5B0"/>
<path d="M41.2952 8.70991C42.4694 8.51136 42.1999 7.11029 41.5681 6.97512C41.5681 6.97512 41.9626 5.64388 40.5245 5.72212C40.5245 5.72212 40.8437 4.50474 39.407 4.89595C37.9706 5.28688 39.3756 9.03438 41.2952 8.70991Z" fill="#F4D5B0"/>
<path d="M28.6711 8.55031C27.4969 8.35176 27.7664 6.95069 28.3982 6.81551C28.3982 6.81551 28.0037 5.48399 29.4418 5.56252C29.4418 5.56252 29.1226 4.34513 30.5593 4.73635C31.9957 5.12728 30.5904 8.87477 28.6711 8.55031Z" fill="#F4D5B0"/>
<path d="M31.0315 5.21533C30.1902 5.25599 30.1647 4.17939 30.5808 3.97944C30.5808 3.97944 30.1069 3.06016 31.1126 2.88909C31.1126 2.88909 30.7082 2.04217 31.7598 2.10162C32.8112 2.1608 32.4068 5.14886 31.0315 5.21533Z" fill="#F4D5B0"/>
<path d="M38.0213 4.32832C38.6655 4.21587 38.7558 3.49683 38.5166 3.27276C38.2771 3.04869 37.8676 2.96372 37.7415 3.23658C37.615 3.50945 37.8079 4.36562 38.0213 4.32832Z" fill="#FF9566"/>
<path d="M37.916 4.04929C38.3375 3.98002 38.4048 3.58348 38.2511 3.46317C38.0974 3.34286 37.8316 3.3008 37.746 3.45223C37.6605 3.60367 37.7763 4.07228 37.916 4.04929Z" fill="#DB5B3E"/>
<path d="M31.7244 4.63349C31.1346 4.50589 30.9807 3.77844 31.1731 3.55773C31.3654 3.33703 31.7244 3.26019 31.8655 3.53838C32.0065 3.81629 31.9199 4.67556 31.7244 4.63349Z" fill="#FF9566"/>
<path d="M31.7845 4.38188C31.4356 4.30644 31.3448 3.87625 31.4583 3.74556C31.5722 3.61488 31.7845 3.56973 31.8678 3.73406C31.9514 3.89868 31.9 4.40683 31.7845 4.38188Z" fill="#DB5B3E"/>
<path d="M18.6852 25.9053C19.0497 20.0494 22.8662 11.1405 26.9219 9.49992C30.9776 7.85935 29.1828 31.286 21.7268 34.4039C16.7145 36.5005 18.5217 28.5333 18.6852 25.9053Z" fill="#FFB882"/>
<path d="M26.5491 10.3451C20.0959 18.0389 25.4181 28.5714 21.2984 30.814C20.686 31.1475 17.9351 29.0689 17.4629 29.0212C17.4635 32.2496 18.2874 35.8426 21.727 34.4042C29.1827 31.2863 26.7103 10.2565 26.5491 10.3451Z" fill="#FF9566"/>
<path d="M27.3322 36.5004C27.4233 34.4041 27.029 29.6353 26.5461 27.751C21.2601 18.4091 24.6447 12.1943 25.2132 11.4483C27.5349 8.40192 32.1854 6.83427 35.2613 6.56084C38.3371 6.28742 44.1329 8.89717 46.1639 13.1228C47.4113 15.7185 47.8591 22.7962 45.1728 27.4546C44.0606 29.8459 43.9195 33.1736 44.4664 36.5913L27.3322 36.5004Z" fill="#FFB882"/>
<path d="M34.8048 33.2077C34.7956 32.176 35.2605 28.514 35.2605 28.514L35.799 33.9624L34.8048 33.2077Z" fill="#FF9566"/>
<path d="M35.3086 30.9535C36.0145 31.0797 38.7947 31.2567 38.7947 31.2567L35.3372 30.3242L35.3086 30.9535Z" fill="#FF9566"/>
<path d="M35.3086 32.5257C36.0145 32.6519 38.7947 32.8288 38.7947 32.8288L35.3372 31.8964L35.3086 32.5257Z" fill="#FF9566"/>
<path d="M35.1925 30.9535C34.5242 31.0797 31.8926 31.2567 31.8926 31.2567L35.1656 30.3242L35.1925 30.9535Z" fill="#FF9566"/>
<path d="M35.1925 32.5257C34.5242 32.6519 31.8926 32.8289 31.8926 32.8289L35.1656 31.8964L35.1925 32.5257Z" fill="#FF9566"/>
<path d="M25.9589 10.0151C25.8658 10.1309 25.7396 10.4461 25.6689 10.583C25.089 11.7089 26.2612 12.8046 26.2612 12.8046C25.3879 14.3425 27.2672 15.2913 27.2672 15.2913C26.582 16.7896 28.5246 17.4997 28.5246 17.4997C28.4399 18.8113 30.3696 18.9176 30.3696 18.9176C30.4383 20.3248 32.8167 20.2155 32.8167 20.2155C32.8167 20.2155 33.0007 21.5551 34.851 21.4962C35.9335 21.4617 36.2271 20.0621 36.2271 20.0621C37.8784 20.6807 38.3234 19.145 38.3234 19.145C39.8857 19.2942 40.5703 18.6899 40.6059 17.5286C42.311 17.2824 42.9274 16.4545 42.7468 15.2007C43.9232 14.8498 44.5169 13.1978 43.8421 12.3021C44.4134 11.926 44.889 10.6545 43.6635 9.91049C41.6612 8.45024 38.4117 7.68128 34.9652 7.69979C31.3441 7.7197 28.1444 8.501 25.9589 10.0151Z" fill="#FF9566"/>
<path d="M26.3891 27.8462C26.867 29.7296 27.6062 34.405 27.5162 36.5005L44.4667 36.5916C44.3602 35.9191 44.2811 35.2503 44.2295 34.5913C41.2103 34.2427 25.5554 38.6736 30.2359 7.93113C30.2432 7.88261 30.248 7.83634 30.2513 7.79147C30.0452 7.86831 29.8396 7.9488 29.6349 8.03293L29.3082 8.181C27.517 15.0826 25.6995 20.0864 25.335 26.5848C25.4014 26.7056 26.3201 27.7233 26.3891 27.8462Z" fill="#FF9566"/>
<path d="M46.7205 24.1483C44.5572 28.0245 39.1666 27.2488 35.7621 27.2488C30.6118 27.2488 26.4201 27.5685 23.7646 22.736C24.3348 24.2627 24.9658 26.0356 26.0328 27.9218C26.516 29.8064 27.4227 34.4042 27.3315 36.5004L28.9413 36.5088C28.9028 36.1852 28.881 35.8557 28.881 35.5206C28.881 31.305 32.0126 27.8876 35.8759 27.8876C39.7392 27.8876 42.8709 31.305 42.8709 35.5206C42.8709 35.8812 42.8462 36.2354 42.8019 36.5826L44.4658 36.5916C43.9189 33.1739 44.1604 29.9724 45.2726 27.5811C45.8797 26.5289 46.2964 25.2821 46.7205 24.1483Z" fill="#FF9566"/>
<path d="M35.3525 22.6014C35.3525 22.6014 34.9879 26.4064 34.5322 27.4774C35.039 27.2637 35.4692 27.2126 36.1708 27.3868C35.4193 25.4728 35.3525 22.6014 35.3525 22.6014Z" fill="#FF9566"/>
<path d="M44.2795 35.4048C42.8768 34.2306 24.6895 41.2853 29.7172 8.60078C29.8527 7.71992 29.317 7.42238 29.1098 8.70258C25.3275 32.0799 22.8958 38.2565 19.7451 66.0297C33.8946 57.5992 41.9895 61.771 49.9581 50.1712C49.9581 50.1712 45.581 36.4943 44.2795 35.4048Z" fill="#FCF0D9"/>
<path d="M29.2477 24.3445C28.6313 20.5446 28.6633 15.4471 29.7163 8.60074C29.8518 7.71989 29.0766 7.46777 28.8697 8.74826C27.5115 17.1432 26.5667 23.2744 25.4609 29.0295C27.3317 23.6838 27.3396 18.6441 28.0382 17.9764C28.5814 17.4567 28.1862 21.1888 29.2477 24.3445Z" fill="#F4E1C1"/>
<path d="M44.4638 35.6137C45.3217 45.2994 45.1918 52.5168 43.3721 56.6676C45.654 55.2772 47.8108 53.2975 49.9582 50.1715C49.9582 50.1715 45.9487 37.6435 44.4638 35.6137Z" fill="#F4E1C1"/>
<path d="M34.7193 20.3063C32.9904 20.3245 32.8737 19.488 32.8737 19.488C32.8737 19.488 30.6518 19.5452 30.5781 18.1197C30.5781 18.1197 28.774 17.9688 28.8441 16.6438C28.8441 16.6438 27.0235 15.8818 27.6537 14.3809C27.6537 14.3809 26.0745 13.4125 26.8802 11.876C26.8802 11.876 26.033 10.5605 26.5675 9.43425C27.102 8.30801 28.0491 8.09432 28.0491 8.09432C28.0491 8.09432 28.3032 7.03903 28.8918 6.62539C29.4807 6.21174 30.3248 6.10097 30.3248 6.10097C30.3248 6.10097 30.4698 4.93351 31.8939 4.08097C31.8939 4.08097 31.3423 3.6906 31.6134 3.28032C31.8846 2.87004 32.2444 2.68523 32.2444 2.68523C32.2444 2.68523 31.4758 2.53492 32.2243 1.93843C32.2243 1.93843 31.8507 1.61396 32.194 1.24827C32.5369 0.882297 33.0597 1.06935 33.0597 1.06935C33.0597 1.06935 32.8597 0.629902 33.3025 0.478185C33.7456 0.326468 34.0219 0.538478 34.0219 0.538478C34.0219 0.538478 34.1839 0.00480503 34.6427 3.75832e-05C35.1015 -0.00472987 35.3136 0.445655 35.3136 0.445655C35.3136 0.445655 35.6195 0.0123749 35.9914 0.280193C36.3632 0.548012 36.2634 0.775449 36.2634 0.775449C36.2634 0.775449 36.8055 0.373582 37.061 0.687953C37.3164 1.00232 37.2808 1.4213 37.2808 1.4213C37.2808 1.4213 37.7951 1.30267 37.9012 1.74296C38.0072 2.18325 37.6241 2.37983 37.6241 2.37983C37.6241 2.37983 38.0344 2.31898 38.105 2.75955C38.1757 3.2004 37.7253 3.51056 37.7253 3.51056C37.7253 3.51056 38.457 3.59357 38.805 4.28036C39.153 4.96716 39.1096 5.54486 39.1096 5.54486C40.0852 5.51205 41.0979 6.25801 41.6893 7.40809C42.2227 7.26899 42.9967 8.16948 42.967 9.4208C44.1174 10.2013 43.6546 11.3606 43.1232 11.7282C43.7598 12.6498 43.2163 14.308 42.1192 14.6367C42.2967 15.9093 41.7263 16.7332 40.1343 16.9441C40.109 18.1183 39.4733 18.7142 38.0122 18.5286C38.0122 18.5286 37.6067 20.0724 36.0595 19.4094C36.0595 19.4094 35.7308 20.2956 34.7193 20.3063Z" fill="#FCF0D9"/>
<path d="M38.0612 14.0109C38.0225 14.0592 37.9743 14.1035 37.9297 14.1495C38.1022 14.1304 38.2811 14.1195 38.4653 14.1186C38.3262 14.0883 38.1899 14.0538 38.0612 14.0109Z" fill="#FCE7CA"/>
<path d="M42.9667 9.42106C42.9964 8.16975 42.2224 7.26898 41.689 7.40836C41.0979 6.258 40.0849 5.51204 39.1093 5.54513C39.1093 5.54513 39.1525 4.96742 38.8047 4.28063C38.7691 4.21052 38.7287 4.14799 38.6864 4.08994C38.7607 4.28484 38.8047 4.48816 38.8047 4.69849C38.8047 5.08297 38.6687 5.44557 38.4329 5.77032C38.503 5.76668 38.5731 5.76359 38.6446 5.76359C40.0602 5.76359 41.2078 6.48796 41.2078 7.38144C41.2078 7.83182 40.9156 8.23902 40.445 8.53236C42.0617 8.94937 43.1857 9.95081 43.0337 10.9234C42.9659 11.3575 42.6515 11.7181 42.1792 11.9778C42.2137 12.0942 42.2331 12.2142 42.2331 12.3373C42.2331 13.3548 40.9975 14.1815 39.4553 14.214C40.3286 14.3932 40.9402 14.8066 40.9402 15.2881C40.9402 15.934 39.8294 16.9685 38.4735 16.9685C37.1173 16.9685 36.0295 15.934 36.0295 15.2881C36.0295 15.2082 36.0466 15.1302 36.0786 15.0548C35.7625 15.1162 35.4277 15.1513 35.0785 15.1513C34.3242 15.1513 33.6298 14.9967 33.0723 14.7371C33.0762 14.7609 33.079 14.785 33.079 14.8094C33.079 15.0245 32.9251 15.2194 32.6749 15.3658C32.9733 15.2191 33.3836 15.1285 33.8365 15.1285C34.7487 15.1285 35.4885 15.4959 35.4885 15.9488C35.4885 16.4017 34.7375 17.2932 33.8253 17.2932C32.913 17.2932 32.1847 16.402 32.1847 15.9488C32.1847 15.7438 32.3373 15.5568 32.588 15.4129C32.3182 15.5472 31.948 15.9774 31.5526 15.9774C30.7158 15.9774 30.0489 15.2626 30.0489 14.8097C30.0489 14.3568 30.7273 13.9894 31.5641 13.9894C31.7643 13.9894 31.9547 14.011 32.1297 14.0491C32.0265 13.9271 31.9404 13.7987 31.8787 13.6641C31.5717 13.8108 31.1939 13.8985 30.7836 13.8985C29.7581 13.8985 28.9266 13.3579 28.9266 12.691C28.9266 12.4823 29.0079 12.286 29.1512 12.115C27.8043 11.7798 26.8533 10.971 26.8533 10.0251C26.8533 9.21634 27.5499 8.50936 28.5928 8.11114C28.5449 7.9942 28.5166 7.87248 28.5166 7.74685C28.5166 6.91619 29.6235 6.24314 30.9886 6.24314C31.8703 6.24314 32.641 6.52498 33.0779 6.9476C33.1118 6.91058 33.1491 6.8744 33.1903 6.83963C32.0792 6.41028 31.3302 5.61356 31.3302 4.69933C31.3302 4.62333 31.3372 4.54845 31.3473 4.47413C30.4322 5.25291 30.3237 6.10236 30.3237 6.10236C30.3237 6.10236 29.4796 6.21313 28.8907 6.62678C28.3018 7.04042 28.048 8.09571 28.048 8.09571C28.048 8.09571 27.1006 8.30941 26.5664 9.43565C26.0322 10.5619 26.8794 11.8774 26.8794 11.8774C26.0737 13.4139 27.6528 14.3823 27.6528 14.3823C27.0227 15.8832 28.7499 16.7298 28.7499 16.7298C28.6798 18.0549 30.5769 18.1211 30.5769 18.1211C30.6507 19.5466 32.8726 19.4894 32.8726 19.4894C32.8726 19.4894 32.9893 20.3259 34.7182 20.3077C35.7297 20.297 36.0587 19.4108 36.0587 19.4108C37.6058 20.0738 38.0114 18.53 38.0114 18.53C39.4724 18.7159 40.1082 18.12 40.1334 16.9458C41.7255 16.7349 42.2959 15.9112 42.1184 14.6383C43.2154 14.3099 43.7589 12.6514 43.1223 11.7299C43.6543 11.3609 44.1173 10.2015 42.9667 9.42106Z" fill="#FCE7CA"/>
<path d="M37.6243 2.37985C37.6243 2.37985 38.0074 2.18326 37.9014 1.74297C37.7954 1.30268 37.281 1.42131 37.281 1.42131C37.281 1.42131 37.3026 1.13779 37.1691 0.862396C37.1467 0.852861 37.1307 0.84557 37.1307 0.84557C37.1307 0.84557 37.2715 1.30745 36.8124 1.39972C36.3533 1.49226 36.1074 1.24547 36.1074 1.24547C36.1074 1.24547 35.8766 1.75335 35.4214 1.69782C34.966 1.64258 34.8149 1.16807 34.8149 1.16807C34.8149 1.16807 34.4548 1.5576 34.1211 1.24323C33.7876 0.92886 33.9163 0.716567 33.9163 0.716567C33.9163 0.716567 33.3263 1.04384 33.114 0.698902C33.1005 0.677028 33.0916 0.654591 33.0803 0.632156C32.9471 0.82005 33.0602 1.06908 33.0602 1.06908C33.0602 1.06908 32.5374 0.882027 32.1944 1.248C31.8512 1.61397 32.2247 1.93816 32.2247 1.93816C31.476 2.53465 32.2449 2.68496 32.2449 2.68496C32.2449 2.68496 31.8851 2.86977 31.6139 3.28033C31.4987 3.45448 31.5323 3.62499 31.6086 3.76353C32.1653 2.85855 33.5035 2.22028 35.0684 2.22028C36.2703 2.22028 37.3368 2.59803 38.0203 3.18274C38.0867 3.06496 38.1313 2.92137 38.1055 2.75984C38.0346 2.31871 37.6243 2.37985 37.6243 2.37985Z" fill="#FCE7CA"/>
<path d="M34.7887 3.74078C34.4631 3.74498 34.1849 3.99317 34.1223 4.33502L34.0567 4.6937C34.0267 4.85776 34.1366 5.01004 34.292 5.02855C34.6283 5.06893 34.9785 5.06584 35.3417 5.02238C35.5077 5.00247 35.6188 4.82944 35.5694 4.65865L35.4544 4.25931C35.3644 3.94802 35.0935 3.73685 34.7887 3.74078Z" fill="#F4E1C1"/>
<path d="M32.4346 3.72565C32.9301 3.39361 33.9122 3.74556 34.8817 3.71695C35.8615 3.68807 36.8279 3.28283 37.2287 3.65806C37.2287 3.65806 36.6975 4.31345 34.8177 4.17687C32.8185 4.53583 32.4346 3.72565 32.4346 3.72565Z" fill="#FFB882"/>
<path d="M32.6076 3.91859C33.1334 3.71499 33.9742 4.10059 34.8606 4.07451C35.6846 4.05039 36.5528 3.6662 37.0293 3.79744C37.1594 3.71555 37.2287 3.65806 37.2287 3.65806C36.8279 3.28283 35.8615 3.68807 34.8817 3.71695C33.9125 3.74556 32.9301 3.39361 32.4346 3.72565C32.4346 3.72565 32.4713 3.81034 32.6076 3.91859Z" fill="#FF9566"/>
<path d="M34.7815 3.81816C34.5143 3.82181 34.286 4.02933 34.2347 4.31566L34.1808 4.61601C34.1562 4.75342 34.2465 4.88102 34.3738 4.89645C34.6497 4.9301 34.9372 4.92786 35.235 4.8914C35.3713 4.87486 35.4622 4.72987 35.4218 4.58685L35.3273 4.25256C35.2541 3.99148 35.0317 3.8148 34.7815 3.81816Z" fill="#FF9566"/>
<path d="M34.7816 3.7924C34.5822 3.79548 34.4117 3.98085 34.3733 4.23605L34.3331 4.50387C34.3146 4.62642 34.382 4.74 34.4773 4.75374C34.6834 4.78375 34.898 4.78178 35.1203 4.74925C35.2221 4.73439 35.29 4.60539 35.2597 4.47779L35.189 4.17968C35.1341 3.9472 34.9681 3.78959 34.7816 3.7924Z" fill="#FFB882"/>
<path d="M3.67871 69.259C13.8292 71.3811 23.5918 64.0081 35.0505 59.9058C28.6085 58.9383 24.4839 55.8655 21.5937 51.671C17.2371 59.2953 14.9422 67.8891 3.67871 69.259Z" fill="#FCF0D9"/>
<path d="M5.7663 69.6528C8.5788 69.6528 10.8588 67.261 10.8588 64.3107C10.8588 61.3604 8.5788 58.9686 5.7663 58.9686C2.95381 58.9686 0.673828 61.3604 0.673828 64.3107C0.673828 67.261 2.95381 69.6528 5.7663 69.6528Z" fill="#FCF0D9"/>
<path d="M15.6101 58.9375C16.7605 56.3353 15.3403 54.0517 12.8228 54.2001C10.765 54.3215 8.9772 56.0984 8.55738 57.9885C8.17963 59.6894 9.23267 58.7805 10.8544 59.0587C12.7796 59.3893 14.6165 61.1855 15.6101 58.9375Z" fill="#FCF0D9"/>
<path d="M56.3663 71.9997H53.4593C53.4593 71.9997 53.4178 71.0704 53.8065 70.8149C54.1851 70.5659 56.3663 71.9997 56.3663 71.9997Z" fill="#FFB882"/>
<path d="M17.4521 71.9997H20.5984C20.5984 71.9997 20.6432 71.0704 20.2229 70.8149C19.8126 70.5659 17.4521 71.9997 17.4521 71.9997Z" fill="#FFB882"/>
<path d="M15.0969 34.3473C18.788 34.7119 21.0963 34.4381 22.0691 33.8346C25.1643 31.9142 23.5308 25.2765 19.0387 25.6091C17.8084 25.7003 13.1097 28.4141 12.7045 28.9814C12.0208 29.9382 13.6392 34.2031 15.0969 34.3473Z" fill="#FFB882"/>
<path d="M22.9888 27.0208C22.8977 28.4564 22.2787 30.2184 21.0779 30.9635C20.1053 31.567 17.7626 32.2622 14.0714 31.8976C13.5675 31.848 13.0473 31.2551 12.6104 30.4615C12.8956 32.1882 14.0204 34.6647 15.074 34.7688C18.7651 35.1333 21.2139 34.7864 22.1865 34.1829C24.1697 32.9524 24.4314 29.153 22.9888 27.0208Z" fill="#FF9566"/>
<path d="M15.7125 34.3472C13.8815 34.4022 13.1322 35.6504 11.2695 34.2106C10.007 33.2347 9.46293 30.5484 9.70271 29.5842C11.2976 29.4538 12.1916 27.6372 14.7214 28.6394C17.2513 29.642 18.3991 34.2667 15.7125 34.3472Z" fill="#FFB882"/>
<path d="M14.3796 27.8371C13.0579 27.6296 12.6033 28.4513 12.5004 28.9847C12.3905 29.5545 13.4068 33.2558 14.1244 33.4504C14.6233 33.5859 17.4142 32.8303 17.4302 32.1938C17.4445 31.6304 14.6794 27.8843 14.3796 27.8371Z" fill="#FF9566"/>
<path d="M16.5493 32.1905C14.2394 32.322 13.5282 30.993 11.1088 29.6421C10.7633 29.4492 9.12192 29.3451 9.58156 31.1113C9.89397 32.4075 10.6312 33.9796 11.3719 34.552C13.2345 35.9918 14.1628 34.8841 15.9941 34.8291C17.3508 34.7884 17.6571 33.4656 17.3026 32.0371C17.0886 32.1195 16.8404 32.1739 16.5493 32.1905Z" fill="#FF9566"/>
<path d="M21.0492 50.5555L19.8203 45.7785L19.4818 46.8938L14.8745 35.9292L12.4058 28.4477L11.539 24.6441L5.35449 9.50159L6.19693 14.8296L5.52948 14.9154L10.8373 26.9384L9.93713 26.4723L13.8271 34.8913L14.5341 37.8522L19.1952 46.8442L18.3343 46.4373L21.0492 50.5555Z" fill="#FFDD71"/>
<path d="M31.3066 61.3705C32.6441 60.958 33.7005 60.2872 34.9232 59.942C39.3569 51.6043 43.3122 43.8903 43.7376 37.3207C43.1801 41.7808 39.7156 52.1786 31.3066 61.3705Z" fill="#F4E1C1"/>
<path d="M43.5228 25.9765C43.4897 25.7238 42.947 25.5867 42.3107 25.67C41.6744 25.7533 41.1853 26.0258 41.2184 26.2785C41.2515 26.5312 41.7941 26.6683 42.4304 26.585C43.0668 26.5017 43.5558 26.2292 43.5228 25.9765Z" fill="#EF8054"/>
<path d="M12.1426 31.244L11.7432 25.5351L11.5399 24.6441L8.39844 16.9523V21.4118L10.8383 26.9384L9.93805 26.4723L12.1426 31.244Z" fill="#FFF297"/>
<path d="M18.3094 44.1026L14.8748 35.9292L14.3838 34.4409L15.2147 39.1646L18.3094 45.1346V44.1026Z" fill="#FFF297"/>
<path d="M72.7148 60.8388C71.2731 58.8878 69.4878 59.6798 68.2127 60.7295C67.1002 62.1339 66.3999 63.9893 66.3531 66.0244C66.3037 68.1701 66.9908 70.1155 68.1445 71.5435H69.5136C69.5136 71.5435 72.8702 71.6217 73.387 69.5899C73.9039 67.5584 72.5836 67.0548 72.5836 67.0548C72.5836 67.0548 75.2556 64.277 72.7148 60.8388Z" fill="#FCF0D9"/>
<path d="M62.2932 65.712C60.3784 65.5412 58.9482 66.8046 59.0988 68.5343C59.2494 70.2641 60.4191 70.9615 62.3339 71.1326C64.2484 71.3034 66.1829 70.8827 66.0326 69.1533C65.8823 67.4235 64.2081 65.8828 62.2932 65.712Z" fill="#FCF0D9"/>
<path d="M55.9147 63.4949C55.2274 63.2063 54.7206 63.6466 54.8816 64.5465C55.0484 65.4798 55.5743 65.889 56.2843 66.0079C56.9005 66.1111 57.4016 65.9456 57.2378 65.2103C57.0785 64.4958 56.5168 63.7478 55.9147 63.4949Z" fill="#FCF0D9"/>
<path d="M56.4556 60.6961C56.7699 60.5519 57.0619 60.8088 57.0652 61.3058C57.0686 61.8212 56.8456 62.036 56.5043 62.0854C56.2082 62.1283 55.9443 62.0242 55.9575 61.619C55.9707 61.2253 56.1802 60.8226 56.4556 60.6961Z" fill="#F4E1C1"/>
<path d="M10.2583 51.9063C10.8859 52.0609 11.0143 52.7765 10.4414 53.5076C9.84741 54.2657 9.27083 54.3209 8.71444 53.9962C8.23125 53.7143 7.96623 53.2552 8.45672 52.6778C8.93346 52.1167 9.70832 51.7709 10.2583 51.9063Z" fill="#F4E1C1"/>
<path d="M24.1229 36.0846C23.5814 39.0112 23.05 42.0234 22.5158 45.3606C22.1377 55.6398 20.4918 59.7331 20.3965 60.5091C21.4952 57.5252 23.9836 49.3277 24.1229 36.0846Z" fill="#F4E1C1"/>
<path d="M28.1983 23.1936C29.1016 32.0179 34.1781 36.0097 39.5098 36.0097C39.5098 36.0097 32.0387 36.7927 29.2303 29.4267C27.9487 26.0651 28.1983 23.1936 28.1983 23.1936Z" fill="#F4E1C1"/>
<path d="M47.0533 42.6525C47.2499 45.5348 48.1849 52.499 48.1849 52.499L49.9584 50.1716C49.9584 50.1716 46.951 41.1485 47.0533 42.6525Z" fill="#FCF0D9"/>
<path d="M33.51 2.65608C34.3149 2.76209 34.8684 3.15161 34.8684 3.15161C34.8684 3.15161 36.4815 2.32432 37.7856 2.3706L36.3295 1.85291L31.9236 2.243C31.9236 2.243 31.7438 2.33358 31.7413 2.4766C31.7357 2.81845 32.0627 2.80443 32.0627 2.80443C32.0627 2.80443 32.4079 2.51081 33.51 2.65608Z" fill="#FCE7CA"/>
<path d="M37.9214 0.879556C37.8962 0.806642 37.5041 1.27806 37.2085 1.64824L36.5944 1.63646C36.547 1.27301 36.471 0.917976 36.3986 0.883763C36.3123 0.842819 36.1157 1.27161 35.971 1.6244L35.144 1.60841C35.0393 1.24693 34.8946 0.866096 34.8105 0.831882C34.7098 0.790938 34.5618 1.26123 34.4703 1.59551L33.8809 1.5843C33.6834 1.17374 33.4251 0.719143 33.3259 0.681565C33.2081 0.636975 33.1683 1.20122 33.1548 1.57055L32.489 1.55766C32.2176 1.16196 31.8151 0.596593 31.7863 0.679883C31.6329 1.11989 31.749 1.73798 31.8962 2.25791L37.7666 2.36812L37.7674 2.36475L37.7857 2.37092C37.9388 1.87707 38.0639 1.29152 37.9214 0.879556Z" fill="#F7B42F"/>
<path d="M35.3984 10.0243C36.811 9.02172 38.1327 9.61429 38.1327 9.61429C38.1327 9.61429 36.9706 8.40672 37.5404 6.97116C36.8508 8.35512 36.9706 8.66276 35.3984 10.0243Z" fill="#FCE7CA"/>
<path d="M35.9715 1.62463L35.1444 1.60864C35.0398 1.24716 34.8951 0.866321 34.811 0.832108C34.7103 0.791164 34.5623 1.26146 34.4708 1.59574L33.8814 1.58452C33.8331 1.48441 33.7815 1.38177 33.7294 1.28334C33.422 1.62743 33.1217 1.95807 32.8457 2.2758L35.746 2.33021C35.8026 2.25926 35.8604 2.18887 35.9199 2.11932C36.1285 1.87534 36.3464 1.65183 36.5663 1.44403C36.5197 1.15658 36.4583 0.912312 36.3991 0.883988C36.313 0.842764 36.1162 1.27184 35.9715 1.62463Z" fill="#FFCB48"/>
<path d="M68.8467 68.5818C71.3987 65.5971 73.1937 67.5826 73.1937 67.5826L72.9705 66.5536C71.7402 66.1436 70.077 66.4855 68.8467 68.5818Z" fill="#F4E1C1"/>
<path d="M18.3795 54.432C18.1742 54.0164 17.5954 53.8829 17.0867 54.1342C16.578 54.3854 16.332 54.9261 16.5373 55.3417C16.7426 55.7573 17.3214 55.8908 17.8301 55.6395C18.3391 55.3883 18.585 54.8476 18.3795 54.432Z" fill="#FCF0D9"/>
<path d="M29.5654 53.817C41.3842 43.7248 40.908 37.4287 40.908 37.4287C40.908 37.4287 38.022 42.8577 36.0032 45.912C33.6259 49.5086 29.5654 53.817 29.5654 53.817Z" fill="#F4E1C1"/>
<path d="M36.285 3.85664C36.28 3.81682 36.1055 3.71838 35.891 3.7453C35.6765 3.77223 35.5031 3.91441 35.5079 3.95395C35.513 3.99377 35.6885 3.94582 35.903 3.91917C36.1176 3.89225 36.29 3.89646 36.285 3.85664Z" fill="#603642"/>
<path d="M34.0126 3.99959C34.0182 3.96005 33.876 3.81899 33.662 3.78814C33.4481 3.75757 33.243 3.84871 33.2374 3.88825C33.2318 3.9278 33.4136 3.92808 33.6278 3.95893C33.8421 3.98978 34.007 4.03913 34.0126 3.99959Z" fill="#603642"/>
<path d="M14.3128 27.7654C13.0848 27.2339 12.2701 27.6751 12.2392 28.2174C12.2084 28.7598 12.9238 31.7061 13.5699 32.074C14.0192 32.3298 14.9118 32.1441 15.0865 31.5317C15.2413 30.9893 14.5913 27.8857 14.3128 27.7654Z" fill="#FFB882"/>
<path d="M12.2297 31.0535C12.5555 30.7907 12.2171 29.0983 11.7591 28.9917C11.3009 28.8852 9.10952 28.994 8.79178 29.5885C8.5708 30.0019 8.71831 30.9203 9.23404 31.1805C9.69087 31.4111 12.0303 31.2145 12.2297 31.0535Z" fill="#FFB882"/>
<path d="M12.8938 33.1329C13.1953 32.8859 12.7387 31.447 12.2802 31.3836C11.8217 31.3199 9.67412 31.5502 9.4049 32.083C9.21757 32.4534 9.42986 33.2367 9.95624 33.4291C10.4223 33.5993 12.709 33.2841 12.8938 33.1329Z" fill="#FFB882"/>
<path d="M13.6552 35.1939C13.9491 34.9984 13.692 33.6793 13.2907 33.585C12.8891 33.4908 10.9535 33.5202 10.6585 33.9732C10.4535 34.2878 10.5609 35.0029 11.0096 35.2175C11.407 35.4073 13.4752 35.3136 13.6552 35.1939Z" fill="#FFB882"/>
</svg>
